  0
SECTION
  2
HEADER
  9
$ACADVER
  1
AC1009
  9
$EXTMIN
  10
 0.000000
  20
 0.000000
  30
 0.000000
  9
$EXTMAX
  10
 362.000000
  20
 44.000000
  30
 0.000000
  0
ENDSEC
  0
SECTION
  2
TABLES
  0
TABLE
  2
LAYER
  70
     2048
  0
LAYER
  2
0
  70
    0
  62
     7
  6
CONTINUOUS
  0
LAYER
   2
C7
  70
     64
  62
7
  6
CONTINUOUS
  0
LAYER
   2
C27
  70
     64
  62
27
  6
CONTINUOUS
  0
LAYER
   2
C29
  70
     64
  62
29
  6
CONTINUOUS
  0
LAYER
   2
C37
  70
     64
  62
37
  6
CONTINUOUS
  0
LAYER
   2
C250
  70
     64
  62
250
  6
CONTINUOUS
  0
LAYER
   2
C251
  70
     64
  62
251
  6
CONTINUOUS
  0
LAYER
   2
C252
  70
     64
  62
252
  6
CONTINUOUS
  0
LAYER
   2
C253
  70
     64
  62
253
  6
CONTINUOUS
  0
LAYER
   2
C254
  70
     64
  62
254
  6
CONTINUOUS
  0
ENDTAB
  0
ENDSEC
  0
SECTION
  2
ENTITIES
  0
POLYLINE
  8
C7
  66
1
  10
0.000000
  20
44.000000
  0
VERTEX
  8
C7
  10
0.000000
  20
44.000000
  0
SEQEND
  8
C7
  0
POLYLINE
  8
C7
  66
1
  10
0.000000
  20
44.000000
  0
VERTEX
  8
C7
  10
0.000000
  20
44.000000
  0
VERTEX
  8
C7
  10
0.000000
  20
0.000000
  0
VERTEX
  8
C7
  10
362.000000
  20
0.000000
  0
VERTEX
  8
C7
  10
362.000000
  20
1.000000
  0
VERTEX
  8
C7
  10
360.926100
  20
1.019100
  0
VERTEX
  8
C7
  10
359.890800
  20
1.076100
  0
VERTEX
  8
C7
  10
358.893100
  20
1.170000
  0
VERTEX
  8
C7
  10
357.931800
  20
1.300000
  0
VERTEX
  8
C7
  10
357.005900
  20
1.465100
  0
VERTEX
  8
C7
  10
356.114100
  20
1.664500
  0
VERTEX
  8
C7
  10
355.255500
  20
1.897200
  0
VERTEX
  8
C7
  10
354.428800
  20
2.162500
  0
VERTEX
  8
C7
  10
353.633100
  20
2.459400
  0
VERTEX
  8
C7
  10
352.867200
  20
2.787100
  0
VERTEX
  8
C7
  10
352.129900
  20
3.144600
  0
VERTEX
  8
C7
  10
351.420300
  20
3.531100
  0
VERTEX
  8
C7
  10
350.737200
  20
3.945800
  0
VERTEX
  8
C7
  10
350.079400
  20
4.387600
  0
VERTEX
  8
C7
  10
349.445900
  20
4.855900
  0
VERTEX
  8
C7
  10
348.835600
  20
5.349500
  0
VERTEX
  8
C7
  10
348.247400
  20
5.867800
  0
VERTEX
  8
C7
  10
347.680200
  20
6.409800
  0
VERTEX
  8
C7
  10
347.132800
  20
6.974600
  0
VERTEX
  8
C7
  10
346.604200
  20
7.561300
  0
VERTEX
  8
C7
  10
346.093300
  20
8.169100
  0
VERTEX
  8
C7
  10
345.598900
  20
8.797100
  0
VERTEX
  8
C7
  10
345.120000
  20
9.444400
  0
VERTEX
  8
C7
  10
344.655400
  20
10.110200
  0
VERTEX
  8
C7
  10
344.204100
  20
10.793400
  0
VERTEX
  8
C7
  10
343.764900
  20
11.493300
  0
VERTEX
  8
C7
  10
343.336800
  20
12.209000
  0
VERTEX
  8
C7
  10
342.918600
  20
12.939600
  0
VERTEX
  8
C7
  10
342.509200
  20
13.684300
  0
VERTEX
  8
C7
  10
342.107600
  20
14.442000
  0
VERTEX
  8
C7
  10
341.712600
  20
15.212000
  0
VERTEX
  8
C7
  10
341.323200
  20
15.993400
  0
VERTEX
  8
C7
  10
340.938100
  20
16.785300
  0
VERTEX
  8
C7
  10
340.556400
  20
17.586800
  0
VERTEX
  8
C7
  10
340.176900
  20
18.397100
  0
VERTEX
  8
C7
  10
339.798500
  20
19.215200
  0
VERTEX
  8
C7
  10
339.420100
  20
20.040200
  0
VERTEX
  8
C7
  10
339.040700
  20
20.871400
  0
VERTEX
  8
C7
  10
338.659000
  20
21.707800
  0
VERTEX
  8
C7
  10
338.274000
  20
22.548500
  0
VERTEX
  8
C7
  10
337.884600
  20
23.392600
  0
VERTEX
  8
C7
  10
337.489700
  20
24.239300
  0
VERTEX
  8
C7
  10
337.088300
  20
25.087700
  0
VERTEX
  8
C7
  10
336.679000
  20
25.937000
  0
VERTEX
  8
C7
  10
336.261000
  20
26.786100
  0
VERTEX
  8
C7
  10
335.833100
  20
27.634300
  0
VERTEX
  8
C7
  10
335.394100
  20
28.480700
  0
VERTEX
  8
C7
  10
334.943000
  20
29.324300
  0
VERTEX
  8
C7
  10
334.478600
  20
30.164400
  0
VERTEX
  8
C7
  10
334.000000
  20
31.000000
  0
VERTEX
  8
C7
  10
332.000000
  20
31.000000
  0
VERTEX
  8
C7
  10
323.000000
  20
12.000000
  0
VERTEX
  8
C7
  10
338.000000
  20
12.000000
  0
VERTEX
  8
C7
  10
337.695900
  20
11.034400
  0
VERTEX
  8
C7
  10
337.357700
  20
10.122100
  0
VERTEX
  8
C7
  10
336.986200
  20
9.261500
  0
VERTEX
  8
C7
  10
336.582600
  20
8.451200
  0
VERTEX
  8
C7
  10
336.147800
  20
7.689800
  0
VERTEX
  8
C7
  10
335.682700
  20
6.975900
  0
VERTEX
  8
C7
  10
335.188500
  20
6.308000
  0
VERTEX
  8
C7
  10
334.666200
  20
5.684800
  0
VERTEX
  8
C7
  10
334.116600
  20
5.104800
  0
VERTEX
  8
C7
  10
333.540900
  20
4.566500
  0
VERTEX
  8
C7
  10
332.939900
  20
4.068600
  0
VERTEX
  8
C7
  10
332.314800
  20
3.609600
  0
VERTEX
  8
C7
  10
331.666600
  20
3.188100
  0
VERTEX
  8
C7
  10
330.996200
  20
2.802700
  0
VERTEX
  8
C7
  10
330.304600
  20
2.452000
  0
VERTEX
  8
C7
  10
329.592800
  20
2.134500
  0
VERTEX
  8
C7
  10
328.861900
  20
1.848800
  0
VERTEX
  8
C7
  10
328.112900
  20
1.593400
  0
VERTEX
  8
C7
  10
327.346600
  20
1.367100
  0
VERTEX
  8
C7
  10
326.564300
  20
1.168200
  0
VERTEX
  8
C7
  10
325.766800
  20
0.995500
  0
VERTEX
  8
C7
  10
324.955100
  20
0.847400
  0
VERTEX
  8
C7
  10
324.130300
  20
0.722600
  0
VERTEX
  8
C7
  10
323.293400
  20
0.619600
  0
VERTEX
  8
C7
  10
322.445300
  20
0.537100
  0
VERTEX
  8
C7
  10
321.587100
  20
0.473500
  0
VERTEX
  8
C7
  10
320.719700
  20
0.427400
  0
VERTEX
  8
C7
  10
319.844300
  20
0.397500
  0
VERTEX
  8
C7
  10
318.961700
  20
0.382400
  0
VERTEX
  8
C7
  10
318.073000
  20
0.380500
  0
VERTEX
  8
C7
  10
317.179200
  20
0.390400
  0
VERTEX
  8
C7
  10
316.281200
  20
0.410800
  0
VERTEX
  8
C7
  10
315.380100
  20
0.440200
  0
VERTEX
  8
C7
  10
314.477000
  20
0.477200
  0
VERTEX
  8
C7
  10
313.572700
  20
0.520300
  0
VERTEX
  8
C7
  10
312.668300
  20
0.568200
  0
VERTEX
  8
C7
  10
311.764800
  20
0.619400
  0
VERTEX
  8
C7
  10
310.863200
  20
0.672500
  0
VERTEX
  8
C7
  10
309.964600
  20
0.726000
  0
VERTEX
  8
C7
  10
309.069800
  20
0.778600
  0
VERTEX
  8
C7
  10
308.179900
  20
0.828800
  0
VERTEX
  8
C7
  10
307.296000
  20
0.875100
  0
VERTEX
  8
C7
  10
306.418900
  20
0.916300
  0
VERTEX
  8
C7
  10
305.549800
  20
0.950700
  0
VERTEX
  8
C7
  10
304.689600
  20
0.977100
  0
VERTEX
  8
C7
  10
303.839300
  20
0.994000
  0
VERTEX
  8
C7
  10
303.000000
  20
1.000000
  0
VERTEX
  8
C7
  10
318.575623
  20
30.000000
  0
VERTEX
  8
C7
  10
325.529327
  20
41.396603
  0
VERTEX
  8
C7
  10
338.787048
  20
42.396603
  0
VERTEX
  8
C7
  10
345.861115
  20
32.000000
  0
VERTEX
  8
C7
  10
361.000000
  20
3.000000
  0
VERTEX
  8
C7
  10
362.000000
  20
3.000000
  0
VERTEX
  8
C7
  10
362.000000
  20
44.000000
  0
VERTEX
  8
C7
  10
0.000000
  20
44.000000
  0
SEQEND
  8
C253
  0
POLYLINE
  8
C253
  66
1
  10
2.000000
  20
43.000000
  0
VERTEX
  8
C253
  10
2.000000
  20
43.000000
  0
VERTEX
  8
C253
  10
2.000000
  20
42.000000
  0
VERTEX
  8
C253
  10
37.000000
  20
42.000000
  0
VERTEX
  8
C253
  10
2.000000
  20
43.000000
  0
SEQEND
  8
C254
  0
POLYLINE
  8
C254
  66
1
  10
59.000000
  20
43.000000
  0
VERTEX
  8
C254
  10
59.000000
  20
43.000000
  0
VERTEX
  8
C254
  10
59.000000
  20
42.000000
  0
VERTEX
  8
C254
  10
100.000000
  20
42.000000
  0
VERTEX
  8
C254
  10
99.219000
  20
42.308700
  0
VERTEX
  8
C254
  10
98.412700
  20
42.591000
  0
VERTEX
  8
C254
  10
97.582300
  20
42.848000
  0
VERTEX
  8
C254
  10
96.728800
  20
43.080400
  0
VERTEX
  8
C254
  10
95.853600
  20
43.289400
  0
VERTEX
  8
C254
  10
94.957800
  20
43.475700
  0
VERTEX
  8
C254
  10
94.042500
  20
43.640300
  0
VERTEX
  8
C254
  10
93.109000
  20
43.784100
  0
VERTEX
  8
C254
  10
92.158500
  20
43.908200
  0
VERTEX
  8
C254
  10
91.192100
  20
44.013400
  0
VERTEX
  8
C254
  10
90.211000
  20
44.100600
  0
VERTEX
  8
C254
  10
89.216400
  20
44.170900
  0
VERTEX
  8
C254
  10
88.209600
  20
44.225000
  0
VERTEX
  8
C254
  10
87.191600
  20
44.264000
  0
VERTEX
  8
C254
  10
86.163700
  20
44.288800
  0
VERTEX
  8
C254
  10
85.127100
  20
44.300300
  0
VERTEX
  8
C254
  10
84.082900
  20
44.299500
  0
VERTEX
  8
C254
  10
83.032400
  20
44.287300
  0
VERTEX
  8
C254
  10
81.976700
  20
44.264600
  0
VERTEX
  8
C254
  10
80.917100
  20
44.232300
  0
VERTEX
  8
C254
  10
79.854600
  20
44.191500
  0
VERTEX
  8
C254
  10
78.790500
  20
44.143000
  0
VERTEX
  8
C254
  10
77.726000
  20
44.087700
  0
VERTEX
  8
C254
  10
76.662300
  20
44.026700
  0
VERTEX
  8
C254
  10
75.600500
  20
43.960700
  0
VERTEX
  8
C254
  10
74.541900
  20
43.890900
  0
VERTEX
  8
C254
  10
73.487500
  20
43.818000
  0
VERTEX
  8
C254
  10
72.438800
  20
43.743100
  0
VERTEX
  8
C254
  10
71.396700
  20
43.667000
  0
VERTEX
  8
C254
  10
70.362500
  20
43.590800
  0
VERTEX
  8
C254
  10
69.337400
  20
43.515200
  0
VERTEX
  8
C254
  10
68.322500
  20
43.441400
  0
VERTEX
  8
C254
  10
67.319100
  20
43.370100
  0
VERTEX
  8
C254
  10
66.328400
  20
43.302400
  0
VERTEX
  8
C254
  10
65.351400
  20
43.239100
  0
VERTEX
  8
C254
  10
64.389500
  20
43.181300
  0
VERTEX
  8
C254
  10
63.443800
  20
43.129800
  0
VERTEX
  8
C254
  10
62.515500
  20
43.085500
  0
VERTEX
  8
C254
  10
61.605800
  20
43.049500
  0
VERTEX
  8
C254
  10
60.715800
  20
43.022600
  0
VERTEX
  8
C254
  10
59.846800
  20
43.005800
  0
VERTEX
  8
C254
  10
59.000000
  20
43.000000
  0
SEQEND
  8
C253
  0
POLYLINE
  8
C253
  66
1
  10
127.000000
  20
43.000000
  0
VERTEX
  8
C253
  10
127.000000
  20
43.000000
  0
VERTEX
  8
C253
  10
127.000000
  20
42.000000
  0
VERTEX
  8
C253
  10
143.000000
  20
42.000000
  0
VERTEX
  8
C253
  10
127.000000
  20
43.000000
  0
SEQEND
  8
C253
  0
POLYLINE
  8
C253
  66
1
  10
170.000000
  20
43.000000
  0
VERTEX
  8
C253
  10
170.000000
  20
43.000000
  0
VERTEX
  8
C253
  10
170.000000
  20
42.000000
  0
VERTEX
  8
C253
  10
181.000000
  20
42.000000
  0
VERTEX
  8
C253
  10
170.000000
  20
43.000000
  0
SEQEND
  8
C253
  0
POLYLINE
  8
C253
  66
1
  10
202.000000
  20
43.000000
  0
VERTEX
  8
C253
  10
202.000000
  20
43.000000
  0
VERTEX
  8
C253
  10
202.000000
  20
42.000000
  0
VERTEX
  8
C253
  10
243.000000
  20
42.000000
  0
VERTEX
  8
C253
  10
242.219000
  20
42.308700
  0
VERTEX
  8
C253
  10
241.412700
  20
42.591000
  0
VERTEX
  8
C253
  10
240.582300
  20
42.848000
  0
VERTEX
  8
C253
  10
239.728800
  20
43.080400
  0
VERTEX
  8
C253
  10
238.853600
  20
43.289400
  0
VERTEX
  8
C253
  10
237.957800
  20
43.475700
  0
VERTEX
  8
C253
  10
237.042500
  20
43.640300
  0
VERTEX
  8
C253
  10
236.109000
  20
43.784100
  0
VERTEX
  8
C253
  10
235.158500
  20
43.908200
  0
VERTEX
  8
C253
  10
234.192100
  20
44.013400
  0
VERTEX
  8
C253
  10
233.211000
  20
44.100600
  0
VERTEX
  8
C253
  10
232.216400
  20
44.170900
  0
VERTEX
  8
C253
  10
231.209600
  20
44.225000
  0
VERTEX
  8
C253
  10
230.191600
  20
44.264000
  0
VERTEX
  8
C253
  10
229.163700
  20
44.288800
  0
VERTEX
  8
C253
  10
228.127100
  20
44.300300
  0
VERTEX
  8
C253
  10
227.082900
  20
44.299500
  0
VERTEX
  8
C253
  10
226.032400
  20
44.287300
  0
VERTEX
  8
C253
  10
224.976700
  20
44.264600
  0
VERTEX
  8
C253
  10
223.917100
  20
44.232300
  0
VERTEX
  8
C253
  10
222.854600
  20
44.191500
  0
VERTEX
  8
C253
  10
221.790500
  20
44.143000
  0
VERTEX
  8
C253
  10
220.726000
  20
44.087700
  0
VERTEX
  8
C253
  10
219.662300
  20
44.026700
  0
VERTEX
  8
C253
  10
218.600500
  20
43.960700
  0
VERTEX
  8
C253
  10
217.541900
  20
43.890900
  0
VERTEX
  8
C253
  10
216.487500
  20
43.818000
  0
VERTEX
  8
C253
  10
215.438800
  20
43.743100
  0
VERTEX
  8
C253
  10
214.396700
  20
43.667000
  0
VERTEX
  8
C253
  10
213.362500
  20
43.590800
  0
VERTEX
  8
C253
  10
212.337400
  20
43.515200
  0
VERTEX
  8
C253
  10
211.322500
  20
43.441400
  0
VERTEX
  8
C253
  10
210.319100
  20
43.370100
  0
VERTEX
  8
C253
  10
209.328400
  20
43.302400
  0
VERTEX
  8
C253
  10
208.351400
  20
43.239100
  0
VERTEX
  8
C253
  10
207.389500
  20
43.181300
  0
VERTEX
  8
C253
  10
206.443800
  20
43.129800
  0
VERTEX
  8
C253
  10
205.515500
  20
43.085500
  0
VERTEX
  8
C253
  10
204.605800
  20
43.049500
  0
VERTEX
  8
C253
  10
203.715800
  20
43.022600
  0
VERTEX
  8
C253
  10
202.846800
  20
43.005800
  0
VERTEX
  8
C253
  10
202.000000
  20
43.000000
  0
SEQEND
  8
C253
  0
POLYLINE
  8
C253
  66
1
  10
250.000000
  20
43.000000
  0
VERTEX
  8
C253
  10
250.000000
  20
43.000000
  0
VERTEX
  8
C253
  10
250.000000
  20
42.000000
  0
VERTEX
  8
C253
  10
285.000000
  20
42.000000
  0
VERTEX
  8
C253
  10
250.000000
  20
43.000000
  0
SEQEND
  8
C253
  0
POLYLINE
  8
C253
  66
1
  10
325.000000
  20
43.000000
  0
VERTEX
  8
C253
  10
325.000000
  20
43.000000
  0
VERTEX
  8
C253
  10
325.000000
  20
42.000000
  0
VERTEX
  8
C253
  10
341.000000
  20
42.000000
  0
VERTEX
  8
C253
  10
325.000000
  20
43.000000
  0
SEQEND
  8
C29
  0
POLYLINE
  8
C29
  66
1
  10
2.000000
  20
42.000000
  0
VERTEX
  8
C29
  10
2.000000
  20
42.000000
  0
VERTEX
  8
C29
  10
2.000000
  20
2.000000
  0
VERTEX
  8
C29
  10
13.000000
  20
2.000000
  0
VERTEX
  8
C29
  10
13.000000
  20
12.000000
  0
VERTEX
  8
C29
  10
28.906635
  20
11.396605
  0
VERTEX
  8
C29
  10
37.325619
  20
3.027778
  0
VERTEX
  8
C29
  10
51.000000
  20
2.000000
  0
VERTEX
  8
C29
  10
43.000000
  20
16.000000
  0
VERTEX
  8
C29
  10
43.679200
  20
16.430900
  0
VERTEX
  8
C29
  10
44.321600
  20
16.914600
  0
VERTEX
  8
C29
  10
44.926600
  20
17.447700
  0
VERTEX
  8
C29
  10
45.493800
  20
18.027000
  0
VERTEX
  8
C29
  10
46.023000
  20
18.649000
  0
VERTEX
  8
C29
  10
46.513600
  20
19.310600
  0
VERTEX
  8
C29
  10
46.965200
  20
20.008300
  0
VERTEX
  8
C29
  10
47.377500
  20
20.738900
  0
VERTEX
  8
C29
  10
47.750100
  20
21.499100
  0
VERTEX
  8
C29
  10
48.082400
  20
22.285600
  0
VERTEX
  8
C29
  10
48.374200
  20
23.094900
  0
VERTEX
  8
C29
  10
48.625100
  20
23.924000
  0
VERTEX
  8
C29
  10
48.834500
  20
24.769300
  0
VERTEX
  8
C29
  10
49.002200
  20
25.627600
  0
VERTEX
  8
C29
  10
49.127600
  20
26.495700
  0
VERTEX
  8
C29
  10
49.210500
  20
27.370100
  0
VERTEX
  8
C29
  10
49.250400
  20
28.247600
  0
VERTEX
  8
C29
  10
49.246800
  20
29.124900
  0
VERTEX
  8
C29
  10
49.199500
  20
29.998600
  0
VERTEX
  8
C29
  10
49.107900
  20
30.865500
  0
VERTEX
  8
C29
  10
48.971700
  20
31.722200
  0
VERTEX
  8
C29
  10
48.790500
  20
32.565400
  0
VERTEX
  8
C29
  10
48.563800
  20
33.391800
  0
VERTEX
  8
C29
  10
48.291300
  20
34.198200
  0
VERTEX
  8
C29
  10
47.972600
  20
34.981100
  0
VERTEX
  8
C29
  10
47.607200
  20
35.737300
  0
VERTEX
  8
C29
  10
47.194700
  20
36.463400
  0
VERTEX
  8
C29
  10
46.734800
  20
37.156200
  0
VERTEX
  8
C29
  10
46.227100
  20
37.812400
  0
VERTEX
  8
C29
  10
45.671000
  20
38.428600
  0
VERTEX
  8
C29
  10
45.066300
  20
39.001400
  0
VERTEX
  8
C29
  10
44.412500
  20
39.527800
  0
VERTEX
  8
C29
  10
43.709100
  20
40.004200
  0
VERTEX
  8
C29
  10
42.956000
  20
40.427400
  0
VERTEX
  8
C29
  10
42.203400
  20
40.787200
  0
VERTEX
  8
C29
  10
41.422000
  20
41.117700
  0
VERTEX
  8
C29
  10
40.613100
  20
41.419900
  0
VERTEX
  8
C29
  10
39.778000
  20
41.694800
  0
VERTEX
  8
C29
  10
38.918200
  20
41.943500
  0
VERTEX
  8
C29
  10
38.034900
  20
42.166900
  0
VERTEX
  8
C29
  10
37.129500
  20
42.366100
  0
VERTEX
  8
C29
  10
36.203300
  20
42.542000
  0
VERTEX
  8
C29
  10
35.257800
  20
42.695800
  0
VERTEX
  8
C29
  10
34.294200
  20
42.828400
  0
VERTEX
  8
C29
  10
33.313800
  20
42.940800
  0
VERTEX
  8
C29
  10
32.318200
  20
43.034200
  0
VERTEX
  8
C29
  10
31.308500
  20
43.109400
  0
VERTEX
  8
C29
  10
30.286200
  20
43.167500
  0
VERTEX
  8
C29
  10
29.252600
  20
43.209600
  0
VERTEX
  8
C29
  10
28.209000
  20
43.236600
  0
VERTEX
  8
C29
  10
27.156800
  20
43.249600
  0
VERTEX
  8
C29
  10
26.097300
  20
43.249500
  0
VERTEX
  8
C29
  10
25.031900
  20
43.237500
  0
VERTEX
  8
C29
  10
23.962000
  20
43.214600
  0
VERTEX
  8
C29
  10
22.888900
  20
43.181600
  0
VERTEX
  8
C29
  10
21.813900
  20
43.139800
  0
VERTEX
  8
C29
  10
20.738300
  20
43.090100
  0
VERTEX
  8
C29
  10
19.663700
  20
43.033400
  0
VERTEX
  8
C29
  10
18.591200
  20
42.970900
  0
VERTEX
  8
C29
  10
17.522200
  20
42.903600
  0
VERTEX
  8
C29
  10
16.458100
  20
42.832400
  0
VERTEX
  8
C29
  10
15.400200
  20
42.758500
  0
VERTEX
  8
C29
  10
14.350000
  20
42.682700
  0
VERTEX
  8
C29
  10
13.308600
  20
42.606200
  0
VERTEX
  8
C29
  10
12.277500
  20
42.529900
  0
VERTEX
  8
C29
  10
11.258100
  20
42.455000
  0
VERTEX
  8
C29
  10
10.251600
  20
42.382300
  0
VERTEX
  8
C29
  10
9.259500
  20
42.312900
  0
VERTEX
  8
C29
  10
8.283000
  20
42.247900
  0
VERTEX
  8
C29
  10
7.323600
  20
42.188200
  0
VERTEX
  8
C29
  10
6.382500
  20
42.135000
  0
VERTEX
  8
C29
  10
5.461200
  20
42.089100
  0
VERTEX
  8
C29
  10
4.560900
  20
42.051600
  0
VERTEX
  8
C29
  10
3.683000
  20
42.023600
  0
VERTEX
  8
C29
  10
2.828900
  20
42.006000
  0
VERTEX
  8
C29
  10
2.000000
  20
42.000000
  0
SEQEND
  8
C253
  0
POLYLINE
  8
C253
  66
1
  10
40.666668
  20
41.666668
  0
VERTEX
  8
C253
  10
40.666668
  20
41.666668
  0
VERTEX
  8
C253
  10
41.333332
  20
41.333332
  0
VERTEX
  8
C253
  10
40.666668
  20
41.666668
  0
SEQEND
  8
C37
  0
POLYLINE
  8
C37
  66
1
  10
59.000000
  20
42.000000
  0
VERTEX
  8
C37
  10
59.000000
  20
42.000000
  0
VERTEX
  8
C37
  10
59.000000
  20
2.000000
  0
VERTEX
  8
C37
  10
60.000000
  20
2.000000
  0
VERTEX
  8
C37
  10
60.005900
  20
2.848200
  0
VERTEX
  8
C37
  10
60.023000
  20
3.718800
  0
VERTEX
  8
C37
  10
60.050300
  20
4.610600
  0
VERTEX
  8
C37
  10
60.086900
  20
5.522400
  0
VERTEX
  8
C37
  10
60.131800
  20
6.452800
  0
VERTEX
  8
C37
  10
60.183900
  20
7.400700
  0
VERTEX
  8
C37
  10
60.242300
  20
8.364800
  0
VERTEX
  8
C37
  10
60.306100
  20
9.343900
  0
VERTEX
  8
C37
  10
60.374200
  20
10.336800
  0
VERTEX
  8
C37
  10
60.445700
  20
11.342200
  0
VERTEX
  8
C37
  10
60.519600
  20
12.359000
  0
VERTEX
  8
C37
  10
60.594900
  20
13.385800
  0
VERTEX
  8
C37
  10
60.670700
  20
14.421400
  0
VERTEX
  8
C37
  10
60.745900
  20
15.464600
  0
VERTEX
  8
C37
  10
60.819600
  20
16.514200
  0
VERTEX
  8
C37
  10
60.890800
  20
17.568900
  0
VERTEX
  8
C37
  10
60.958500
  20
18.627600
  0
VERTEX
  8
C37
  10
61.021800
  20
19.688900
  0
VERTEX
  8
C37
  10
61.079600
  20
20.751600
  0
VERTEX
  8
C37
  10
61.131100
  20
21.814500
  0
VERTEX
  8
C37
  10
61.175100
  20
22.876500
  0
VERTEX
  8
C37
  10
61.210800
  20
23.936100
  0
VERTEX
  8
C37
  10
61.237200
  20
24.992300
  0
VERTEX
  8
C37
  10
61.253200
  20
26.043700
  0
VERTEX
  8
C37
  10
61.258000
  20
27.089200
  0
VERTEX
  8
C37
  10
61.250500
  20
28.127400
  0
VERTEX
  8
C37
  10
61.229700
  20
29.157300
  0
VERTEX
  8
C37
  10
61.194700
  20
30.177500
  0
VERTEX
  8
C37
  10
61.144500
  20
31.186800
  0
VERTEX
  8
C37
  10
61.078100
  20
32.183900
  0
VERTEX
  8
C37
  10
60.994500
  20
33.167700
  0
VERTEX
  8
C37
  10
60.892800
  20
34.137000
  0
VERTEX
  8
C37
  10
60.772000
  20
35.090400
  0
VERTEX
  8
C37
  10
60.631100
  20
36.026700
  0
VERTEX
  8
C37
  10
60.469100
  20
36.944800
  0
VERTEX
  8
C37
  10
60.285100
  20
37.843300
  0
VERTEX
  8
C37
  10
60.078100
  20
38.721100
  0
VERTEX
  8
C37
  10
59.847000
  20
39.576800
  0
VERTEX
  8
C37
  10
59.590900
  20
40.409400
  0
VERTEX
  8
C37
  10
59.308900
  20
41.217500
  0
VERTEX
  8
C37
  10
59.000000
  20
42.000000
  0
SEQEND
  8
C29
  0
POLYLINE
  8
C29
  66
1
  10
60.000000
  20
42.000000
  0
VERTEX
  8
C29
  10
60.000000
  20
42.000000
  0
VERTEX
  8
C29
  10
60.000000
  20
2.000000
  0
VERTEX
  8
C29
  10
100.000000
  20
2.000000
  0
VERTEX
  8
C29
  10
100.000000
  20
11.000000
  0
VERTEX
  8
C29
  10
70.000000
  20
11.000000
  0
VERTEX
  8
C29
  10
70.106100
  20
11.869200
  0
VERTEX
  8
C29
  10
70.284500
  20
12.672900
  0
VERTEX
  8
C29
  10
70.531900
  20
13.413400
  0
VERTEX
  8
C29
  10
70.845100
  20
14.093200
  0
VERTEX
  8
C29
  10
71.220800
  20
14.714700
  0
VERTEX
  8
C29
  10
71.655700
  20
15.280100
  0
VERTEX
  8
C29
  10
72.146500
  20
15.791800
  0
VERTEX
  8
C29
  10
72.690000
  20
16.252400
  0
VERTEX
  8
C29
  10
73.282900
  20
16.664000
  0
VERTEX
  8
C29
  10
73.921900
  20
17.029200
  0
VERTEX
  8
C29
  10
74.603700
  20
17.350300
  0
VERTEX
  8
C29
  10
75.325100
  20
17.629600
  0
VERTEX
  8
C29
  10
76.082800
  20
17.869600
  0
VERTEX
  8
C29
  10
76.873600
  20
18.072600
  0
VERTEX
  8
C29
  10
77.694100
  20
18.241000
  0
VERTEX
  8
C29
  10
78.541000
  20
18.377200
  0
VERTEX
  8
C29
  10
79.411200
  20
18.483600
  0
VERTEX
  8
C29
  10
80.301300
  20
18.562500
  0
VERTEX
  8
C29
  10
81.208100
  20
18.616300
  0
VERTEX
  8
C29
  10
82.128200
  20
18.647400
  0
VERTEX
  8
C29
  10
83.058500
  20
18.658200
  0
VERTEX
  8
C29
  10
83.995600
  20
18.651100
  0
VERTEX
  8
C29
  10
84.936200
  20
18.628400
  0
VERTEX
  8
C29
  10
85.877200
  20
18.592600
  0
VERTEX
  8
C29
  10
86.815100
  20
18.545900
  0
VERTEX
  8
C29
  10
87.746900
  20
18.490800
  0
VERTEX
  8
C29
  10
88.669000
  20
18.429600
  0
VERTEX
  8
C29
  10
89.578400
  20
18.364800
  0
VERTEX
  8
C29
  10
90.471700
  20
18.298700
  0
VERTEX
  8
C29
  10
91.345700
  20
18.233800
  0
VERTEX
  8
C29
  10
92.197100
  20
18.172200
  0
VERTEX
  8
C29
  10
93.022500
  20
18.116600
  0
VERTEX
  8
C29
  10
93.818800
  20
18.069100
  0
VERTEX
  8
C29
  10
94.582700
  20
18.032300
  0
VERTEX
  8
C29
  10
95.310800
  20
18.008400
  0
VERTEX
  8
C29
  10
96.000000
  20
18.000000
  0
VERTEX
  8
C29
  10
96.000000
  20
26.000000
  0
VERTEX
  8
C29
  10
70.000000
  20
26.000000
  0
VERTEX
  8
C29
  10
70.102400
  20
26.829200
  0
VERTEX
  8
C29
  10
70.276700
  20
27.599900
  0
VERTEX
  8
C29
  10
70.519700
  20
28.314000
  0
VERTEX
  8
C29
  10
70.828300
  20
28.973600
  0
VERTEX
  8
C29
  10
71.199400
  20
29.580500
  0
VERTEX
  8
C29
  10
71.630000
  20
30.136800
  0
VERTEX
  8
C29
  10
72.117000
  20
30.644500
  0
VERTEX
  8
C29
  10
72.657300
  20
31.105400
  0
VERTEX
  8
C29
  10
73.247800
  20
31.521700
  0
VERTEX
  8
C29
  10
73.885300
  20
31.895100
  0
VERTEX
  8
C29
  10
74.566900
  20
32.227800
  0
VERTEX
  8
C29
  10
75.289500
  20
32.521700
  0
VERTEX
  8
C29
  10
76.049900
  20
32.778800
  0
VERTEX
  8
C29
  10
76.845100
  20
33.001000
  0
VERTEX
  8
C29
  10
77.672000
  20
33.190400
  0
VERTEX
  8
C29
  10
78.527400
  20
33.348800
  0
VERTEX
  8
C29
  10
79.408400
  20
33.478300
  0
VERTEX
  8
C29
  10
80.311800
  20
33.580800
  0
VERTEX
  8
C29
  10
81.234600
  20
33.658300
  0
VERTEX
  8
C29
  10
82.173600
  20
33.712900
  0
VERTEX
  8
C29
  10
83.125800
  20
33.746300
  0
VERTEX
  8
C29
  10
84.088100
  20
33.760800
  0
VERTEX
  8
C29
  10
85.057300
  20
33.758100
  0
VERTEX
  8
C29
  10
86.030500
  20
33.740300
  0
VERTEX
  8
C29
  10
87.004600
  20
33.709300
  0
VERTEX
  8
C29
  10
87.976300
  20
33.667200
  0
VERTEX
  8
C29
  10
88.942700
  20
33.615800
  0
VERTEX
  8
C29
  10
89.900700
  20
33.557200
  0
VERTEX
  8
C29
  10
90.847200
  20
33.493400
  0
VERTEX
  8
C29
  10
91.779100
  20
33.426300
  0
VERTEX
  8
C29
  10
92.693300
  20
33.357900
  0
VERTEX
  8
C29
  10
93.586700
  20
33.290100
  0
VERTEX
  8
C29
  10
94.456300
  20
33.224900
  0
VERTEX
  8
C29
  10
95.298900
  20
33.164400
  0
VERTEX
  8
C29
  10
96.111500
  20
33.110500
  0
VERTEX
  8
C29
  10
96.891000
  20
33.065100
  0
VERTEX
  8
C29
  10
97.634300
  20
33.030200
  0
VERTEX
  8
C29
  10
98.338300
  20
33.007800
  0
VERTEX
  8
C29
  10
99.000000
  20
33.000000
  0
VERTEX
  8
C29
  10
99.000000
  20
42.000000
  0
VERTEX
  8
C29
  10
60.000000
  20
42.000000
  0
SEQEND
  8
C250
  0
POLYLINE
  8
C250
  66
1
  10
99.000000
  20
42.000000
  0
VERTEX
  8
C250
  10
99.000000
  20
42.000000
  0
VERTEX
  8
C250
  10
99.000000
  20
33.000000
  0
VERTEX
  8
C250
  10
71.000000
  20
33.000000
  0
VERTEX
  8
C250
  10
71.000000
  20
32.000000
  0
VERTEX
  8
C250
  10
100.000000
  20
32.000000
  0
VERTEX
  8
C250
  10
99.000000
  20
42.000000
  0
SEQEND
  8
C252
  0
POLYLINE
  8
C252
  66
1
  10
126.000000
  20
42.000000
  0
VERTEX
  8
C252
  10
126.000000
  20
42.000000
  0
VERTEX
  8
C252
  10
127.000000
  20
41.000000
  0
VERTEX
  8
C252
  10
126.000000
  20
42.000000
  0
SEQEND
  8
C29
  0
POLYLINE
  8
C29
  66
1
  10
106.000000
  20
2.000000
  0
VERTEX
  8
C29
  10
106.000000
  20
2.000000
  0
VERTEX
  8
C29
  10
106.882300
  20
1.993100
  0
VERTEX
  8
C29
  10
107.774300
  20
1.973500
  0
VERTEX
  8
C29
  10
108.674800
  20
1.943000
  0
VERTEX
  8
C29
  10
109.582800
  20
1.903200
  0
VERTEX
  8
C29
  10
110.497300
  20
1.855700
  0
VERTEX
  8
C29
  10
111.417300
  20
1.802300
  0
VERTEX
  8
C29
  10
112.341700
  20
1.744700
  0
VERTEX
  8
C29
  10
113.269600
  20
1.684500
  0
VERTEX
  8
C29
  10
114.199900
  20
1.623300
  0
VERTEX
  8
C29
  10
115.131700
  20
1.563000
  0
VERTEX
  8
C29
  10
116.063800
  20
1.505100
  0
VERTEX
  8
C29
  10
116.995300
  20
1.451300
  0
VERTEX
  8
C29
  10
117.925100
  20
1.403400
  0
VERTEX
  8
C29
  10
118.852300
  20
1.362900
  0
VERTEX
  8
C29
  10
119.775700
  20
1.331700
  0
VERTEX
  8
C29
  10
120.694500
  20
1.311300
  0
VERTEX
  8
C29
  10
121.607600
  20
1.303400
  0
VERTEX
  8
C29
  10
122.513900
  20
1.309700
  0
VERTEX
  8
C29
  10
123.412400
  20
1.331900
  0
VERTEX
  8
C29
  10
124.302200
  20
1.371700
  0
VERTEX
  8
C29
  10
125.182100
  20
1.430800
  0
VERTEX
  8
C29
  10
126.051300
  20
1.510800
  0
VERTEX
  8
C29
  10
126.908600
  20
1.613400
  0
VERTEX
  8
C29
  10
127.753000
  20
1.740200
  0
VERTEX
  8
C29
  10
128.583600
  20
1.893100
  0
VERTEX
  8
C29
  10
129.399300
  20
2.073600
  0
VERTEX
  8
C29
  10
130.199100
  20
2.283400
  0
VERTEX
  8
C29
  10
130.981900
  20
2.524300
  0
VERTEX
  8
C29
  10
131.746800
  20
2.797800
  0
VERTEX
  8
C29
  10
132.492700
  20
3.105700
  0
VERTEX
  8
C29
  10
133.218600
  20
3.449600
  0
VERTEX
  8
C29
  10
133.923600
  20
3.831300
  0
VERTEX
  8
C29
  10
134.606500
  20
4.252400
  0
VERTEX
  8
C29
  10
135.266300
  20
4.714500
  0
VERTEX
  8
C29
  10
135.902100
  20
5.219500
  0
VERTEX
  8
C29
  10
136.512800
  20
5.768800
  0
VERTEX
  8
C29
  10
137.097400
  20
6.364300
  0
VERTEX
  8
C29
  10
137.654900
  20
7.007600
  0
VERTEX
  8
C29
  10
138.184300
  20
7.700400
  0
VERTEX
  8
C29
  10
138.684500
  20
8.444400
  0
VERTEX
  8
C29
  10
139.154500
  20
9.241100
  0
VERTEX
  8
C29
  10
139.593300
  20
10.092400
  0
VERTEX
  8
C29
  10
140.000000
  20
11.000000
  0
VERTEX
  8
C29
  10
124.000000
  20
11.000000
  0
VERTEX
  8
C29
  10
135.000000
  20
32.000000
  0
VERTEX
  8
C29
  10
135.402800
  20
31.129100
  0
VERTEX
  8
C29
  10
135.800500
  20
30.255000
  0
VERTEX
  8
C29
  10
136.193800
  20
29.378700
  0
VERTEX
  8
C29
  10
136.583400
  20
28.501100
  0
VERTEX
  8
C29
  10
136.970200
  20
27.623000
  0
VERTEX
  8
C29
  10
137.354900
  20
26.745300
  0
VERTEX
  8
C29
  10
137.738300
  20
25.868900
  0
VERTEX
  8
C29
  10
138.121200
  20
24.994600
  0
VERTEX
  8
C29
  10
138.504300
  20
24.123500
  0
VERTEX
  8
C29
  10
138.888500
  20
23.256300
  0
VERTEX
  8
C29
  10
139.274500
  20
22.394000
  0
VERTEX
  8
C29
  10
139.663200
  20
21.537500
  0
VERTEX
  8
C29
  10
140.055200
  20
20.687500
  0
VERTEX
  8
C29
  10
140.451300
  20
19.845100
  0
VERTEX
  8
C29
  10
140.852400
  20
19.011100
  0
VERTEX
  8
C29
  10
141.259300
  20
18.186400
  0
VERTEX
  8
C29
  10
141.672600
  20
17.371800
  0
VERTEX
  8
C29
  10
142.093200
  20
16.568400
  0
VERTEX
  8
C29
  10
142.521900
  20
15.776900
  0
VERTEX
  8
C29
  10
142.959500
  20
14.998200
  0
VERTEX
  8
C29
  10
143.406600
  20
14.233300
  0
VERTEX
  8
C29
  10
143.864200
  20
13.483000
  0
VERTEX
  8
C29
  10
144.332900
  20
12.748300
  0
VERTEX
  8
C29
  10
144.813600
  20
12.029900
  0
VERTEX
  8
C29
  10
145.307000
  20
11.328800
  0
VERTEX
  8
C29
  10
145.814000
  20
10.645900
  0
VERTEX
  8
C29
  10
146.335200
  20
9.982100
  0
VERTEX
  8
C29
  10
146.871600
  20
9.338300
  0
VERTEX
  8
C29
  10
147.423800
  20
8.715200
  0
VERTEX
  8
C29
  10
147.992600
  20
8.113900
  0
VERTEX
  8
C29
  10
148.578900
  20
7.535300
  0
VERTEX
  8
C29
  10
149.183400
  20
6.980100
  0
VERTEX
  8
C29
  10
149.806800
  20
6.449300
  0
VERTEX
  8
C29
  10
150.450100
  20
5.943800
  0
VERTEX
  8
C29
  10
151.113800
  20
5.464500
  0
VERTEX
  8
C29
  10
151.798900
  20
5.012300
  0
VERTEX
  8
C29
  10
152.506100
  20
4.588000
  0
VERTEX
  8
C29
  10
153.236100
  20
4.192500
  0
VERTEX
  8
C29
  10
153.989800
  20
3.826800
  0
VERTEX
  8
C29
  10
154.768000
  20
3.491700
  0
VERTEX
  8
C29
  10
155.571400
  20
3.188100
  0
VERTEX
  8
C29
  10
156.400800
  20
2.916900
  0
VERTEX
  8
C29
  10
157.256900
  20
2.678900
  0
VERTEX
  8
C29
  10
158.140600
  20
2.475200
  0
VERTEX
  8
C29
  10
159.052700
  20
2.306500
  0
VERTEX
  8
C29
  10
159.993900
  20
2.173700
  0
VERTEX
  8
C29
  10
160.965000
  20
2.077800
  0
VERTEX
  8
C29
  10
161.966700
  20
2.019600
  0
VERTEX
  8
C29
  10
163.000000
  20
2.000000
  0
VERTEX
  8
C29
  10
149.244598
  20
30.000000
  0
VERTEX
  8
C29
  10
142.365738
  20
40.972221
  0
VERTEX
  8
C29
  10
128.209869
  20
41.396603
  0
VERTEX
  8
C29
  10
120.744598
  20
31.000000
  0
VERTEX
  8
C29
  10
106.000000
  20
2.000000
  0
SEQEND
  8
C252
  0
POLYLINE
  8
C252
  66
1
  10
169.000000
  20
42.000000
  0
VERTEX
  8
C252
  10
169.000000
  20
42.000000
  0
VERTEX
  8
C252
  10
169.000000
  20
1.000000
  0
VERTEX
  8
C252
  10
170.000000
  20
1.000000
  0
VERTEX
  8
C252
  10
170.005800
  20
1.846800
  0
VERTEX
  8
C252
  10
170.022600
  20
2.715800
  0
VERTEX
  8
C252
  10
170.049500
  20
3.605800
  0
VERTEX
  8
C252
  10
170.085500
  20
4.515500
  0
VERTEX
  8
C252
  10
170.129800
  20
5.443900
  0
VERTEX
  8
C252
  10
170.181300
  20
6.389600
  0
VERTEX
  8
C252
  10
170.239100
  20
7.351500
  0
VERTEX
  8
C252
  10
170.302400
  20
8.328400
  0
VERTEX
  8
C252
  10
170.370100
  20
9.319100
  0
VERTEX
  8
C252
  10
170.441400
  20
10.322500
  0
VERTEX
  8
C252
  10
170.515200
  20
11.337400
  0
VERTEX
  8
C252
  10
170.590800
  20
12.362500
  0
VERTEX
  8
C252
  10
170.667000
  20
13.396700
  0
VERTEX
  8
C252
  10
170.743100
  20
14.438800
  0
VERTEX
  8
C252
  10
170.818000
  20
15.487600
  0
VERTEX
  8
C252
  10
170.890900
  20
16.541900
  0
VERTEX
  8
C252
  10
170.960700
  20
17.600500
  0
VERTEX
  8
C252
  10
171.026700
  20
18.662300
  0
VERTEX
  8
C252
  10
171.087700
  20
19.726000
  0
VERTEX
  8
C252
  10
171.143000
  20
20.790500
  0
VERTEX
  8
C252
  10
171.191500
  20
21.854600
  0
VERTEX
  8
C252
  10
171.232300
  20
22.917100
  0
VERTEX
  8
C252
  10
171.264600
  20
23.976700
  0
VERTEX
  8
C252
  10
171.287300
  20
25.032400
  0
VERTEX
  8
C252
  10
171.299500
  20
26.082900
  0
VERTEX
  8
C252
  10
171.300300
  20
27.127100
  0
VERTEX
  8
C252
  10
171.288800
  20
28.163700
  0
VERTEX
  8
C252
  10
171.264000
  20
29.191600
  0
VERTEX
  8
C252
  10
171.225000
  20
30.209500
  0
VERTEX
  8
C252
  10
171.170900
  20
31.216400
  0
VERTEX
  8
C252
  10
171.100600
  20
32.211000
  0
VERTEX
  8
C252
  10
171.013400
  20
33.192000
  0
VERTEX
  8
C252
  10
170.908200
  20
34.158400
  0
VERTEX
  8
C252
  10
170.784100
  20
35.109000
  0
VERTEX
  8
C252
  10
170.640300
  20
36.042500
  0
VERTEX
  8
C252
  10
170.475700
  20
36.957700
  0
VERTEX
  8
C252
  10
170.289400
  20
37.853600
  0
VERTEX
  8
C252
  10
170.080400
  20
38.728800
  0
VERTEX
  8
C252
  10
169.848000
  20
39.582300
  0
VERTEX
  8
C252
  10
169.591000
  20
40.412700
  0
VERTEX
  8
C252
  10
169.308700
  20
41.219000
  0
VERTEX
  8
C252
  10
169.000000
  20
42.000000
  0
SEQEND
  8
C29
  0
POLYLINE
  8
C29
  66
1
  10
170.000000
  20
42.000000
  0
VERTEX
  8
C29
  10
170.000000
  20
42.000000
  0
VERTEX
  8
C29
  10
170.000000
  20
2.000000
  0
VERTEX
  8
C29
  10
205.000000
  20
2.000000
  0
VERTEX
  8
C29
  10
205.000000
  20
11.000000
  0
VERTEX
  8
C29
  10
180.000000
  20
11.000000
  0
VERTEX
  8
C29
  10
180.000000
  20
42.000000
  0
VERTEX
  8
C29
  10
170.000000
  20
42.000000
  0
SEQEND
  8
C37
  0
POLYLINE
  8
C37
  66
1
  10
180.000000
  20
42.000000
  0
VERTEX
  8
C37
  10
180.000000
  20
42.000000
  0
VERTEX
  8
C37
  10
180.000000
  20
11.000000
  0
VERTEX
  8
C37
  10
181.000000
  20
11.000000
  0
VERTEX
  8
C37
  10
180.000000
  20
42.000000
  0
SEQEND
  8
C253
  0
POLYLINE
  8
C253
  66
1
  10
201.000000
  20
42.000000
  0
VERTEX
  8
C253
  10
201.000000
  20
42.000000
  0
VERTEX
  8
C253
  10
201.000000
  20
32.000000
  0
VERTEX
  8
C253
  10
202.000000
  20
32.000000
  0
VERTEX
  8
C253
  10
201.000000
  20
42.000000
  0
SEQEND
  8
C29
  0
POLYLINE
  8
C29
  66
1
  10
202.000000
  20
42.000000
  0
VERTEX
  8
C29
  10
202.000000
  20
42.000000
  0
VERTEX
  8
C29
  10
202.000000
  20
33.000000
  0
VERTEX
  8
C29
  10
217.000000
  20
33.000000
  0
VERTEX
  8
C29
  10
217.000000
  20
2.000000
  0
VERTEX
  8
C29
  10
227.000000
  20
2.000000
  0
VERTEX
  8
C29
  10
226.991500
  20
2.593200
  0
VERTEX
  8
C29
  10
226.967500
  20
3.258900
  0
VERTEX
  8
C29
  10
226.929900
  20
3.992000
  0
VERTEX
  8
C29
  10
226.880700
  20
4.787400
  0
VERTEX
  8
C29
  10
226.821900
  20
5.639900
  0
VERTEX
  8
C29
  10
226.755400
  20
6.544500
  0
VERTEX
  8
C29
  10
226.683300
  20
7.496000
  0
VERTEX
  8
C29
  10
226.607500
  20
8.489300
  0
VERTEX
  8
C29
  10
226.530000
  20
9.519400
  0
VERTEX
  8
C29
  10
226.452800
  20
10.581000
  0
VERTEX
  8
C29
  10
226.377900
  20
11.669200
  0
VERTEX
  8
C29
  10
226.307300
  20
12.778700
  0
VERTEX
  8
C29
  10
226.242800
  20
13.904600
  0
VERTEX
  8
C29
  10
226.186600
  20
15.041600
  0
VERTEX
  8
C29
  10
226.140600
  20
16.184700
  0
VERTEX
  8
C29
  10
226.106800
  20
17.328700
  0
VERTEX
  8
C29
  10
226.087200
  20
18.468600
  0
VERTEX
  8
C29
  10
226.083700
  20
19.599200
  0
VERTEX
  8
C29
  10
226.098400
  20
20.715400
  0
VERTEX
  8
C29
  10
226.133100
  20
21.812200
  0
VERTEX
  8
C29
  10
226.190000
  20
22.884300
  0
VERTEX
  8
C29
  10
226.271000
  20
23.926800
  0
VERTEX
  8
C29
  10
226.378000
  20
24.934400
  0
VERTEX
  8
C29
  10
226.513000
  20
25.902100
  0
VERTEX
  8
C29
  10
226.678100
  20
26.824800
  0
VERTEX
  8
C29
  10
226.875200
  20
27.697400
  0
VERTEX
  8
C29
  10
227.106300
  20
28.514700
  0
VERTEX
  8
C29
  10
227.373400
  20
29.271600
  0
VERTEX
  8
C29
  10
227.678400
  20
29.963100
  0
VERTEX
  8
C29
  10
228.023400
  20
30.584000
  0
VERTEX
  8
C29
  10
228.410300
  20
31.129200
  0
VERTEX
  8
C29
  10
228.841100
  20
31.593600
  0
VERTEX
  8
C29
  10
229.317900
  20
31.972200
  0
VERTEX
  8
C29
  10
230.094400
  20
32.404900
  0
VERTEX
  8
C29
  10
230.953700
  20
32.735900
  0
VERTEX
  8
C29
  10
231.882000
  20
32.976700
  0
VERTEX
  8
C29
  10
232.866100
  20
33.139000
  0
VERTEX
  8
C29
  10
233.892300
  20
33.234600
  0
VERTEX
  8
C29
  10
234.947100
  20
33.275100
  0
VERTEX
  8
C29
  10
236.017100
  20
33.272300
  0
VERTEX
  8
C29
  10
237.088800
  20
33.237800
  0
VERTEX
  8
C29
  10
238.148700
  20
33.183400
  0
VERTEX
  8
C29
  10
239.183200
  20
33.120700
  0
VERTEX
  8
C29
  10
240.179000
  20
33.061400
  0
VERTEX
  8
C29
  10
241.122400
  20
33.017300
  0
VERTEX
  8
C29
  10
242.000000
  20
33.000000
  0
VERTEX
  8
C29
  10
242.000000
  20
42.000000
  0
VERTEX
  8
C29
  10
202.000000
  20
42.000000
  0
SEQEND
  8
C250
  0
POLYLINE
  8
C250
  66
1
  10
242.000000
  20
42.000000
  0
VERTEX
  8
C250
  10
242.000000
  20
42.000000
  0
VERTEX
  8
C250
  10
242.000000
  20
33.000000
  0
VERTEX
  8
C250
  10
228.000000
  20
33.000000
  0
VERTEX
  8
C250
  10
228.000000
  20
32.000000
  0
VERTEX
  8
C250
  10
243.000000
  20
32.000000
  0
VERTEX
  8
C250
  10
242.000000
  20
42.000000
  0
SEQEND
  8
C253
  0
POLYLINE
  8
C253
  66
1
  10
243.000000
  20
42.000000
  0
VERTEX
  8
C253
  10
243.000000
  20
42.000000
  0
VERTEX
  8
C253
  10
243.000000
  20
32.000000
  0
VERTEX
  8
C253
  10
244.000000
  20
32.000000
  0
VERTEX
  8
C253
  10
243.000000
  20
42.000000
  0
SEQEND
  8
C254
  0
POLYLINE
  8
C254
  66
1
  10
249.000000
  20
42.000000
  0
VERTEX
  8
C254
  10
249.000000
  20
42.000000
  0
VERTEX
  8
C254
  10
249.000000
  20
1.000000
  0
VERTEX
  8
C254
  10
250.000000
  20
1.000000
  0
VERTEX
  8
C254
  10
250.005800
  20
1.846800
  0
VERTEX
  8
C254
  10
250.022600
  20
2.715800
  0
VERTEX
  8
C254
  10
250.049500
  20
3.605800
  0
VERTEX
  8
C254
  10
250.085500
  20
4.515500
  0
VERTEX
  8
C254
  10
250.129800
  20
5.443900
  0
VERTEX
  8
C254
  10
250.181300
  20
6.389600
  0
VERTEX
  8
C254
  10
250.239100
  20
7.351500
  0
VERTEX
  8
C254
  10
250.302400
  20
8.328400
  0
VERTEX
  8
C254
  10
250.370100
  20
9.319100
  0
VERTEX
  8
C254
  10
250.441400
  20
10.322500
  0
VERTEX
  8
C254
  10
250.515200
  20
11.337400
  0
VERTEX
  8
C254
  10
250.590800
  20
12.362500
  0
VERTEX
  8
C254
  10
250.667000
  20
13.396700
  0
VERTEX
  8
C254
  10
250.743100
  20
14.438800
  0
VERTEX
  8
C254
  10
250.818000
  20
15.487600
  0
VERTEX
  8
C254
  10
250.890900
  20
16.541900
  0
VERTEX
  8
C254
  10
250.960700
  20
17.600500
  0
VERTEX
  8
C254
  10
251.026700
  20
18.662300
  0
VERTEX
  8
C254
  10
251.087700
  20
19.726000
  0
VERTEX
  8
C254
  10
251.143000
  20
20.790500
  0
VERTEX
  8
C254
  10
251.191500
  20
21.854600
  0
VERTEX
  8
C254
  10
251.232300
  20
22.917100
  0
VERTEX
  8
C254
  10
251.264600
  20
23.976700
  0
VERTEX
  8
C254
  10
251.287300
  20
25.032400
  0
VERTEX
  8
C254
  10
251.299500
  20
26.082900
  0
VERTEX
  8
C254
  10
251.300300
  20
27.127100
  0
VERTEX
  8
C254
  10
251.288800
  20
28.163700
  0
VERTEX
  8
C254
  10
251.264000
  20
29.191600
  0
VERTEX
  8
C254
  10
251.225000
  20
30.209500
  0
VERTEX
  8
C254
  10
251.170900
  20
31.216400
  0
VERTEX
  8
C254
  10
251.100600
  20
32.211000
  0
VERTEX
  8
C254
  10
251.013400
  20
33.192000
  0
VERTEX
  8
C254
  10
250.908200
  20
34.158400
  0
VERTEX
  8
C254
  10
250.784100
  20
35.109000
  0
VERTEX
  8
C254
  10
250.640300
  20
36.042500
  0
VERTEX
  8
C254
  10
250.475700
  20
36.957700
  0
VERTEX
  8
C254
  10
250.289400
  20
37.853600
  0
VERTEX
  8
C254
  10
250.080400
  20
38.728800
  0
VERTEX
  8
C254
  10
249.848000
  20
39.582300
  0
VERTEX
  8
C254
  10
249.591000
  20
40.412700
  0
VERTEX
  8
C254
  10
249.308700
  20
41.219000
  0
VERTEX
  8
C254
  10
249.000000
  20
42.000000
  0
SEQEND
  8
C29
  0
POLYLINE
  8
C29
  66
1
  10
250.000000
  20
42.000000
  0
VERTEX
  8
C29
  10
250.000000
  20
42.000000
  0
VERTEX
  8
C29
  10
250.000000
  20
2.000000
  0
VERTEX
  8
C29
  10
261.000000
  20
2.000000
  0
VERTEX
  8
C29
  10
261.000000
  20
12.000000
  0
VERTEX
  8
C29
  10
276.906647
  20
11.396605
  0
VERTEX
  8
C29
  10
285.325623
  20
3.027778
  0
VERTEX
  8
C29
  10
298.000000
  20
2.000000
  0
VERTEX
  8
C29
  10
297.756800
  20
2.834400
  0
VERTEX
  8
C29
  10
297.427500
  20
3.679200
  0
VERTEX
  8
C29
  10
297.028500
  20
4.532700
  0
VERTEX
  8
C29
  10
296.575700
  20
5.393500
  0
VERTEX
  8
C29
  10
296.085600
  20
6.260100
  0
VERTEX
  8
C29
  10
295.574100
  20
7.131000
  0
VERTEX
  8
C29
  10
295.057600
  20
8.004500
  0
VERTEX
  8
C29
  10
294.552200
  20
8.879300
  0
VERTEX
  8
C29
  10
294.074100
  20
9.753900
  0
VERTEX
  8
C29
  10
293.639600
  20
10.626600
  0
VERTEX
  8
C29
  10
293.264700
  20
11.496000
  0
VERTEX
  8
C29
  10
292.965700
  20
12.360600
  0
VERTEX
  8
C29
  10
292.758700
  20
13.218900
  0
VERTEX
  8
C29
  10
292.660100
  20
14.069300
  0
VERTEX
  8
C29
  10
292.685900
  20
14.910400
  0
VERTEX
  8
C29
  10
292.802400
  20
15.748400
  0
VERTEX
  8
C29
  10
292.961400
  20
16.590000
  0
VERTEX
  8
C29
  10
293.156900
  20
17.435300
  0
VERTEX
  8
C29
  10
293.383200
  20
18.284100
  0
VERTEX
  8
C29
  10
293.634500
  20
19.136600
  0
VERTEX
  8
C29
  10
293.905000
  20
19.992500
  0
VERTEX
  8
C29
  10
294.188800
  20
20.852000
  0
VERTEX
  8
C29
  10
294.480300
  20
21.714900
  0
VERTEX
  8
C29
  10
294.773500
  20
22.581300
  0
VERTEX
  8
C29
  10
295.062600
  20
23.451200
  0
VERTEX
  8
C29
  10
295.342000
  20
24.324400
  0
VERTEX
  8
C29
  10
295.605700
  20
25.201000
  0
VERTEX
  8
C29
  10
295.848000
  20
26.080900
  0
VERTEX
  8
C29
  10
296.063000
  20
26.964200
  0
VERTEX
  8
C29
  10
296.245000
  20
27.850800
  0
VERTEX
  8
C29
  10
296.388200
  20
28.740600
  0
VERTEX
  8
C29
  10
296.486800
  20
29.633700
  0
VERTEX
  8
C29
  10
296.534900
  20
30.530000
  0
VERTEX
  8
C29
  10
296.526800
  20
31.429500
  0
VERTEX
  8
C29
  10
296.456600
  20
32.332100
  0
VERTEX
  8
C29
  10
296.318600
  20
33.237900
  0
VERTEX
  8
C29
  10
296.107000
  20
34.146800
  0
VERTEX
  8
C29
  10
295.815900
  20
35.058800
  0
VERTEX
  8
C29
  10
295.439500
  20
35.973800
  0
VERTEX
  8
C29
  10
294.972200
  20
36.891900
  0
VERTEX
  8
C29
  10
294.423500
  20
37.743300
  0
VERTEX
  8
C29
  10
293.794600
  20
38.494700
  0
VERTEX
  8
C29
  10
293.093700
  20
39.152200
  0
VERTEX
  8
C29
  10
292.328800
  20
39.722100
  0
VERTEX
  8
C29
  10
291.507900
  20
40.210600
  0
VERTEX
  8
C29
  10
290.639200
  20
40.624000
  0
VERTEX
  8
C29
  10
289.730700
  20
40.968600
  0
VERTEX
  8
C29
  10
288.790500
  20
41.250500
  0
VERTEX
  8
C29
  10
287.826700
  20
41.476100
  0
VERTEX
  8
C29
  10
286.847300
  20
41.651600
  0
VERTEX
  8
C29
  10
285.860500
  20
41.783200
  0
VERTEX
  8
C29
  10
284.874200
  20
41.877200
  0
VERTEX
  8
C29
  10
283.896700
  20
41.939900
  0
VERTEX
  8
C29
  10
282.935900
  20
41.977400
  0
VERTEX
  8
C29
  10
282.000000
  20
41.996100
  0
VERTEX
  8
C29
  10
281.000200
  20
42.007600
  0
VERTEX
  8
C29
  10
280.000500
  20
42.017700
  0
VERTEX
  8
C29
  10
279.000700
  20
42.026400
  0
VERTEX
  8
C29
  10
278.000800
  20
42.033800
  0
VERTEX
  8
C29
  10
277.000900
  20
42.040000
  0
VERTEX
  8
C29
  10
276.001000
  20
42.045100
  0
VERTEX
  8
C29
  10
275.001100
  20
42.049000
  0
VERTEX
  8
C29
  10
274.001100
  20
42.051900
  0
VERTEX
  8
C29
  10
273.001000
  20
42.053900
  0
VERTEX
  8
C29
  10
272.001000
  20
42.055000
  0
VERTEX
  8
C29
  10
271.000900
  20
42.055300
  0
VERTEX
  8
C29
  10
270.000800
  20
42.054900
  0
VERTEX
  8
C29
  10
269.000700
  20
42.053700
  0
VERTEX
  8
C29
  10
268.000600
  20
42.052000
  0
VERTEX
  8
C29
  10
267.000400
  20
42.049800
  0
VERTEX
  8
C29
  10
266.000300
  20
42.047100
  0
VERTEX
  8
C29
  10
265.000100
  20
42.044100
  0
VERTEX
  8
C29
  10
264.000000
  20
42.040700
  0
VERTEX
  8
C29
  10
262.999900
  20
42.037100
  0
VERTEX
  8
C29
  10
261.999700
  20
42.033300
  0
VERTEX
  8
C29
  10
260.999600
  20
42.029400
  0
VERTEX
  8
C29
  10
259.999500
  20
42.025400
  0
VERTEX
  8
C29
  10
258.999400
  20
42.021500
  0
VERTEX
  8
C29
  10
257.999400
  20
42.017800
  0
VERTEX
  8
C29
  10
256.999300
  20
42.014200
  0
VERTEX
  8
C29
  10
255.999300
  20
42.010800
  0
VERTEX
  8
C29
  10
254.999300
  20
42.007800
  0
VERTEX
  8
C29
  10
253.999400
  20
42.005200
  0
VERTEX
  8
C29
  10
252.999400
  20
42.003000
  0
VERTEX
  8
C29
  10
251.999600
  20
42.001300
  0
VERTEX
  8
C29
  10
250.999700
  20
42.000300
  0
VERTEX
  8
C29
  10
250.000000
  20
42.000000
  0
SEQEND
  8
C29
  0
POLYLINE
  8
C29
  66
1
  10
304.000000
  20
2.000000
  0
VERTEX
  8
C29
  10
304.000000
  20
2.000000
  0
VERTEX
  8
C29
  10
304.882300
  20
1.993100
  0
VERTEX
  8
C29
  10
305.774300
  20
1.973500
  0
VERTEX
  8
C29
  10
306.674800
  20
1.943000
  0
VERTEX
  8
C29
  10
307.582800
  20
1.903200
  0
VERTEX
  8
C29
  10
308.497300
  20
1.855700
  0
VERTEX
  8
C29
  10
309.417300
  20
1.802300
  0
VERTEX
  8
C29
  10
310.341700
  20
1.744700
  0
VERTEX
  8
C29
  10
311.269600
  20
1.684500
  0
VERTEX
  8
C29
  10
312.199900
  20
1.623300
  0
VERTEX
  8
C29
  10
313.131700
  20
1.563000
  0
VERTEX
  8
C29
  10
314.063800
  20
1.505100
  0
VERTEX
  8
C29
  10
314.995300
  20
1.451300
  0
VERTEX
  8
C29
  10
315.925100
  20
1.403400
  0
VERTEX
  8
C29
  10
316.852300
  20
1.362900
  0
VERTEX
  8
C29
  10
317.775700
  20
1.331700
  0
VERTEX
  8
C29
  10
318.694500
  20
1.311300
  0
VERTEX
  8
C29
  10
319.607600
  20
1.303400
  0
VERTEX
  8
C29
  10
320.513900
  20
1.309700
  0
VERTEX
  8
C29
  10
321.412400
  20
1.331900
  0
VERTEX
  8
C29
  10
322.302200
  20
1.371700
  0
VERTEX
  8
C29
  10
323.182100
  20
1.430800
  0
VERTEX
  8
C29
  10
324.051300
  20
1.510800
  0
VERTEX
  8
C29
  10
324.908600
  20
1.613400
  0
VERTEX
  8
C29
  10
325.753000
  20
1.740200
  0
VERTEX
  8
C29
  10
326.583600
  20
1.893100
  0
VERTEX
  8
C29
  10
327.399300
  20
2.073600
  0
VERTEX
  8
C29
  10
328.199100
  20
2.283400
  0
VERTEX
  8
C29
  10
328.981900
  20
2.524300
  0
VERTEX
  8
C29
  10
329.746800
  20
2.797800
  0
VERTEX
  8
C29
  10
330.492700
  20
3.105700
  0
VERTEX
  8
C29
  10
331.218600
  20
3.449600
  0
VERTEX
  8
C29
  10
331.923600
  20
3.831300
  0
VERTEX
  8
C29
  10
332.606500
  20
4.252400
  0
VERTEX
  8
C29
  10
333.266300
  20
4.714500
  0
VERTEX
  8
C29
  10
333.902100
  20
5.219500
  0
VERTEX
  8
C29
  10
334.512800
  20
5.768800
  0
VERTEX
  8
C29
  10
335.097400
  20
6.364300
  0
VERTEX
  8
C29
  10
335.654900
  20
7.007600
  0
VERTEX
  8
C29
  10
336.184300
  20
7.700400
  0
VERTEX
  8
C29
  10
336.684500
  20
8.444400
  0
VERTEX
  8
C29
  10
337.154500
  20
9.241100
  0
VERTEX
  8
C29
  10
337.593300
  20
10.092400
  0
VERTEX
  8
C29
  10
338.000000
  20
11.000000
  0
VERTEX
  8
C29
  10
321.000000
  20
11.000000
  0
VERTEX
  8
C29
  10
332.000000
  20
32.000000
  0
VERTEX
  8
C29
  10
334.000000
  20
32.000000
  0
VERTEX
  8
C29
  10
334.201400
  20
31.314700
  0
VERTEX
  8
C29
  10
334.424900
  20
30.582600
  0
VERTEX
  8
C29
  10
334.669800
  20
29.806900
  0
VERTEX
  8
C29
  10
334.935300
  20
28.991200
  0
VERTEX
  8
C29
  10
335.220900
  20
28.138900
  0
VERTEX
  8
C29
  10
335.526000
  20
27.253400
  0
VERTEX
  8
C29
  10
335.849900
  20
26.338300
  0
VERTEX
  8
C29
  10
336.192000
  20
25.396900
  0
VERTEX
  8
C29
  10
336.551600
  20
24.432700
  0
VERTEX
  8
C29
  10
336.928100
  20
23.449200
  0
VERTEX
  8
C29
  10
337.320900
  20
22.449900
  0
VERTEX
  8
C29
  10
337.729400
  20
21.438100
  0
VERTEX
  8
C29
  10
338.152800
  20
20.417300
  0
VERTEX
  8
C29
  10
338.590700
  20
19.391100
  0
VERTEX
  8
C29
  10
339.042200
  20
18.362800
  0
VERTEX
  8
C29
  10
339.506900
  20
17.335800
  0
VERTEX
  8
C29
  10
339.984100
  20
16.313800
  0
VERTEX
  8
C29
  10
340.473100
  20
15.300000
  0
VERTEX
  8
C29
  10
340.973300
  20
14.298000
  0
VERTEX
  8
C29
  10
341.484100
  20
13.311200
  0
VERTEX
  8
C29
  10
342.004800
  20
12.343100
  0
VERTEX
  8
C29
  10
342.534900
  20
11.397100
  0
VERTEX
  8
C29
  10
343.073600
  20
10.476600
  0
VERTEX
  8
C29
  10
343.620300
  20
9.585200
  0
VERTEX
  8
C29
  10
344.174400
  20
8.726300
  0
VERTEX
  8
C29
  10
344.735400
  20
7.903300
  0
VERTEX
  8
C29
  10
345.302400
  20
7.119700
  0
VERTEX
  8
C29
  10
345.875000
  20
6.379000
  0
VERTEX
  8
C29
  10
346.452400
  20
5.684500
  0
VERTEX
  8
C29
  10
347.034000
  20
5.039800
  0
VERTEX
  8
C29
  10
347.619300
  20
4.448300
  0
VERTEX
  8
C29
  10
348.207500
  20
3.913500
  0
VERTEX
  8
C29
  10
348.798100
  20
3.438800
  0
VERTEX
  8
C29
  10
349.390400
  20
3.027700
  0
VERTEX
  8
C29
  10
350.191700
  20
2.599900
  0
VERTEX
  8
C29
  10
351.066500
  20
2.277900
  0
VERTEX
  8
C29
  10
352.001800
  20
2.048600
  0
VERTEX
  8
C29
  10
352.984600
  20
1.898900
  0
VERTEX
  8
C29
  10
354.001800
  20
1.815900
  0
VERTEX
  8
C29
  10
355.040600
  20
1.786300
  0
VERTEX
  8
C29
  10
356.088100
  20
1.797100
  0
VERTEX
  8
C29
  10
357.131100
  20
1.835300
  0
VERTEX
  8
C29
  10
358.156700
  20
1.887700
  0
VERTEX
  8
C29
  10
359.152100
  20
1.941300
  0
VERTEX
  8
C29
  10
360.104100
  20
1.983100
  0
VERTEX
  8
C29
  10
361.000000
  20
2.000000
  0
VERTEX
  8
C29
  10
347.435944
  20
29.014660
  0
VERTEX
  8
C29
  10
340.609558
  20
40.972221
  0
VERTEX
  8
C29
  10
326.212952
  20
41.396603
  0
VERTEX
  8
C29
  10
319.424377
  20
32.000000
  0
VERTEX
  8
C29
  10
304.000000
  20
2.000000
  0
SEQEND
  8
C252
  0
POLYLINE
  8
C252
  66
1
  10
125.000000
  20
40.000000
  0
VERTEX
  8
C252
  10
125.000000
  20
40.000000
  0
VERTEX
  8
C252
  10
126.000000
  20
39.000000
  0
VERTEX
  8
C252
  10
125.000000
  20
40.000000
  0
SEQEND
  8
C252
  0
POLYLINE
  8
C252
  66
1
  10
323.000000
  20
40.000000
  0
VERTEX
  8
C252
  10
323.000000
  20
40.000000
  0
VERTEX
  8
C252
  10
324.000000
  20
39.000000
  0
VERTEX
  8
C252
  10
323.000000
  20
40.000000
  0
SEQEND
  8
C252
  0
POLYLINE
  8
C252
  66
1
  10
144.000000
  20
39.000000
  0
VERTEX
  8
C252
  10
144.000000
  20
39.000000
  0
VERTEX
  8
C252
  10
145.000000
  20
38.000000
  0
VERTEX
  8
C252
  10
144.000000
  20
39.000000
  0
SEQEND
  8
C251
  0
POLYLINE
  8
C251
  66
1
  10
124.000000
  20
38.000000
  0
VERTEX
  8
C251
  10
124.000000
  20
38.000000
  0
VERTEX
  8
C251
  10
125.000000
  20
37.000000
  0
VERTEX
  8
C251
  10
124.000000
  20
38.000000
  0
SEQEND
  8
C252
  0
POLYLINE
  8
C252
  66
1
  10
322.000000
  20
38.000000
  0
VERTEX
  8
C252
  10
322.000000
  20
38.000000
  0
VERTEX
  8
C252
  10
323.000000
  20
37.000000
  0
VERTEX
  8
C252
  10
322.000000
  20
38.000000
  0
SEQEND
  8
C252
  0
POLYLINE
  8
C252
  66
1
  10
47.000000
  20
37.000000
  0
VERTEX
  8
C252
  10
47.000000
  20
37.000000
  0
VERTEX
  8
C252
  10
48.000000
  20
36.000000
  0
VERTEX
  8
C252
  10
47.000000
  20
37.000000
  0
SEQEND
  8
C252
  0
POLYLINE
  8
C252
  66
1
  10
145.000000
  20
37.000000
  0
VERTEX
  8
C252
  10
145.000000
  20
37.000000
  0
VERTEX
  8
C252
  10
146.000000
  20
36.000000
  0
VERTEX
  8
C252
  10
145.000000
  20
37.000000
  0
SEQEND
  8
C251
  0
POLYLINE
  8
C251
  66
1
  10
321.000000
  20
36.000000
  0
VERTEX
  8
C251
  10
321.000000
  20
36.000000
  0
VERTEX
  8
C251
  10
322.000000
  20
35.000000
  0
VERTEX
  8
C251
  10
321.000000
  20
36.000000
  0
SEQEND
  8
C250
  0
POLYLINE
  8
C250
  66
1
  10
48.333332
  20
34.333332
  0
VERTEX
  8
C250
  10
48.333332
  20
34.333332
  0
VERTEX
  8
C250
  10
48.666668
  20
33.666668
  0
VERTEX
  8
C250
  10
48.333332
  20
34.333332
  0
SEQEND
  8
C37
  0
POLYLINE
  8
C37
  66
1
  10
296.000000
  20
35.000000
  0
VERTEX
  8
C37
  10
296.000000
  20
35.000000
  0
VERTEX
  8
C37
  10
296.000000
  20
22.000000
  0
VERTEX
  8
C37
  10
297.000000
  20
22.000000
  0
VERTEX
  8
C37
  10
296.000000
  20
35.000000
  0
SEQEND
  8
C251
  0
POLYLINE
  8
C251
  66
1
  10
320.000000
  20
34.000000
  0
VERTEX
  8
C251
  10
320.000000
  20
34.000000
  0
VERTEX
  8
C251
  10
321.000000
  20
33.000000
  0
VERTEX
  8
C251
  10
320.000000
  20
34.000000
  0
SEQEND
  8
C250
  0
POLYLINE
  8
C250
  66
1
  10
202.000000
  20
33.000000
  0
VERTEX
  8
C250
  10
202.000000
  20
33.000000
  0
VERTEX
  8
C250
  10
202.000000
  20
32.000000
  0
VERTEX
  8
C250
  10
217.000000
  20
32.000000
  0
VERTEX
  8
C250
  10
202.000000
  20
33.000000
  0
SEQEND
  8
C252
  0
POLYLINE
  8
C252
  66
1
  10
13.000000
  20
32.000000
  0
VERTEX
  8
C252
  10
13.000000
  20
32.000000
  0
VERTEX
  8
C252
  10
13.000000
  20
22.000000
  0
VERTEX
  8
C252
  10
14.000000
  20
22.000000
  0
VERTEX
  8
C252
  10
13.000000
  20
32.000000
  0
SEQEND
  8
C7
  0
POLYLINE
  8
C7
  66
1
  10
14.000000
  20
32.000000
  0
VERTEX
  8
C7
  10
14.000000
  20
32.000000
  0
VERTEX
  8
C7
  10
14.000000
  20
22.000000
  0
VERTEX
  8
C7
  10
14.349000
  20
21.995800
  0
VERTEX
  8
C7
  10
14.768300
  20
21.984100
  0
VERTEX
  8
C7
  10
15.253300
  20
21.966300
  0
VERTEX
  8
C7
  10
15.799200
  20
21.943700
  0
VERTEX
  8
C7
  10
16.401700
  20
21.917500
  0
VERTEX
  8
C7
  10
17.055900
  20
21.889100
  0
VERTEX
  8
C7
  10
17.757500
  20
21.859800
  0
VERTEX
  8
C7
  10
18.501700
  20
21.830800
  0
VERTEX
  8
C7
  10
19.284100
  20
21.803600
  0
VERTEX
  8
C7
  10
20.099900
  20
21.779400
  0
VERTEX
  8
C7
  10
20.944700
  20
21.759600
  0
VERTEX
  8
C7
  10
21.813700
  20
21.745300
  0
VERTEX
  8
C7
  10
22.702500
  20
21.738100
  0
VERTEX
  8
C7
  10
23.606500
  20
21.739100
  0
VERTEX
  8
C7
  10
24.521000
  20
21.749600
  0
VERTEX
  8
C7
  10
25.441500
  20
21.771100
  0
VERTEX
  8
C7
  10
26.363300
  20
21.804800
  0
VERTEX
  8
C7
  10
27.282000
  20
21.851900
  0
VERTEX
  8
C7
  10
28.192800
  20
21.913900
  0
VERTEX
  8
C7
  10
29.091200
  20
21.992100
  0
VERTEX
  8
C7
  10
29.972700
  20
22.087600
  0
VERTEX
  8
C7
  10
30.832600
  20
22.202000
  0
VERTEX
  8
C7
  10
31.666300
  20
22.336400
  0
VERTEX
  8
C7
  10
32.469300
  20
22.492100
  0
VERTEX
  8
C7
  10
33.236900
  20
22.670600
  0
VERTEX
  8
C7
  10
33.964600
  20
22.873100
  0
VERTEX
  8
C7
  10
34.647800
  20
23.100900
  0
VERTEX
  8
C7
  10
35.281900
  20
23.355300
  0
VERTEX
  8
C7
  10
35.862200
  20
23.637600
  0
VERTEX
  8
C7
  10
36.384300
  20
23.949200
  0
VERTEX
  8
C7
  10
36.843500
  20
24.291300
  0
VERTEX
  8
C7
  10
37.235200
  20
24.665300
  0
VERTEX
  8
C7
  10
37.554900
  20
25.072500
  0
VERTEX
  8
C7
  10
37.797900
  20
25.514200
  0
VERTEX
  8
C7
  10
37.959700
  20
25.991700
  0
VERTEX
  8
C7
  10
38.035700
  20
26.506300
  0
VERTEX
  8
C7
  10
38.021200
  20
27.059300
  0
VERTEX
  8
C7
  10
37.911800
  20
27.652100
  0
VERTEX
  8
C7
  10
37.702700
  20
28.285900
  0
VERTEX
  8
C7
  10
37.389500
  20
28.962100
  0
VERTEX
  8
C7
  10
36.967500
  20
29.682000
  0
VERTEX
  8
C7
  10
36.539400
  20
30.227400
  0
VERTEX
  8
C7
  10
36.007900
  20
30.706000
  0
VERTEX
  8
C7
  10
35.381000
  20
31.121700
  0
VERTEX
  8
C7
  10
34.666900
  20
31.478200
  0
VERTEX
  8
C7
  10
33.873900
  20
31.779200
  0
VERTEX
  8
C7
  10
33.010000
  20
32.028700
  0
VERTEX
  8
C7
  10
32.083400
  20
32.230300
  0
VERTEX
  8
C7
  10
31.102300
  20
32.387900
  0
VERTEX
  8
C7
  10
30.074900
  20
32.505300
  0
VERTEX
  8
C7
  10
29.009400
  20
32.586100
  0
VERTEX
  8
C7
  10
27.913800
  20
32.634300
  0
VERTEX
  8
C7
  10
26.796400
  20
32.653700
  0
VERTEX
  8
C7
  10
25.665400
  20
32.647900
  0
VERTEX
  8
C7
  10
24.528800
  20
32.620800
  0
VERTEX
  8
C7
  10
23.394900
  20
32.576200
  0
VERTEX
  8
C7
  10
22.271900
  20
32.517800
  0
VERTEX
  8
C7
  10
21.167800
  20
32.449600
  0
VERTEX
  8
C7
  10
20.091000
  20
32.375100
  0
VERTEX
  8
C7
  10
19.049500
  20
32.298300
  0
VERTEX
  8
C7
  10
18.051500
  20
32.222900
  0
VERTEX
  8
C7
  10
17.105100
  20
32.152800
  0
VERTEX
  8
C7
  10
16.218700
  20
32.091600
  0
VERTEX
  8
C7
  10
15.400200
  20
32.043200
  0
VERTEX
  8
C7
  10
14.657900
  20
32.011400
  0
VERTEX
  8
C7
  10
14.000000
  20
32.000000
  0
SEQEND
  8
C253
  0
POLYLINE
  8
C253
  66
1
  10
49.000000
  20
32.000000
  0
VERTEX
  8
C253
  10
49.000000
  20
32.000000
  0
VERTEX
  8
C253
  10
49.000000
  20
26.000000
  0
VERTEX
  8
C253
  10
50.000000
  20
26.000000
  0
VERTEX
  8
C253
  10
49.000000
  20
32.000000
  0
SEQEND
  8
C251
  0
POLYLINE
  8
C251
  66
1
  10
70.000000
  20
32.000000
  0
VERTEX
  8
C251
  10
70.000000
  20
32.000000
  0
VERTEX
  8
C251
  10
70.000000
  20
26.000000
  0
VERTEX
  8
C251
  10
71.000000
  20
26.000000
  0
VERTEX
  8
C251
  10
70.000000
  20
32.000000
  0
SEQEND
  8
C253
  0
POLYLINE
  8
C253
  66
1
  10
216.000000
  20
32.000000
  0
VERTEX
  8
C253
  10
216.000000
  20
32.000000
  0
VERTEX
  8
C253
  10
216.000000
  20
1.000000
  0
VERTEX
  8
C253
  10
217.000000
  20
1.000000
  0
VERTEX
  8
C253
  10
216.000000
  20
32.000000
  0
SEQEND
  8
C27
  0
POLYLINE
  8
C27
  66
1
  10
227.000000
  20
32.000000
  0
VERTEX
  8
C27
  10
227.000000
  20
32.000000
  0
VERTEX
  8
C27
  10
227.000000
  20
2.000000
  0
VERTEX
  8
C27
  10
228.000000
  20
2.000000
  0
VERTEX
  8
C27
  10
227.000000
  20
32.000000
  0
SEQEND
  8
C253
  0
POLYLINE
  8
C253
  66
1
  10
228.000000
  20
32.000000
  0
VERTEX
  8
C253
  10
228.000000
  20
32.000000
  0
VERTEX
  8
C253
  10
228.000000
  20
1.000000
  0
VERTEX
  8
C253
  10
229.000000
  20
1.000000
  0
VERTEX
  8
C253
  10
228.000000
  20
32.000000
  0
SEQEND
  8
C252
  0
POLYLINE
  8
C252
  66
1
  10
261.000000
  20
32.000000
  0
VERTEX
  8
C252
  10
261.000000
  20
32.000000
  0
VERTEX
  8
C252
  10
261.000000
  20
22.000000
  0
VERTEX
  8
C252
  10
262.000000
  20
22.000000
  0
VERTEX
  8
C252
  10
261.000000
  20
32.000000
  0
SEQEND
  8
C7
  0
POLYLINE
  8
C7
  66
1
  10
262.000000
  20
32.000000
  0
VERTEX
  8
C7
  10
262.000000
  20
32.000000
  0
VERTEX
  8
C7
  10
262.000000
  20
22.000000
  0
VERTEX
  8
C7
  10
262.920200
  20
21.990000
  0
VERTEX
  8
C7
  10
263.866800
  20
21.962300
  0
VERTEX
  8
C7
  10
264.836700
  20
21.920400
  0
VERTEX
  8
C7
  10
265.826800
  20
21.867700
  0
VERTEX
  8
C7
  10
266.834000
  20
21.807400
  0
VERTEX
  8
C7
  10
267.855000
  20
21.743100
  0
VERTEX
  8
C7
  10
268.886800
  20
21.678100
  0
VERTEX
  8
C7
  10
269.926200
  20
21.615800
  0
VERTEX
  8
C7
  10
270.970100
  20
21.559700
  0
VERTEX
  8
C7
  10
272.015300
  20
21.513000
  0
VERTEX
  8
C7
  10
273.058800
  20
21.479300
  0
VERTEX
  8
C7
  10
274.097300
  20
21.461900
  0
VERTEX
  8
C7
  10
275.127700
  20
21.464200
  0
VERTEX
  8
C7
  10
276.147000
  20
21.489600
  0
VERTEX
  8
C7
  10
277.151900
  20
21.541600
  0
VERTEX
  8
C7
  10
278.139400
  20
21.623400
  0
VERTEX
  8
C7
  10
279.106200
  20
21.738600
  0
VERTEX
  8
C7
  10
280.049300
  20
21.890400
  0
VERTEX
  8
C7
  10
280.965500
  20
22.082400
  0
VERTEX
  8
C7
  10
281.851800
  20
22.317900
  0
VERTEX
  8
C7
  10
282.635100
  20
22.653700
  0
VERTEX
  8
C7
  10
283.316100
  20
23.149100
  0
VERTEX
  8
C7
  10
283.889900
  20
23.777100
  0
VERTEX
  8
C7
  10
284.351300
  20
24.510800
  0
VERTEX
  8
C7
  10
284.695400
  20
25.323600
  0
VERTEX
  8
C7
  10
284.917200
  20
26.188600
  0
VERTEX
  8
C7
  10
285.011500
  20
27.078900
  0
VERTEX
  8
C7
  10
284.973400
  20
27.967800
  0
VERTEX
  8
C7
  10
284.797900
  20
28.828300
  0
VERTEX
  8
C7
  10
284.479900
  20
29.633800
  0
VERTEX
  8
C7
  10
284.014500
  20
30.357300
  0
VERTEX
  8
C7
  10
283.396600
  20
30.972200
  0
VERTEX
  8
C7
  10
282.784400
  20
31.385500
  0
VERTEX
  8
C7
  10
282.081700
  20
31.734800
  0
VERTEX
  8
C7
  10
281.296700
  20
32.024300
  0
VERTEX
  8
C7
  10
280.438000
  20
32.258400
  0
VERTEX
  8
C7
  10
279.513900
  20
32.441600
  0
VERTEX
  8
C7
  10
278.533000
  20
32.578100
  0
VERTEX
  8
C7
  10
277.503600
  20
32.672400
  0
VERTEX
  8
C7
  10
276.434400
  20
32.728900
  0
VERTEX
  8
C7
  10
275.333500
  20
32.751900
  0
VERTEX
  8
C7
  10
274.209700
  20
32.745800
  0
VERTEX
  8
C7
  10
273.071200
  20
32.715100
  0
VERTEX
  8
C7
  10
271.926500
  20
32.664000
  0
VERTEX
  8
C7
  10
270.784200
  20
32.597000
  0
VERTEX
  8
C7
  10
269.652500
  20
32.518400
  0
VERTEX
  8
C7
  10
268.540100
  20
32.432700
  0
VERTEX
  8
C7
  10
267.455300
  20
32.344200
  0
VERTEX
  8
C7
  10
266.406600
  20
32.257300
  0
VERTEX
  8
C7
  10
265.402400
  20
32.176300
  0
VERTEX
  8
C7
  10
264.451200
  20
32.105700
  0
VERTEX
  8
C7
  10
263.561400
  20
32.049900
  0
VERTEX
  8
C7
  10
262.741500
  20
32.013200
  0
VERTEX
  8
C7
  10
262.000000
  20
32.000000
  0
SEQEND
  8
C253
  0
POLYLINE
  8
C253
  66
1
  10
297.000000
  20
32.000000
  0
VERTEX
  8
C253
  10
297.000000
  20
32.000000
  0
VERTEX
  8
C253
  10
297.000000
  20
24.000000
  0
VERTEX
  8
C253
  10
298.000000
  20
24.000000
  0
VERTEX
  8
C253
  10
297.000000
  20
32.000000
  0
SEQEND
  8
C251
  0
POLYLINE
  8
C251
  66
1
  10
332.666656
  20
31.666666
  0
VERTEX
  8
C251
  10
332.666656
  20
31.666666
  0
VERTEX
  8
C251
  10
333.333344
  20
31.333334
  0
VERTEX
  8
C251
  10
332.666656
  20
31.666666
  0
SEQEND
  8
C252
  0
POLYLINE
  8
C252
  66
1
  10
120.000000
  20
31.000000
  0
VERTEX
  8
C252
  10
120.000000
  20
31.000000
  0
VERTEX
  8
C252
  10
121.000000
  20
30.000000
  0
VERTEX
  8
C252
  10
120.000000
  20
31.000000
  0
SEQEND
  8
C254
  0
POLYLINE
  8
C254
  66
1
  10
285.000000
  20
30.000000
  0
VERTEX
  8
C254
  10
285.000000
  20
30.000000
  0
VERTEX
  8
C254
  10
285.000000
  20
24.000000
  0
VERTEX
  8
C254
  10
286.000000
  20
24.000000
  0
VERTEX
  8
C254
  10
285.000000
  20
30.000000
  0
SEQEND
  8
C250
  0
POLYLINE
  8
C250
  66
1
  10
347.333344
  20
29.333334
  0
VERTEX
  8
C250
  10
347.333344
  20
29.333334
  0
VERTEX
  8
C250
  10
347.666656
  20
28.666666
  0
VERTEX
  8
C250
  10
347.333344
  20
29.333334
  0
SEQEND
  8
C252
  0
POLYLINE
  8
C252
  66
1
  10
119.000000
  20
29.000000
  0
VERTEX
  8
C252
  10
119.000000
  20
29.000000
  0
VERTEX
  8
C252
  10
120.000000
  20
28.000000
  0
VERTEX
  8
C252
  10
119.000000
  20
29.000000
  0
SEQEND
  8
C252
  0
POLYLINE
  8
C252
  66
1
  10
317.000000
  20
29.000000
  0
VERTEX
  8
C252
  10
317.000000
  20
29.000000
  0
VERTEX
  8
C252
  10
318.000000
  20
28.000000
  0
VERTEX
  8
C252
  10
317.000000
  20
29.000000
  0
SEQEND
  8
C251
  0
POLYLINE
  8
C251
  66
1
  10
137.000000
  20
28.000000
  0
VERTEX
  8
C251
  10
137.000000
  20
28.000000
  0
VERTEX
  8
C251
  10
138.000000
  20
27.000000
  0
VERTEX
  8
C251
  10
137.000000
  20
28.000000
  0
SEQEND
  8
C250
  0
POLYLINE
  8
C250
  66
1
  10
348.333344
  20
27.333334
  0
VERTEX
  8
C250
  10
348.333344
  20
27.333334
  0
VERTEX
  8
C250
  10
348.666656
  20
26.666666
  0
VERTEX
  8
C250
  10
348.333344
  20
27.333334
  0
SEQEND
  8
C251
  0
POLYLINE
  8
C251
  66
1
  10
118.000000
  20
27.000000
  0
VERTEX
  8
C251
  10
118.000000
  20
27.000000
  0
VERTEX
  8
C251
  10
119.000000
  20
26.000000
  0
VERTEX
  8
C251
  10
118.000000
  20
27.000000
  0
SEQEND
  8
C251
  0
POLYLINE
  8
C251
  66
1
  10
131.000000
  20
27.000000
  0
VERTEX
  8
C251
  10
131.000000
  20
27.000000
  0
VERTEX
  8
C251
  10
132.000000
  20
26.000000
  0
VERTEX
  8
C251
  10
131.000000
  20
27.000000
  0
SEQEND
  8
C252
  0
POLYLINE
  8
C252
  66
1
  10
316.000000
  20
27.000000
  0
VERTEX
  8
C252
  10
316.000000
  20
27.000000
  0
VERTEX
  8
C252
  10
317.000000
  20
26.000000
  0
VERTEX
  8
C252
  10
316.000000
  20
27.000000
  0
SEQEND
  8
C250
  0
POLYLINE
  8
C250
  66
1
  10
96.000000
  20
26.000000
  0
VERTEX
  8
C250
  10
96.000000
  20
26.000000
  0
VERTEX
  8
C250
  10
96.000000
  20
18.000000
  0
VERTEX
  8
C250
  10
97.000000
  20
18.000000
  0
VERTEX
  8
C250
  10
96.000000
  20
26.000000
  0
SEQEND
  8
C251
  0
POLYLINE
  8
C251
  66
1
  10
138.000000
  20
26.000000
  0
VERTEX
  8
C251
  10
138.000000
  20
26.000000
  0
VERTEX
  8
C251
  10
139.000000
  20
25.000000
  0
VERTEX
  8
C251
  10
138.000000
  20
26.000000
  0
SEQEND
  8
C252
  0
POLYLINE
  8
C252
  66
1
  10
151.000000
  20
26.000000
  0
VERTEX
  8
C252
  10
151.000000
  20
26.000000
  0
VERTEX
  8
C252
  10
152.000000
  20
25.000000
  0
VERTEX
  8
C252
  10
151.000000
  20
26.000000
  0
SEQEND
  8
C250
  0
POLYLINE
  8
C250
  66
1
  10
349.333344
  20
25.333334
  0
VERTEX
  8
C250
  10
349.333344
  20
25.333334
  0
VERTEX
  8
C250
  10
349.666656
  20
24.666666
  0
VERTEX
  8
C250
  10
349.333344
  20
25.333334
  0
SEQEND
  8
C251
  0
POLYLINE
  8
C251
  66
1
  10
130.000000
  20
25.000000
  0
VERTEX
  8
C251
  10
130.000000
  20
25.000000
  0
VERTEX
  8
C251
  10
131.000000
  20
24.000000
  0
VERTEX
  8
C251
  10
130.000000
  20
25.000000
  0
SEQEND
  8
C251
  0
POLYLINE
  8
C251
  66
1
  10
315.000000
  20
25.000000
  0
VERTEX
  8
C251
  10
315.000000
  20
25.000000
  0
VERTEX
  8
C251
  10
316.000000
  20
24.000000
  0
VERTEX
  8
C251
  10
315.000000
  20
25.000000
  0
SEQEND
  8
C251
  0
POLYLINE
  8
C251
  66
1
  10
328.000000
  20
25.000000
  0
VERTEX
  8
C251
  10
328.000000
  20
25.000000
  0
VERTEX
  8
C251
  10
329.000000
  20
24.000000
  0
VERTEX
  8
C251
  10
328.000000
  20
25.000000
  0
SEQEND
  8
C251
  0
POLYLINE
  8
C251
  66
1
  10
139.000000
  20
24.000000
  0
VERTEX
  8
C251
  10
139.000000
  20
24.000000
  0
VERTEX
  8
C251
  10
140.000000
  20
23.000000
  0
VERTEX
  8
C251
  10
139.000000
  20
24.000000
  0
SEQEND
  8
C252
  0
POLYLINE
  8
C252
  66
1
  10
152.000000
  20
24.000000
  0
VERTEX
  8
C252
  10
152.000000
  20
24.000000
  0
VERTEX
  8
C252
  10
153.000000
  20
23.000000
  0
VERTEX
  8
C252
  10
152.000000
  20
24.000000
  0
SEQEND
  8
C252
  0
POLYLINE
  8
C252
  66
1
  10
129.000000
  20
23.000000
  0
VERTEX
  8
C252
  10
129.000000
  20
23.000000
  0
VERTEX
  8
C252
  10
130.000000
  20
22.000000
  0
VERTEX
  8
C252
  10
129.000000
  20
23.000000
  0
SEQEND
  8
C251
  0
POLYLINE
  8
C251
  66
1
  10
314.000000
  20
23.000000
  0
VERTEX
  8
C251
  10
314.000000
  20
23.000000
  0
VERTEX
  8
C251
  10
315.000000
  20
22.000000
  0
VERTEX
  8
C251
  10
314.000000
  20
23.000000
  0
SEQEND
  8
C251
  0
POLYLINE
  8
C251
  66
1
  10
327.000000
  20
23.000000
  0
VERTEX
  8
C251
  10
327.000000
  20
23.000000
  0
VERTEX
  8
C251
  10
328.000000
  20
22.000000
  0
VERTEX
  8
C251
  10
327.000000
  20
23.000000
  0
SEQEND
  8
C252
  0
POLYLINE
  8
C252
  66
1
  10
128.000000
  20
21.000000
  0
VERTEX
  8
C252
  10
128.000000
  20
21.000000
  0
VERTEX
  8
C252
  10
129.000000
  20
20.000000
  0
VERTEX
  8
C252
  10
128.000000
  20
21.000000
  0
SEQEND
  8
C251
  0
POLYLINE
  8
C251
  66
1
  10
326.000000
  20
21.000000
  0
VERTEX
  8
C251
  10
326.000000
  20
21.000000
  0
VERTEX
  8
C251
  10
327.000000
  20
20.000000
  0
VERTEX
  8
C251
  10
326.000000
  20
21.000000
  0
SEQEND
  8
C252
  0
POLYLINE
  8
C252
  66
1
  10
47.000000
  20
20.000000
  0
VERTEX
  8
C252
  10
47.000000
  20
20.000000
  0
VERTEX
  8
C252
  10
48.000000
  20
19.000000
  0
VERTEX
  8
C252
  10
47.000000
  20
20.000000
  0
SEQEND
  8
C252
  0
POLYLINE
  8
C252
  66
1
  10
114.000000
  20
20.000000
  0
VERTEX
  8
C252
  10
114.000000
  20
20.000000
  0
VERTEX
  8
C252
  10
115.000000
  20
19.000000
  0
VERTEX
  8
C252
  10
114.000000
  20
20.000000
  0
SEQEND
  8
C252
  0
POLYLINE
  8
C252
  66
1
  10
295.000000
  20
20.000000
  0
VERTEX
  8
C252
  10
295.000000
  20
20.000000
  0
VERTEX
  8
C252
  10
296.000000
  20
19.000000
  0
VERTEX
  8
C252
  10
295.000000
  20
20.000000
  0
SEQEND
  8
C252
  0
POLYLINE
  8
C252
  66
1
  10
325.000000
  20
19.000000
  0
VERTEX
  8
C252
  10
325.000000
  20
19.000000
  0
VERTEX
  8
C252
  10
326.000000
  20
18.000000
  0
VERTEX
  8
C252
  10
325.000000
  20
19.000000
  0
SEQEND
  8
C251
  0
POLYLINE
  8
C251
  66
1
  10
71.000000
  20
18.000000
  0
VERTEX
  8
C251
  10
71.000000
  20
18.000000
  0
VERTEX
  8
C251
  10
71.000000
  20
17.000000
  0
VERTEX
  8
C251
  10
97.000000
  20
17.000000
  0
VERTEX
  8
C251
  10
71.000000
  20
18.000000
  0
SEQEND
  8
C252
  0
POLYLINE
  8
C252
  66
1
  10
113.000000
  20
18.000000
  0
VERTEX
  8
C252
  10
113.000000
  20
18.000000
  0
VERTEX
  8
C252
  10
114.000000
  20
17.000000
  0
VERTEX
  8
C252
  10
113.000000
  20
18.000000
  0
SEQEND
  8
C251
  0
POLYLINE
  8
C251
  66
1
  10
293.000000
  20
18.000000
  0
VERTEX
  8
C251
  10
293.000000
  20
18.000000
  0
VERTEX
  8
C251
  10
294.000000
  20
17.000000
  0
VERTEX
  8
C251
  10
293.000000
  20
18.000000
  0
SEQEND
  8
C252
  0
POLYLINE
  8
C252
  66
1
  10
311.000000
  20
18.000000
  0
VERTEX
  8
C252
  10
311.000000
  20
18.000000
  0
VERTEX
  8
C252
  10
312.000000
  20
17.000000
  0
VERTEX
  8
C252
  10
311.000000
  20
18.000000
  0
SEQEND
  8
C251
  0
POLYLINE
  8
C251
  66
1
  10
70.000000
  20
17.000000
  0
VERTEX
  8
C251
  10
70.000000
  20
17.000000
  0
VERTEX
  8
C251
  10
70.000000
  20
11.000000
  0
VERTEX
  8
C251
  10
71.000000
  20
11.000000
  0
VERTEX
  8
C251
  10
70.000000
  20
17.000000
  0
SEQEND
  8
C252
  0
POLYLINE
  8
C252
  66
1
  10
324.000000
  20
17.000000
  0
VERTEX
  8
C252
  10
324.000000
  20
17.000000
  0
VERTEX
  8
C252
  10
325.000000
  20
16.000000
  0
VERTEX
  8
C252
  10
324.000000
  20
17.000000
  0
SEQEND
  8
C251
  0
POLYLINE
  8
C251
  66
1
  10
112.000000
  20
16.000000
  0
VERTEX
  8
C251
  10
112.000000
  20
16.000000
  0
VERTEX
  8
C251
  10
113.000000
  20
15.000000
  0
VERTEX
  8
C251
  10
112.000000
  20
16.000000
  0
SEQEND
  8
C252
  0
POLYLINE
  8
C252
  66
1
  10
310.000000
  20
16.000000
  0
VERTEX
  8
C252
  10
310.000000
  20
16.000000
  0
VERTEX
  8
C252
  10
311.000000
  20
15.000000
  0
VERTEX
  8
C252
  10
310.000000
  20
16.000000
  0
SEQEND
  8
C250
  0
POLYLINE
  8
C250
  66
1
  10
355.333344
  20
14.333333
  0
VERTEX
  8
C250
  10
355.333344
  20
14.333333
  0
VERTEX
  8
C250
  10
355.666656
  20
13.666667
  0
VERTEX
  8
C250
  10
355.333344
  20
14.333333
  0
SEQEND
  8
C251
  0
POLYLINE
  8
C251
  66
1
  10
309.000000
  20
14.000000
  0
VERTEX
  8
C251
  10
309.000000
  20
14.000000
  0
VERTEX
  8
C251
  10
310.000000
  20
13.000000
  0
VERTEX
  8
C251
  10
309.000000
  20
14.000000
  0
SEQEND
  8
C252
  0
POLYLINE
  8
C252
  66
1
  10
44.000000
  20
13.000000
  0
VERTEX
  8
C252
  10
44.000000
  20
13.000000
  0
VERTEX
  8
C252
  10
45.000000
  20
12.000000
  0
VERTEX
  8
C252
  10
44.000000
  20
13.000000
  0
SEQEND
  8
C254
  0
POLYLINE
  8
C254
  66
1
  10
124.000000
  20
13.000000
  0
VERTEX
  8
C254
  10
124.000000
  20
13.000000
  0
VERTEX
  8
C254
  10
140.000000
  20
11.000000
  0
VERTEX
  8
C254
  10
140.000000
  20
12.000000
  0
VERTEX
  8
C254
  10
124.000000
  20
13.000000
  0
SEQEND
  8
C252
  0
POLYLINE
  8
C252
  66
1
  10
292.000000
  20
13.000000
  0
VERTEX
  8
C252
  10
292.000000
  20
13.000000
  0
VERTEX
  8
C252
  10
293.000000
  20
12.000000
  0
VERTEX
  8
C252
  10
292.000000
  20
13.000000
  0
SEQEND
  8
C250
  0
POLYLINE
  8
C250
  66
1
  10
321.333344
  20
12.333333
  0
VERTEX
  8
C250
  10
321.333344
  20
12.333333
  0
VERTEX
  8
C250
  10
321.666656
  20
11.666667
  0
VERTEX
  8
C250
  10
321.333344
  20
12.333333
  0
SEQEND
  8
C254
  0
POLYLINE
  8
C254
  66
1
  10
322.000000
  20
13.000000
  0
VERTEX
  8
C254
  10
322.000000
  20
13.000000
  0
VERTEX
  8
C254
  10
338.000000
  20
11.000000
  0
VERTEX
  8
C254
  10
338.000000
  20
12.000000
  0
VERTEX
  8
C254
  10
322.000000
  20
13.000000
  0
SEQEND
  8
C253
  0
POLYLINE
  8
C253
  66
1
  10
343.333344
  20
12.333333
  0
VERTEX
  8
C253
  10
343.333344
  20
12.333333
  0
VERTEX
  8
C253
  10
343.666656
  20
11.666667
  0
VERTEX
  8
C253
  10
343.333344
  20
12.333333
  0
SEQEND
  8
C250
  0
POLYLINE
  8
C250
  66
1
  10
356.333344
  20
12.333333
  0
VERTEX
  8
C250
  10
356.333344
  20
12.333333
  0
VERTEX
  8
C250
  10
356.666656
  20
11.666667
  0
VERTEX
  8
C250
  10
356.333344
  20
12.333333
  0
SEQEND
  8
C252
  0
POLYLINE
  8
C252
  66
1
  10
13.000000
  20
12.000000
  0
VERTEX
  8
C252
  10
13.000000
  20
12.000000
  0
VERTEX
  8
C252
  10
13.000000
  20
1.000000
  0
VERTEX
  8
C252
  10
14.000000
  20
1.000000
  0
VERTEX
  8
C252
  10
13.000000
  20
12.000000
  0
SEQEND
  8
C253
  0
POLYLINE
  8
C253
  66
1
  10
14.000000
  20
12.000000
  0
VERTEX
  8
C253
  10
14.000000
  20
12.000000
  0
VERTEX
  8
C253
  10
14.000000
  20
11.000000
  0
VERTEX
  8
C253
  10
31.000000
  20
11.000000
  0
VERTEX
  8
C253
  10
14.000000
  20
12.000000
  0
SEQEND
  8
C254
  0
POLYLINE
  8
C254
  66
1
  10
71.000000
  20
12.000000
  0
VERTEX
  8
C254
  10
71.000000
  20
12.000000
  0
VERTEX
  8
C254
  10
71.000000
  20
11.000000
  0
VERTEX
  8
C254
  10
100.000000
  20
11.000000
  0
VERTEX
  8
C254
  10
71.000000
  20
12.000000
  0
SEQEND
  8
C254
  0
POLYLINE
  8
C254
  66
1
  10
181.000000
  20
12.000000
  0
VERTEX
  8
C254
  10
181.000000
  20
12.000000
  0
VERTEX
  8
C254
  10
181.000000
  20
11.000000
  0
VERTEX
  8
C254
  10
206.000000
  20
11.000000
  0
VERTEX
  8
C254
  10
206.000000
  20
1.000000
  0
VERTEX
  8
C254
  10
206.361500
  20
1.925700
  0
VERTEX
  8
C254
  10
206.649600
  20
2.802100
  0
VERTEX
  8
C254
  10
206.866700
  20
3.630500
  0
VERTEX
  8
C254
  10
207.015000
  20
4.412200
  0
VERTEX
  8
C254
  10
207.097100
  20
5.148400
  0
VERTEX
  8
C254
  10
207.115000
  20
5.840400
  0
VERTEX
  8
C254
  10
207.071300
  20
6.489500
  0
VERTEX
  8
C254
  10
206.968200
  20
7.097100
  0
VERTEX
  8
C254
  10
206.808100
  20
7.664300
  0
VERTEX
  8
C254
  10
206.593400
  20
8.192400
  0
VERTEX
  8
C254
  10
206.326200
  20
8.682800
  0
VERTEX
  8
C254
  10
206.009100
  20
9.136700
  0
VERTEX
  8
C254
  10
205.644300
  20
9.555400
  0
VERTEX
  8
C254
  10
205.234200
  20
9.940200
  0
VERTEX
  8
C254
  10
204.781000
  20
10.292300
  0
VERTEX
  8
C254
  10
204.287200
  20
10.613100
  0
VERTEX
  8
C254
  10
203.755100
  20
10.903900
  0
VERTEX
  8
C254
  10
203.186900
  20
11.165800
  0
VERTEX
  8
C254
  10
202.585200
  20
11.400300
  0
VERTEX
  8
C254
  10
201.952100
  20
11.608500
  0
VERTEX
  8
C254
  10
201.290000
  20
11.791800
  0
VERTEX
  8
C254
  10
200.601300
  20
11.951400
  0
VERTEX
  8
C254
  10
199.888300
  20
12.088700
  0
VERTEX
  8
C254
  10
199.153300
  20
12.204800
  0
VERTEX
  8
C254
  10
198.398700
  20
12.301200
  0
VERTEX
  8
C254
  10
197.626800
  20
12.379000
  0
VERTEX
  8
C254
  10
196.840000
  20
12.439600
  0
VERTEX
  8
C254
  10
196.040500
  20
12.484200
  0
VERTEX
  8
C254
  10
195.230800
  20
12.514200
  0
VERTEX
  8
C254
  10
194.413100
  20
12.530700
  0
VERTEX
  8
C254
  10
193.589700
  20
12.535200
  0
VERTEX
  8
C254
  10
192.763200
  20
12.528800
  0
VERTEX
  8
C254
  10
191.935700
  20
12.512800
  0
VERTEX
  8
C254
  10
191.109500
  20
12.488600
  0
VERTEX
  8
C254
  10
190.287200
  20
12.457400
  0
VERTEX
  8
C254
  10
189.470900
  20
12.420500
  0
VERTEX
  8
C254
  10
188.663000
  20
12.379200
  0
VERTEX
  8
C254
  10
187.865900
  20
12.334800
  0
VERTEX
  8
C254
  10
187.081800
  20
12.288500
  0
VERTEX
  8
C254
  10
186.313200
  20
12.241600
  0
VERTEX
  8
C254
  10
185.562300
  20
12.195400
  0
VERTEX
  8
C254
  10
184.831600
  20
12.151300
  0
VERTEX
  8
C254
  10
184.123300
  20
12.110400
  0
VERTEX
  8
C254
  10
183.439700
  20
12.074000
  0
VERTEX
  8
C254
  10
182.783300
  20
12.043500
  0
VERTEX
  8
C254
  10
182.156300
  20
12.020200
  0
VERTEX
  8
C254
  10
181.561000
  20
12.005200
  0
VERTEX
  8
C254
  10
181.000000
  20
12.000000
  0
SEQEND
  8
C252
  0
POLYLINE
  8
C252
  66
1
  10
261.000000
  20
12.000000
  0
VERTEX
  8
C252
  10
261.000000
  20
12.000000
  0
VERTEX
  8
C252
  10
261.000000
  20
1.000000
  0
VERTEX
  8
C252
  10
262.000000
  20
1.000000
  0
VERTEX
  8
C252
  10
261.000000
  20
12.000000
  0
SEQEND
  8
C253
  0
POLYLINE
  8
C253
  66
1
  10
262.000000
  20
12.000000
  0
VERTEX
  8
C253
  10
262.000000
  20
12.000000
  0
VERTEX
  8
C253
  10
262.000000
  20
11.000000
  0
VERTEX
  8
C253
  10
279.000000
  20
11.000000
  0
VERTEX
  8
C253
  10
262.000000
  20
12.000000
  0
SEQEND
  8
C251
  0
POLYLINE
  8
C251
  66
1
  10
308.000000
  20
12.000000
  0
VERTEX
  8
C251
  10
308.000000
  20
12.000000
  0
VERTEX
  8
C251
  10
309.000000
  20
11.000000
  0
VERTEX
  8
C251
  10
308.000000
  20
12.000000
  0
SEQEND
  8
C254
  0
POLYLINE
  8
C254
  66
1
  10
100.000000
  20
11.000000
  0
VERTEX
  8
C254
  10
100.000000
  20
11.000000
  0
VERTEX
  8
C254
  10
100.000000
  20
1.000000
  0
VERTEX
  8
C254
  10
101.000000
  20
1.000000
  0
VERTEX
  8
C254
  10
100.000000
  20
11.000000
  0
SEQEND
  8
C252
  0
POLYLINE
  8
C252
  66
1
  10
159.000000
  20
11.000000
  0
VERTEX
  8
C252
  10
159.000000
  20
11.000000
  0
VERTEX
  8
C252
  10
160.000000
  20
10.000000
  0
VERTEX
  8
C252
  10
159.000000
  20
11.000000
  0
SEQEND
  8
C37
  0
POLYLINE
  8
C37
  66
1
  10
205.000000
  20
11.000000
  0
VERTEX
  8
C37
  10
205.000000
  20
11.000000
  0
VERTEX
  8
C37
  10
205.000000
  20
2.000000
  0
VERTEX
  8
C37
  10
206.000000
  20
2.000000
  0
VERTEX
  8
C37
  10
205.000000
  20
11.000000
  0
SEQEND
  8
C253
  0
POLYLINE
  8
C253
  66
1
  10
344.333344
  20
10.333333
  0
VERTEX
  8
C253
  10
344.333344
  20
10.333333
  0
VERTEX
  8
C253
  10
344.666656
  20
9.666667
  0
VERTEX
  8
C253
  10
344.333344
  20
10.333333
  0
SEQEND
  8
C252
  0
POLYLINE
  8
C252
  66
1
  10
46.000000
  20
10.000000
  0
VERTEX
  8
C252
  10
46.000000
  20
10.000000
  0
VERTEX
  8
C252
  10
47.000000
  20
9.000000
  0
VERTEX
  8
C252
  10
46.000000
  20
10.000000
  0
SEQEND
  8
C252
  0
POLYLINE
  8
C252
  66
1
  10
139.000000
  20
10.000000
  0
VERTEX
  8
C252
  10
139.000000
  20
10.000000
  0
VERTEX
  8
C252
  10
140.000000
  20
9.000000
  0
VERTEX
  8
C252
  10
139.000000
  20
10.000000
  0
SEQEND
  8
C252
  0
POLYLINE
  8
C252
  66
1
  10
294.000000
  20
10.000000
  0
VERTEX
  8
C252
  10
294.000000
  20
10.000000
  0
VERTEX
  8
C252
  10
295.000000
  20
9.000000
  0
VERTEX
  8
C252
  10
294.000000
  20
10.000000
  0
SEQEND
  8
C251
  0
POLYLINE
  8
C251
  66
1
  10
337.000000
  20
10.000000
  0
VERTEX
  8
C251
  10
337.000000
  20
10.000000
  0
VERTEX
  8
C251
  10
338.000000
  20
9.000000
  0
VERTEX
  8
C251
  10
337.000000
  20
10.000000
  0
SEQEND
  8
C252
  0
POLYLINE
  8
C252
  66
1
  10
108.000000
  20
9.000000
  0
VERTEX
  8
C252
  10
108.000000
  20
9.000000
  0
VERTEX
  8
C252
  10
109.000000
  20
8.000000
  0
VERTEX
  8
C252
  10
108.000000
  20
9.000000
  0
SEQEND
  8
C252
  0
POLYLINE
  8
C252
  66
1
  10
160.000000
  20
9.000000
  0
VERTEX
  8
C252
  10
160.000000
  20
9.000000
  0
VERTEX
  8
C252
  10
161.000000
  20
8.000000
  0
VERTEX
  8
C252
  10
160.000000
  20
9.000000
  0
SEQEND
  8
C252
  0
POLYLINE
  8
C252
  66
1
  10
138.000000
  20
8.000000
  0
VERTEX
  8
C252
  10
138.000000
  20
8.000000
  0
VERTEX
  8
C252
  10
139.000000
  20
7.000000
  0
VERTEX
  8
C252
  10
138.000000
  20
8.000000
  0
SEQEND
  8
C252
  0
POLYLINE
  8
C252
  66
1
  10
336.000000
  20
8.000000
  0
VERTEX
  8
C252
  10
336.000000
  20
8.000000
  0
VERTEX
  8
C252
  10
337.000000
  20
7.000000
  0
VERTEX
  8
C252
  10
336.000000
  20
8.000000
  0
SEQEND
  8
C251
  0
POLYLINE
  8
C251
  66
1
  10
107.000000
  20
7.000000
  0
VERTEX
  8
C251
  10
107.000000
  20
7.000000
  0
VERTEX
  8
C251
  10
108.000000
  20
6.000000
  0
VERTEX
  8
C251
  10
107.000000
  20
7.000000
  0
SEQEND
  8
C251
  0
POLYLINE
  8
C251
  66
1
  10
148.000000
  20
7.000000
  0
VERTEX
  8
C251
  10
148.000000
  20
7.000000
  0
VERTEX
  8
C251
  10
149.000000
  20
6.000000
  0
VERTEX
  8
C251
  10
148.000000
  20
7.000000
  0
SEQEND
  8
C252
  0
POLYLINE
  8
C252
  66
1
  10
296.000000
  20
7.000000
  0
VERTEX
  8
C252
  10
296.000000
  20
7.000000
  0
VERTEX
  8
C252
  10
297.000000
  20
6.000000
  0
VERTEX
  8
C252
  10
296.000000
  20
7.000000
  0
SEQEND
  8
C252
  0
POLYLINE
  8
C252
  66
1
  10
305.000000
  20
7.000000
  0
VERTEX
  8
C252
  10
305.000000
  20
7.000000
  0
VERTEX
  8
C252
  10
306.000000
  20
6.000000
  0
VERTEX
  8
C252
  10
305.000000
  20
7.000000
  0
SEQEND
  8
C252
  0
POLYLINE
  8
C252
  66
1
  10
335.000000
  20
6.000000
  0
VERTEX
  8
C252
  10
335.000000
  20
6.000000
  0
VERTEX
  8
C252
  10
336.000000
  20
5.000000
  0
VERTEX
  8
C252
  10
335.000000
  20
6.000000
  0
SEQEND
  8
C251
  0
POLYLINE
  8
C251
  66
1
  10
106.000000
  20
5.000000
  0
VERTEX
  8
C251
  10
106.000000
  20
5.000000
  0
VERTEX
  8
C251
  10
107.000000
  20
4.000000
  0
VERTEX
  8
C251
  10
106.000000
  20
5.000000
  0
SEQEND
  8
C251
  0
POLYLINE
  8
C251
  66
1
  10
149.000000
  20
5.000000
  0
VERTEX
  8
C251
  10
149.000000
  20
5.000000
  0
VERTEX
  8
C251
  10
150.000000
  20
4.000000
  0
VERTEX
  8
C251
  10
149.000000
  20
5.000000
  0
SEQEND
  8
C252
  0
POLYLINE
  8
C252
  66
1
  10
304.000000
  20
5.000000
  0
VERTEX
  8
C252
  10
304.000000
  20
5.000000
  0
VERTEX
  8
C252
  10
305.000000
  20
4.000000
  0
VERTEX
  8
C252
  10
304.000000
  20
5.000000
  0
SEQEND
  8
C252
  0
POLYLINE
  8
C252
  66
1
  10
334.000000
  20
4.000000
  0
VERTEX
  8
C252
  10
334.000000
  20
4.000000
  0
VERTEX
  8
C252
  10
335.000000
  20
3.000000
  0
VERTEX
  8
C252
  10
334.000000
  20
4.000000
  0
SEQEND
  8
C250
  0
POLYLINE
  8
C250
  66
1
  10
105.000000
  20
3.000000
  0
VERTEX
  8
C250
  10
105.000000
  20
3.000000
  0
VERTEX
  8
C250
  10
105.464600
  20
2.539000
  0
VERTEX
  8
C250
  10
106.007600
  20
2.124800
  0
VERTEX
  8
C250
  10
106.624200
  20
1.755300
  0
VERTEX
  8
C250
  10
107.309600
  20
1.428400
  0
VERTEX
  8
C250
  10
108.059000
  20
1.142000
  0
VERTEX
  8
C250
  10
108.867600
  20
0.893900
  0
VERTEX
  8
C250
  10
109.730600
  20
0.682100
  0
VERTEX
  8
C250
  10
110.643300
  20
0.504500
  0
VERTEX
  8
C250
  10
111.600800
  20
0.358900
  0
VERTEX
  8
C250
  10
112.598400
  20
0.243200
  0
VERTEX
  8
C250
  10
113.631300
  20
0.155400
  0
VERTEX
  8
C250
  10
114.694700
  20
0.093200
  0
VERTEX
  8
C250
  10
115.783900
  20
0.054700
  0
VERTEX
  8
C250
  10
116.893900
  20
0.037600
  0
VERTEX
  8
C250
  10
118.020100
  20
0.040000
  0
VERTEX
  8
C250
  10
119.157700
  20
0.059600
  0
VERTEX
  8
C250
  10
120.301900
  20
0.094300
  0
VERTEX
  8
C250
  10
121.447800
  20
0.142100
  0
VERTEX
  8
C250
  10
122.590800
  20
0.200800
  0
VERTEX
  8
C250
  10
123.725900
  20
0.268400
  0
VERTEX
  8
C250
  10
124.848600
  20
0.342700
  0
VERTEX
  8
C250
  10
125.953800
  20
0.421600
  0
VERTEX
  8
C250
  10
127.037000
  20
0.503000
  0
VERTEX
  8
C250
  10
128.093200
  20
0.584800
  0
VERTEX
  8
C250
  10
129.117800
  20
0.664900
  0
VERTEX
  8
C250
  10
130.105800
  20
0.741100
  0
VERTEX
  8
C250
  10
131.052600
  20
0.811400
  0
VERTEX
  8
C250
  10
131.953300
  20
0.873700
  0
VERTEX
  8
C250
  10
132.803200
  20
0.925700
  0
VERTEX
  8
C250
  10
133.597400
  20
0.965600
  0
VERTEX
  8
C250
  10
134.331300
  20
0.991000
  0
VERTEX
  8
C250
  10
135.000000
  20
1.000000
  0
VERTEX
  8
C250
  10
135.000000
  20
2.000000
  0
VERTEX
  8
C250
  10
105.000000
  20
3.000000
  0
SEQEND
  8
C252
  0
POLYLINE
  8
C252
  66
1
  10
150.000000
  20
3.000000
  0
VERTEX
  8
C252
  10
150.000000
  20
3.000000
  0
VERTEX
  8
C252
  10
151.000000
  20
2.000000
  0
VERTEX
  8
C252
  10
150.000000
  20
3.000000
  0
SEQEND
  8
C250
  0
POLYLINE
  8
C250
  66
1
  10
163.000000
  20
3.000000
  0
VERTEX
  8
C250
  10
163.000000
  20
3.000000
  0
VERTEX
  8
C250
  10
151.000000
  20
2.000000
  0
VERTEX
  8
C250
  10
151.000000
  20
1.000000
  0
VERTEX
  8
C250
  10
163.000000
  20
3.000000
  0
SEQEND
  8
C250
  0
POLYLINE
  8
C250
  66
1
  10
286.000000
  20
2.000000
  0
VERTEX
  8
C250
  10
286.000000
  20
2.000000
  0
VERTEX
  8
C250
  10
286.000000
  20
1.000000
  0
VERTEX
  8
C250
  10
300.000000
  20
1.000000
  0
VERTEX
  8
C250
  10
286.000000
  20
2.000000
  0
SEQEND
  8
C250
  0
POLYLINE
  8
C250
  66
1
  10
303.000000
  20
3.000000
  0
VERTEX
  8
C250
  10
303.000000
  20
3.000000
  0
VERTEX
  8
C250
  10
303.464600
  20
2.539000
  0
VERTEX
  8
C250
  10
304.007600
  20
2.124800
  0
VERTEX
  8
C250
  10
304.624200
  20
1.755300
  0
VERTEX
  8
C250
  10
305.309600
  20
1.428400
  0
VERTEX
  8
C250
  10
306.059000
  20
1.142000
  0
VERTEX
  8
C250
  10
306.867600
  20
0.893900
  0
VERTEX
  8
C250
  10
307.730600
  20
0.682100
  0
VERTEX
  8
C250
  10
308.643300
  20
0.504500
  0
VERTEX
  8
C250
  10
309.600800
  20
0.358900
  0
VERTEX
  8
C250
  10
310.598400
  20
0.243200
  0
VERTEX
  8
C250
  10
311.631300
  20
0.155400
  0
VERTEX
  8
C250
  10
312.694700
  20
0.093200
  0
VERTEX
  8
C250
  10
313.783900
  20
0.054700
  0
VERTEX
  8
C250
  10
314.893900
  20
0.037600
  0
VERTEX
  8
C250
  10
316.020100
  20
0.040000
  0
VERTEX
  8
C250
  10
317.157700
  20
0.059600
  0
VERTEX
  8
C250
  10
318.301900
  20
0.094300
  0
VERTEX
  8
C250
  10
319.447800
  20
0.142100
  0
VERTEX
  8
C250
  10
320.590800
  20
0.200800
  0
VERTEX
  8
C250
  10
321.726000
  20
0.268400
  0
VERTEX
  8
C250
  10
322.848600
  20
0.342700
  0
VERTEX
  8
C250
  10
323.953900
  20
0.421600
  0
VERTEX
  8
C250
  10
325.037000
  20
0.503000
  0
VERTEX
  8
C250
  10
326.093200
  20
0.584800
  0
VERTEX
  8
C250
  10
327.117800
  20
0.664900
  0
VERTEX
  8
C250
  10
328.105800
  20
0.741100
  0
VERTEX
  8
C250
  10
329.052600
  20
0.811400
  0
VERTEX
  8
C250
  10
329.953300
  20
0.873700
  0
VERTEX
  8
C250
  10
330.803200
  20
0.925700
  0
VERTEX
  8
C250
  10
331.597500
  20
0.965600
  0
VERTEX
  8
C250
  10
332.331300
  20
0.991000
  0
VERTEX
  8
C250
  10
333.000000
  20
1.000000
  0
VERTEX
  8
C250
  10
333.000000
  20
2.000000
  0
VERTEX
  8
C250
  10
303.000000
  20
3.000000
  0
SEQEND
  8
C250
  0
POLYLINE
  8
C250
  66
1
  10
361.000000
  20
3.000000
  0
VERTEX
  8
C250
  10
361.000000
  20
3.000000
  0
VERTEX
  8
C250
  10
349.000000
  20
2.000000
  0
VERTEX
  8
C250
  10
349.000000
  20
1.000000
  0
VERTEX
  8
C250
  10
361.000000
  20
3.000000
  0
SEQEND
  8
C250
  0
POLYLINE
  8
C250
  66
1
  10
2.000000
  20
2.000000
  0
VERTEX
  8
C250
  10
2.000000
  20
2.000000
  0
VERTEX
  8
C250
  10
2.000000
  20
1.000000
  0
VERTEX
  8
C250
  10
13.000000
  20
1.000000
  0
VERTEX
  8
C250
  10
2.000000
  20
2.000000
  0
SEQEND
  8
C250
  0
POLYLINE
  8
C250
  66
1
  10
38.000000
  20
2.000000
  0
VERTEX
  8
C250
  10
38.000000
  20
2.000000
  0
VERTEX
  8
C250
  10
38.000000
  20
1.000000
  0
VERTEX
  8
C250
  10
52.000000
  20
1.000000
  0
VERTEX
  8
C250
  10
38.000000
  20
2.000000
  0
SEQEND
  8
C250
  0
POLYLINE
  8
C250
  66
1
  10
59.000000
  20
2.000000
  0
VERTEX
  8
C250
  10
59.000000
  20
2.000000
  0
VERTEX
  8
C250
  10
59.000000
  20
1.000000
  0
VERTEX
  8
C250
  10
100.000000
  20
1.000000
  0
VERTEX
  8
C250
  10
99.219000
  20
1.308700
  0
VERTEX
  8
C250
  10
98.412700
  20
1.591000
  0
VERTEX
  8
C250
  10
97.582300
  20
1.848000
  0
VERTEX
  8
C250
  10
96.728800
  20
2.080400
  0
VERTEX
  8
C250
  10
95.853600
  20
2.289400
  0
VERTEX
  8
C250
  10
94.957800
  20
2.475700
  0
VERTEX
  8
C250
  10
94.042500
  20
2.640300
  0
VERTEX
  8
C250
  10
93.109000
  20
2.784100
  0
VERTEX
  8
C250
  10
92.158500
  20
2.908200
  0
VERTEX
  8
C250
  10
91.192100
  20
3.013400
  0
VERTEX
  8
C250
  10
90.211000
  20
3.100600
  0
VERTEX
  8
C250
  10
89.216400
  20
3.170900
  0
VERTEX
  8
C250
  10
88.209600
  20
3.225000
  0
VERTEX
  8
C250
  10
87.191600
  20
3.264000
  0
VERTEX
  8
C250
  10
86.163700
  20
3.288800
  0
VERTEX
  8
C250
  10
85.127100
  20
3.300300
  0
VERTEX
  8
C250
  10
84.082900
  20
3.299500
  0
VERTEX
  8
C250
  10
83.032400
  20
3.287300
  0
VERTEX
  8
C250
  10
81.976700
  20
3.264600
  0
VERTEX
  8
C250
  10
80.917100
  20
3.232300
  0
VERTEX
  8
C250
  10
79.854600
  20
3.191500
  0
VERTEX
  8
C250
  10
78.790500
  20
3.143000
  0
VERTEX
  8
C250
  10
77.726000
  20
3.087700
  0
VERTEX
  8
C250
  10
76.662300
  20
3.026700
  0
VERTEX
  8
C250
  10
75.600500
  20
2.960700
  0
VERTEX
  8
C250
  10
74.541900
  20
2.890900
  0
VERTEX
  8
C250
  10
73.487500
  20
2.818000
  0
VERTEX
  8
C250
  10
72.438800
  20
2.743100
  0
VERTEX
  8
C250
  10
71.396700
  20
2.667000
  0
VERTEX
  8
C250
  10
70.362500
  20
2.590800
  0
VERTEX
  8
C250
  10
69.337400
  20
2.515200
  0
VERTEX
  8
C250
  10
68.322500
  20
2.441400
  0
VERTEX
  8
C250
  10
67.319100
  20
2.370100
  0
VERTEX
  8
C250
  10
66.328400
  20
2.302400
  0
VERTEX
  8
C250
  10
65.351400
  20
2.239100
  0
VERTEX
  8
C250
  10
64.389500
  20
2.181300
  0
VERTEX
  8
C250
  10
63.443800
  20
2.129800
  0
VERTEX
  8
C250
  10
62.515500
  20
2.085500
  0
VERTEX
  8
C250
  10
61.605800
  20
2.049500
  0
VERTEX
  8
C250
  10
60.715800
  20
2.022600
  0
VERTEX
  8
C250
  10
59.846800
  20
2.005800
  0
VERTEX
  8
C250
  10
59.000000
  20
2.000000
  0
SEQEND
  8
C250
  0
POLYLINE
  8
C250
  66
1
  10
170.000000
  20
2.000000
  0
VERTEX
  8
C250
  10
170.000000
  20
2.000000
  0
VERTEX
  8
C250
  10
170.000000
  20
1.000000
  0
VERTEX
  8
C250
  10
206.000000
  20
1.000000
  0
VERTEX
  8
C250
  10
205.210900
  20
1.310000
  0
VERTEX
  8
C250
  10
204.394700
  20
1.590500
  0
VERTEX
  8
C250
  10
203.553000
  20
1.842500
  0
VERTEX
  8
C250
  10
202.687200
  20
2.067400
  0
VERTEX
  8
C250
  10
201.798700
  20
2.266200
  0
VERTEX
  8
C250
  10
200.888900
  20
2.440200
  0
VERTEX
  8
C250
  10
199.959300
  20
2.590500
  0
VERTEX
  8
C250
  10
199.011300
  20
2.718400
  0
VERTEX
  8
C250
  10
198.046400
  20
2.825000
  0
VERTEX
  8
C250
  10
197.065900
  20
2.911500
  0
VERTEX
  8
C250
  10
196.071500
  20
2.979200
  0
VERTEX
  8
C250
  10
195.064400
  20
3.029100
  0
VERTEX
  8
C250
  10
194.046100
  20
3.062500
  0
VERTEX
  8
C250
  10
193.018100
  20
3.080600
  0
VERTEX
  8
C250
  10
191.981800
  20
3.084500
  0
VERTEX
  8
C250
  10
190.938600
  20
3.075500
  0
VERTEX
  8
C250
  10
189.890000
  20
3.054800
  0
VERTEX
  8
C250
  10
188.837500
  20
3.023400
  0
VERTEX
  8
C250
  10
187.782400
  20
2.982700
  0
VERTEX
  8
C250
  10
186.726300
  20
2.933800
  0
VERTEX
  8
C250
  10
185.670400
  20
2.877900
  0
VERTEX
  8
C250
  10
184.616400
  20
2.816100
  0
VERTEX
  8
C250
  10
183.565600
  20
2.749800
  0
VERTEX
  8
C250
  10
182.519400
  20
2.680000
  0
VERTEX
  8
C250
  10
181.479400
  20
2.607900
  0
VERTEX
  8
C250
  10
180.446900
  20
2.534800
  0
VERTEX
  8
C250
  10
179.423500
  20
2.461700
  0
VERTEX
  8
C250
  10
178.410400
  20
2.390100
  0
VERTEX
  8
C250
  10
177.409200
  20
2.320900
  0
VERTEX
  8
C250
  10
176.421300
  20
2.255400
  0
VERTEX
  8
C250
  10
175.448200
  20
2.194700
  0
VERTEX
  8
C250
  10
174.491300
  20
2.140200
  0
VERTEX
  8
C250
  10
173.552000
  20
2.092900
  0
VERTEX
  8
C250
  10
172.631800
  20
2.054000
  0
VERTEX
  8
C250
  10
171.732100
  20
2.024800
  0
VERTEX
  8
C250
  10
170.854300
  20
2.006400
  0
VERTEX
  8
C250
  10
170.000000
  20
2.000000
  0
SEQEND
  8
C250
  0
POLYLINE
  8
C250
  66
1
  10
217.000000
  20
2.000000
  0
VERTEX
  8
C250
  10
217.000000
  20
2.000000
  0
VERTEX
  8
C250
  10
217.000000
  20
1.000000
  0
VERTEX
  8
C250
  10
228.000000
  20
1.000000
  0
VERTEX
  8
C250
  10
217.000000
  20
2.000000
  0
SEQEND
  8
C250
  0
POLYLINE
  8
C250
  66
1
  10
250.000000
  20
2.000000
  0
VERTEX
  8
C250
  10
250.000000
  20
2.000000
  0
VERTEX
  8
C250
  10
250.000000
  20
1.000000
  0
VERTEX
  8
C250
  10
261.000000
  20
1.000000
  0
VERTEX
  8
C250
  10
250.000000
  20
2.000000
  0
SEQEND
  8
0
  0
ENDSEC
  0
EOF
