M48
; DRILL file {KiCad 9.0.7+1} date 2026-03-04T10:10:33+0000
; FORMAT={-:-/ absolute / metric / decimal}
; #@! TF.CreationDate,2026-03-04T10:10:33+00:00
; #@! TF.GenerationSoftware,Kicad,Pcbnew,9.0.7+1
; #@! TF.FileFunction,Plated,1,4,PTH
FMAT,2
METRIC
; #@! TA.AperFunction,Plated,PTH,ViaDrill
T1C0.250
; #@! TA.AperFunction,Plated,PTH,ComponentDrill
T2C0.800
; #@! TA.AperFunction,Plated,PTH,ComponentDrill
T3C1.000
; #@! TA.AperFunction,Plated,PTH,ComponentDrill
T4C1.100
; #@! TA.AperFunction,Plated,PTH,ComponentDrill
T5C1.200
; #@! TA.AperFunction,Plated,PTH,ComponentDrill
T6C1.300
; #@! TA.AperFunction,Plated,PTH,ComponentDrill
T7C1.600
; #@! TA.AperFunction,Plated,PTH,ComponentDrill
T8C2.200
; #@! TA.AperFunction,Plated,PTH,ComponentDrill
T9C3.050
; #@! TA.AperFunction,Plated,PTH,ComponentDrill
T10C3.162
; #@! TA.AperFunction,Plated,PTH,ComponentDrill
T11C3.200
; #@! TA.AperFunction,Plated,PTH,ComponentDrill
T12C3.640
%
G90
G05
T1
X187.165Y-228.41
X187.95Y-140.8
X213.112Y-140.81
X238.037Y-140.79
X240.0Y-208.7
X240.0Y-211.5
X240.9Y-208.7
X241.13Y-207.5
X241.3Y-206.2
X241.35Y-244.4
X241.6Y-208.3
X241.8Y-242.58
X241.8Y-243.51
X241.98Y-207.5
X242.0Y-206.8
X242.38Y-208.39
X242.9Y-242.58
X242.9Y-243.51
X242.9Y-244.5
X243.6Y-208.4
X244.0Y-243.5
X244.007Y-242.55
X244.007Y-244.5
X245.1Y-242.58
X245.1Y-243.51
X245.1Y-244.5
X245.6Y-245.4
X245.6Y-246.3
X246.1Y-242.58
X246.1Y-243.51
X246.1Y-244.5
X250.0Y-208.38
X251.27Y-208.42
X253.5Y-209.8
X262.95Y-140.737
X268.4Y-168.55
X269.3Y-170.2
X276.225Y-205.13
X276.9Y-222.8
X277.775Y-205.13
X277.95Y-206.9
X278.0Y-217.95
X278.0Y-222.75
X278.912Y-213.26
X278.98Y-222.75
X279.63Y-214.25
X280.0Y-213.3
X280.3Y-214.9
X280.3Y-215.6
X280.6Y-214.25
X281.0Y-213.3
X281.0Y-215.2
X281.4Y-214.25
X281.8Y-215.2
X282.2Y-214.2
X282.23Y-205.8
X285.325Y-222.075
X286.0Y-222.75
X286.1Y-202.15
X286.2Y-206.89
X286.412Y-205.11
X286.45Y-218.75
X287.162Y-213.27
X287.162Y-214.25
X287.9Y-140.873
X288.07Y-214.25
X288.6Y-214.3
X288.73Y-205.8
X288.73Y-214.8
X288.73Y-215.47
X288.73Y-216.11
X295.23Y-205.8
X295.23Y-214.2
X301.73Y-214.2
X301.8Y-205.8
X308.23Y-205.8
X308.23Y-214.2
X312.95Y-140.8
X314.73Y-205.8
X314.73Y-214.2
X321.23Y-205.8
X321.23Y-214.2
X327.73Y-205.8
X327.73Y-214.2
X331.25Y-219.98
X331.45Y-204.12
X331.6Y-199.2
X331.95Y-216.25
X333.55Y-212.11
X333.55Y-212.8
X334.23Y-205.8
X334.23Y-214.2
X334.23Y-214.8
X334.23Y-215.41
X334.23Y-216.01
X337.9Y-140.882
X338.15Y-199.85
X339.25Y-215.2
X339.412Y-202.36
X339.45Y-204.13
X339.5Y-219.98
X340.73Y-205.8
X340.73Y-214.2
X340.73Y-214.87
X340.73Y-215.5
X340.73Y-216.11
X341.29Y-213.98
X362.537Y-140.81
X363.52Y-244.25
X364.11Y-244.25
X364.76Y-236.95
X364.76Y-239.25
X364.76Y-241.7
X364.76Y-244.25
X365.5Y-244.25
X366.23Y-244.25
X367.49Y-234.95
X367.49Y-238.0
X367.5Y-240.5
X367.51Y-243.05
X380.25Y-236.0
X381.8Y-235.35
X381.8Y-236.0
X382.5Y-235.33
X382.5Y-236.0
X383.2Y-235.4
X383.2Y-236.0
X384.5Y-236.0
X388.2Y-140.748
X388.75Y-236.0
X391.0Y-236.0
X397.25Y-236.0
X399.5Y-236.0
X405.75Y-236.0
X408.0Y-236.0
X413.15Y-140.862
X414.25Y-236.0
X416.5Y-236.0
T2
X446.0Y-247.339
X446.0Y-249.839
X455.75Y-247.339
X455.75Y-249.839
T3
X284.865Y-248.51
X286.25Y-251.35
X287.635Y-248.51
X289.02Y-251.35
X290.405Y-248.51
X291.79Y-251.35
X293.175Y-248.51
X294.56Y-251.35
X295.945Y-248.51
X331.055Y-246.46
X332.2Y-249.0
X333.345Y-246.46
X333.345Y-251.54
X334.49Y-249.0
X335.635Y-246.46
X335.635Y-251.54
X336.78Y-249.0
X337.925Y-246.46
X337.925Y-251.54
X339.07Y-249.0
X340.215Y-246.46
X340.215Y-251.54
X341.36Y-249.0
X342.505Y-246.46
X342.505Y-251.54
X343.65Y-249.0
X344.795Y-246.46
X344.795Y-251.54
X345.94Y-249.0
X347.085Y-246.46
X347.085Y-251.54
X348.23Y-249.0
X349.375Y-246.46
X349.375Y-251.54
X350.52Y-249.0
X365.105Y-173.675
X365.105Y-176.215
X365.105Y-178.755
X365.105Y-181.295
X365.105Y-183.835
X365.105Y-186.375
X365.105Y-188.915
X365.105Y-191.455
X365.105Y-193.995
X365.105Y-196.535
X365.105Y-199.075
X365.105Y-201.615
X365.105Y-204.155
X365.105Y-206.695
X365.105Y-209.235
X365.105Y-211.775
X365.105Y-214.315
X365.105Y-216.855
X367.645Y-173.675
X367.645Y-176.215
X367.645Y-178.755
X367.645Y-181.295
X367.645Y-183.835
X367.645Y-186.375
X367.645Y-188.915
X367.645Y-191.455
X367.645Y-193.995
X367.645Y-196.535
X367.645Y-199.075
X367.645Y-201.615
X367.645Y-204.155
X367.645Y-206.695
X367.645Y-209.235
X367.645Y-211.775
X367.645Y-214.315
X367.645Y-216.855
X370.185Y-221.935
X372.725Y-221.935
X375.265Y-173.675
X375.265Y-221.935
X375.45Y-165.2
X377.805Y-173.675
X377.805Y-221.935
X377.99Y-165.2
X380.345Y-173.675
X380.345Y-221.935
X380.53Y-165.2
X382.885Y-173.675
X382.885Y-221.935
X383.07Y-165.2
X385.425Y-173.675
X385.425Y-221.935
X385.61Y-165.2
X387.965Y-173.675
X387.965Y-221.935
X388.15Y-165.2
X390.505Y-173.675
X393.045Y-173.675
X393.045Y-221.935
X395.585Y-221.935
X398.125Y-173.675
X398.125Y-221.935
X400.665Y-173.675
X400.665Y-221.935
X403.205Y-173.675
X403.205Y-221.935
X405.745Y-173.675
X405.745Y-221.935
X408.285Y-173.675
X408.285Y-221.935
X410.825Y-173.675
X410.825Y-221.935
X413.365Y-173.675
X415.905Y-173.675
X415.905Y-221.935
X418.445Y-221.935
X419.969Y-173.675
X420.985Y-221.935
X422.509Y-173.675
X423.525Y-221.935
X425.049Y-173.675
X426.065Y-221.935
X427.589Y-173.675
X428.605Y-221.935
X430.129Y-173.675
X431.145Y-221.935
X432.669Y-173.675
X433.685Y-221.935
X435.209Y-173.675
X437.749Y-173.675
X440.289Y-173.675
X442.829Y-173.675
X453.0Y-239.25
X455.54Y-239.25
X458.08Y-239.25
T4
X184.41Y-228.71
X184.41Y-231.25
X184.41Y-233.79
X234.847Y-246.0
X234.847Y-251.08
X235.992Y-248.54
X237.137Y-246.0
X237.137Y-251.08
X238.282Y-248.54
X239.427Y-246.0
X239.427Y-251.08
X240.572Y-248.54
X241.718Y-246.0
X241.718Y-251.08
X242.862Y-248.54
X244.007Y-246.0
X244.007Y-251.08
X245.152Y-248.54
T5
X179.29Y-242.71
X179.29Y-252.87
X189.45Y-242.71
X189.45Y-252.87
X199.29Y-242.71
X199.29Y-252.87
X209.45Y-242.71
X209.45Y-252.87
T6
X175.0Y-127.46
X175.0Y-142.7
X182.6Y-130.0
X182.6Y-142.7
X200.0Y-127.46
X200.0Y-142.7
X207.6Y-130.0
X207.6Y-142.7
X225.0Y-127.46
X225.0Y-142.7
X232.6Y-130.0
X232.6Y-142.7
X250.0Y-127.46
X250.0Y-142.7
X257.6Y-130.0
X257.6Y-142.7
X275.0Y-127.46
X275.0Y-142.7
X282.6Y-130.0
X282.6Y-142.7
X300.0Y-127.46
X300.0Y-142.7
X307.6Y-130.0
X307.6Y-142.7
X325.0Y-127.46
X325.0Y-142.7
X332.6Y-130.0
X332.6Y-142.7
X349.6Y-127.46
X349.6Y-142.7
X357.2Y-130.0
X357.2Y-142.7
X375.037Y-127.46
X375.037Y-142.7
X382.637Y-130.0
X382.637Y-142.7
X400.0Y-127.46
X400.0Y-142.7
X407.6Y-130.0
X407.6Y-142.7
X465.96Y-142.67
X465.96Y-144.96
X465.96Y-147.25
X465.96Y-149.54
X465.96Y-151.83
X468.5Y-143.81
X468.5Y-146.1
X468.5Y-148.39
X468.5Y-150.68
X468.5Y-152.97
X471.04Y-142.67
X471.04Y-144.96
X471.04Y-147.25
X471.04Y-149.54
X471.04Y-151.83
T7
X175.92Y-115.0
X181.0Y-115.0
X200.92Y-115.0
X206.0Y-115.0
X225.92Y-115.0
X231.0Y-115.0
X250.92Y-115.0
X256.0Y-115.0
X275.92Y-115.0
X281.0Y-115.0
X300.92Y-115.0
X306.0Y-115.0
X325.92Y-115.0
X331.0Y-115.0
X350.92Y-115.0
X356.0Y-115.0
X375.92Y-115.0
X381.0Y-115.0
X400.92Y-115.0
X406.0Y-115.0
T8
X184.37Y-246.51
X204.37Y-246.51
T9
X277.91Y-249.93
X302.9Y-249.93
T10
X454.3Y-122.0
X459.0Y-119.0
T11
X164.0Y-114.0
X164.0Y-185.0
X164.0Y-256.0
X227.505Y-248.54
X241.0Y-114.0
X252.494Y-248.54
X268.0Y-256.0
X316.0Y-114.0
X324.1Y-249.0
X357.4Y-249.0
X372.0Y-256.0
X391.0Y-114.0
X468.5Y-135.0
X468.5Y-159.99
X476.0Y-114.0
X476.0Y-185.0
X476.0Y-256.0
T12
X459.0Y-125.0
M30
