%TF.GenerationSoftware,KiCad,Pcbnew,9.0.7+1*%
%TF.CreationDate,Date%
%TF.ProjectId,VPDCU_EGSE,56504443-555f-4454-9753-452e6b696361,+ (Unreleased)*%
%TF.SameCoordinates,Original*%
%TF.FileFunction,Paste,Bot*%
%TF.FilePolarity,Positive*%
%FSLAX46Y46*%
G04 Gerber Fmt 4.6, Leading zero omitted, Abs format (unit mm)*
G04 Created by KiCad*
%MOMM*%
%LPD*%
G01*
G04 APERTURE LIST*
G04 Aperture macros list*
%AMRoundRect*
0 Rectangle with rounded corners*
0 $1 Rounding radius*
0 $2 $3 $4 $5 $6 $7 $8 $9 X,Y pos of 4 corners*
0 Add a 4 corners polygon primitive as box body*
4,1,4,$2,$3,$4,$5,$6,$7,$8,$9,$2,$3,0*
0 Add four circle primitives for the rounded corners*
1,1,$1+$1,$2,$3*
1,1,$1+$1,$4,$5*
1,1,$1+$1,$6,$7*
1,1,$1+$1,$8,$9*
0 Add four rect primitives between the rounded corners*
20,1,$1+$1,$2,$3,$4,$5,0*
20,1,$1+$1,$4,$5,$6,$7,0*
20,1,$1+$1,$6,$7,$8,$9,0*
20,1,$1+$1,$8,$9,$2,$3,0*%
G04 Aperture macros list end*
%ADD10R,0.900000X1.800000*%
%ADD11R,3.200000X1.800000*%
%ADD12RoundRect,0.250000X-0.262500X-0.450000X0.262500X-0.450000X0.262500X0.450000X-0.262500X0.450000X0*%
%ADD13RoundRect,0.225000X-0.225000X-0.250000X0.225000X-0.250000X0.225000X0.250000X-0.225000X0.250000X0*%
%ADD14RoundRect,0.150000X-0.150000X0.587500X-0.150000X-0.587500X0.150000X-0.587500X0.150000X0.587500X0*%
G04 APERTURE END LIST*
D10*
%TO.C,Q27*%
X275700000Y-216750000D03*
X278000000Y-216750000D03*
X280300000Y-216750000D03*
D11*
X278000000Y-222750000D03*
%TD*%
D12*
%TO.C,R120*%
X330587500Y-209480000D03*
X332412500Y-209480000D03*
%TD*%
%TO.C,R119*%
X330587500Y-211500000D03*
X332412500Y-211500000D03*
%TD*%
D13*
%TO.C,C34*%
X276225000Y-206000000D03*
X277775000Y-206000000D03*
%TD*%
D12*
%TO.C,R116*%
X338587500Y-209480000D03*
X340412500Y-209480000D03*
%TD*%
%TO.C,R111*%
X276087500Y-204000000D03*
X277912500Y-204000000D03*
%TD*%
D14*
%TO.C,Q33*%
X329550000Y-205292500D03*
X331450000Y-205292500D03*
X330500000Y-207167500D03*
%TD*%
D13*
%TO.C,C35*%
X284725000Y-206000000D03*
X286275000Y-206000000D03*
%TD*%
D12*
%TO.C,R109*%
X277087500Y-212250000D03*
X278912500Y-212250000D03*
%TD*%
D13*
%TO.C,C36*%
X337725000Y-203230000D03*
X339275000Y-203230000D03*
%TD*%
D10*
%TO.C,Q34*%
X328950000Y-213980000D03*
X331250000Y-213980000D03*
X333550000Y-213980000D03*
D11*
X331250000Y-219980000D03*
%TD*%
D12*
%TO.C,R112*%
X284587500Y-204000000D03*
X286412500Y-204000000D03*
%TD*%
%TO.C,R113*%
X285337500Y-214250000D03*
X287162500Y-214250000D03*
%TD*%
D13*
%TO.C,C37*%
X329725000Y-203230000D03*
X331275000Y-203230000D03*
%TD*%
D10*
%TO.C,Q30*%
X283700000Y-216750000D03*
X286000000Y-216750000D03*
X288300000Y-216750000D03*
D11*
X286000000Y-222750000D03*
%TD*%
D12*
%TO.C,R115*%
X337587500Y-201230000D03*
X339412500Y-201230000D03*
%TD*%
%TO.C,R118*%
X329587500Y-201230000D03*
X331412500Y-201230000D03*
%TD*%
D14*
%TO.C,Q28*%
X276050000Y-208062500D03*
X277950000Y-208062500D03*
X277000000Y-209937500D03*
%TD*%
D10*
%TO.C,Q32*%
X337200000Y-213980000D03*
X339500000Y-213980000D03*
X341800000Y-213980000D03*
D11*
X339500000Y-219980000D03*
%TD*%
D12*
%TO.C,R114*%
X285337500Y-212250000D03*
X287162500Y-212250000D03*
%TD*%
%TO.C,R117*%
X338587500Y-211480000D03*
X340412500Y-211480000D03*
%TD*%
%TO.C,R110*%
X277087500Y-214250000D03*
X278912500Y-214250000D03*
%TD*%
D14*
%TO.C,Q29*%
X284300000Y-208062500D03*
X286200000Y-208062500D03*
X285250000Y-209937500D03*
%TD*%
%TO.C,Q31*%
X337550000Y-205292500D03*
X339450000Y-205292500D03*
X338500000Y-207167500D03*
%TD*%
M02*
