%TF.GenerationSoftware,KiCad,Pcbnew,9.0.7+1*%
%TF.CreationDate,Date%
%TF.ProjectId,VPDCU_EGSE,56504443-555f-4454-9753-452e6b696361,+ (Unreleased)*%
%TF.SameCoordinates,Original*%
%TF.FileFunction,Legend,Bot*%
%TF.FilePolarity,Positive*%
%FSLAX46Y46*%
G04 Gerber Fmt 4.6, Leading zero omitted, Abs format (unit mm)*
G04 Created by KiCad*
%MOMM*%
%LPD*%
G01*
G04 APERTURE LIST*
G04 Aperture macros list*
%AMRoundRect*
0 Rectangle with rounded corners*
0 $1 Rounding radius*
0 $2 $3 $4 $5 $6 $7 $8 $9 X,Y pos of 4 corners*
0 Add a 4 corners polygon primitive as box body*
4,1,4,$2,$3,$4,$5,$6,$7,$8,$9,$2,$3,0*
0 Add four circle primitives for the rounded corners*
1,1,$1+$1,$2,$3*
1,1,$1+$1,$4,$5*
1,1,$1+$1,$6,$7*
1,1,$1+$1,$8,$9*
0 Add four rect primitives between the rounded corners*
20,1,$1+$1,$2,$3,$4,$5,0*
20,1,$1+$1,$4,$5,$6,$7,0*
20,1,$1+$1,$6,$7,$8,$9,0*
20,1,$1+$1,$8,$9,$2,$3,0*%
G04 Aperture macros list end*
%ADD10C,0.150000*%
%ADD11C,0.254000*%
%ADD12C,0.120000*%
%ADD13C,0.200000*%
%ADD14RoundRect,0.265625X-0.584375X0.584375X-0.584375X-0.584375X0.584375X-0.584375X0.584375X0.584375X0*%
%ADD15C,1.700000*%
%ADD16RoundRect,0.050000X1.200000X1.200000X-1.200000X1.200000X-1.200000X-1.200000X1.200000X-1.200000X0*%
%ADD17C,2.500000*%
%ADD18RoundRect,0.050000X0.850000X-0.850000X0.850000X0.850000X-0.850000X0.850000X-0.850000X-0.850000X0*%
%ADD19C,1.800000*%
%ADD20RoundRect,0.050000X0.850000X0.850000X-0.850000X0.850000X-0.850000X-0.850000X0.850000X-0.850000X0*%
%ADD21C,2.050000*%
%ADD22RoundRect,0.050000X-0.850000X0.850000X-0.850000X-0.850000X0.850000X-0.850000X0.850000X0.850000X0*%
%ADD23C,3.600000*%
%ADD24RoundRect,0.050000X1.000000X-0.952500X1.000000X0.952500X-1.000000X0.952500X-1.000000X-0.952500X0*%
%ADD25O,2.100000X2.005000*%
%ADD26RoundRect,0.050000X-0.825000X-0.825000X0.825000X-0.825000X0.825000X0.825000X-0.825000X0.825000X0*%
%ADD27C,1.750000*%
%ADD28C,4.900000*%
%ADD29RoundRect,0.050000X1.650000X-1.650000X1.650000X1.650000X-1.650000X1.650000X-1.650000X-1.650000X0*%
%ADD30C,1.900000*%
%ADD31C,5.560000*%
%ADD32C,4.843000*%
%ADD33C,5.700000*%
%ADD34C,4.100000*%
%ADD35RoundRect,0.050000X-0.800000X-0.800000X0.800000X-0.800000X0.800000X0.800000X-0.800000X0.800000X0*%
%ADD36RoundRect,0.050000X0.800000X-0.800000X0.800000X0.800000X-0.800000X0.800000X-0.800000X-0.800000X0*%
%ADD37RoundRect,0.050000X-0.750000X-0.750000X0.750000X-0.750000X0.750000X0.750000X-0.750000X0.750000X0*%
%ADD38C,1.600000*%
%ADD39C,4.675000*%
%ADD40RoundRect,0.050000X0.500000X0.500000X-0.500000X0.500000X-0.500000X-0.500000X0.500000X-0.500000X0*%
%ADD41RoundRect,0.050000X0.450000X0.900000X-0.450000X0.900000X-0.450000X-0.900000X0.450000X-0.900000X0*%
%ADD42RoundRect,0.050000X-1.600000X0.900000X-1.600000X-0.900000X1.600000X-0.900000X1.600000X0.900000X0*%
%ADD43RoundRect,0.274390X-0.288110X-0.475610X0.288110X-0.475610X0.288110X0.475610X-0.288110X0.475610X0*%
%ADD44C,3.300000*%
%ADD45RoundRect,0.250000X-0.250000X-0.275000X0.250000X-0.275000X0.250000X0.275000X-0.250000X0.275000X0*%
%ADD46RoundRect,0.175000X-0.175000X0.612500X-0.175000X-0.612500X0.175000X-0.612500X0.175000X0.612500X0*%
%ADD47RoundRect,0.050000X0.500000X-0.500000X0.500000X0.500000X-0.500000X0.500000X-0.500000X-0.500000X0*%
G04 APERTURE END LIST*
D10*
X400254819Y-166261905D02*
X400254819Y-166833333D01*
X401254819Y-166547619D02*
X400254819Y-166547619D01*
X400254819Y-167071429D02*
X400254819Y-167690476D01*
X400254819Y-167690476D02*
X400635771Y-167357143D01*
X400635771Y-167357143D02*
X400635771Y-167500000D01*
X400635771Y-167500000D02*
X400683390Y-167595238D01*
X400683390Y-167595238D02*
X400731009Y-167642857D01*
X400731009Y-167642857D02*
X400826247Y-167690476D01*
X400826247Y-167690476D02*
X401064342Y-167690476D01*
X401064342Y-167690476D02*
X401159580Y-167642857D01*
X401159580Y-167642857D02*
X401207200Y-167595238D01*
X401207200Y-167595238D02*
X401254819Y-167500000D01*
X401254819Y-167500000D02*
X401254819Y-167214286D01*
X401254819Y-167214286D02*
X401207200Y-167119048D01*
X401207200Y-167119048D02*
X401159580Y-167071429D01*
X400254819Y-168023810D02*
X400254819Y-168690476D01*
X400254819Y-168690476D02*
X401254819Y-168261905D01*
D11*
X278725714Y-225695270D02*
X278846666Y-225634794D01*
X278846666Y-225634794D02*
X278967619Y-225513842D01*
X278967619Y-225513842D02*
X279149047Y-225332413D01*
X279149047Y-225332413D02*
X279270000Y-225271937D01*
X279270000Y-225271937D02*
X279390952Y-225271937D01*
X279330476Y-225574318D02*
X279451428Y-225513842D01*
X279451428Y-225513842D02*
X279572381Y-225392889D01*
X279572381Y-225392889D02*
X279632857Y-225150984D01*
X279632857Y-225150984D02*
X279632857Y-224727651D01*
X279632857Y-224727651D02*
X279572381Y-224485746D01*
X279572381Y-224485746D02*
X279451428Y-224364794D01*
X279451428Y-224364794D02*
X279330476Y-224304318D01*
X279330476Y-224304318D02*
X279088571Y-224304318D01*
X279088571Y-224304318D02*
X278967619Y-224364794D01*
X278967619Y-224364794D02*
X278846666Y-224485746D01*
X278846666Y-224485746D02*
X278786190Y-224727651D01*
X278786190Y-224727651D02*
X278786190Y-225150984D01*
X278786190Y-225150984D02*
X278846666Y-225392889D01*
X278846666Y-225392889D02*
X278967619Y-225513842D01*
X278967619Y-225513842D02*
X279088571Y-225574318D01*
X279088571Y-225574318D02*
X279330476Y-225574318D01*
X278302381Y-224425270D02*
X278241905Y-224364794D01*
X278241905Y-224364794D02*
X278120952Y-224304318D01*
X278120952Y-224304318D02*
X277818571Y-224304318D01*
X277818571Y-224304318D02*
X277697619Y-224364794D01*
X277697619Y-224364794D02*
X277637143Y-224425270D01*
X277637143Y-224425270D02*
X277576666Y-224546222D01*
X277576666Y-224546222D02*
X277576666Y-224667175D01*
X277576666Y-224667175D02*
X277637143Y-224848603D01*
X277637143Y-224848603D02*
X278362857Y-225574318D01*
X278362857Y-225574318D02*
X277576666Y-225574318D01*
X277153333Y-224304318D02*
X276306666Y-224304318D01*
X276306666Y-224304318D02*
X276850952Y-225574318D01*
D10*
X329019047Y-209954819D02*
X329352380Y-209478628D01*
X329590475Y-209954819D02*
X329590475Y-208954819D01*
X329590475Y-208954819D02*
X329209523Y-208954819D01*
X329209523Y-208954819D02*
X329114285Y-209002438D01*
X329114285Y-209002438D02*
X329066666Y-209050057D01*
X329066666Y-209050057D02*
X329019047Y-209145295D01*
X329019047Y-209145295D02*
X329019047Y-209288152D01*
X329019047Y-209288152D02*
X329066666Y-209383390D01*
X329066666Y-209383390D02*
X329114285Y-209431009D01*
X329114285Y-209431009D02*
X329209523Y-209478628D01*
X329209523Y-209478628D02*
X329590475Y-209478628D01*
X328066666Y-209954819D02*
X328638094Y-209954819D01*
X328352380Y-209954819D02*
X328352380Y-208954819D01*
X328352380Y-208954819D02*
X328447618Y-209097676D01*
X328447618Y-209097676D02*
X328542856Y-209192914D01*
X328542856Y-209192914D02*
X328638094Y-209240533D01*
X327685713Y-209050057D02*
X327638094Y-209002438D01*
X327638094Y-209002438D02*
X327542856Y-208954819D01*
X327542856Y-208954819D02*
X327304761Y-208954819D01*
X327304761Y-208954819D02*
X327209523Y-209002438D01*
X327209523Y-209002438D02*
X327161904Y-209050057D01*
X327161904Y-209050057D02*
X327114285Y-209145295D01*
X327114285Y-209145295D02*
X327114285Y-209240533D01*
X327114285Y-209240533D02*
X327161904Y-209383390D01*
X327161904Y-209383390D02*
X327733332Y-209954819D01*
X327733332Y-209954819D02*
X327114285Y-209954819D01*
X326495237Y-208954819D02*
X326399999Y-208954819D01*
X326399999Y-208954819D02*
X326304761Y-209002438D01*
X326304761Y-209002438D02*
X326257142Y-209050057D01*
X326257142Y-209050057D02*
X326209523Y-209145295D01*
X326209523Y-209145295D02*
X326161904Y-209335771D01*
X326161904Y-209335771D02*
X326161904Y-209573866D01*
X326161904Y-209573866D02*
X326209523Y-209764342D01*
X326209523Y-209764342D02*
X326257142Y-209859580D01*
X326257142Y-209859580D02*
X326304761Y-209907200D01*
X326304761Y-209907200D02*
X326399999Y-209954819D01*
X326399999Y-209954819D02*
X326495237Y-209954819D01*
X326495237Y-209954819D02*
X326590475Y-209907200D01*
X326590475Y-209907200D02*
X326638094Y-209859580D01*
X326638094Y-209859580D02*
X326685713Y-209764342D01*
X326685713Y-209764342D02*
X326733332Y-209573866D01*
X326733332Y-209573866D02*
X326733332Y-209335771D01*
X326733332Y-209335771D02*
X326685713Y-209145295D01*
X326685713Y-209145295D02*
X326638094Y-209050057D01*
X326638094Y-209050057D02*
X326590475Y-209002438D01*
X326590475Y-209002438D02*
X326495237Y-208954819D01*
X329009047Y-211834819D02*
X329342380Y-211358628D01*
X329580475Y-211834819D02*
X329580475Y-210834819D01*
X329580475Y-210834819D02*
X329199523Y-210834819D01*
X329199523Y-210834819D02*
X329104285Y-210882438D01*
X329104285Y-210882438D02*
X329056666Y-210930057D01*
X329056666Y-210930057D02*
X329009047Y-211025295D01*
X329009047Y-211025295D02*
X329009047Y-211168152D01*
X329009047Y-211168152D02*
X329056666Y-211263390D01*
X329056666Y-211263390D02*
X329104285Y-211311009D01*
X329104285Y-211311009D02*
X329199523Y-211358628D01*
X329199523Y-211358628D02*
X329580475Y-211358628D01*
X328056666Y-211834819D02*
X328628094Y-211834819D01*
X328342380Y-211834819D02*
X328342380Y-210834819D01*
X328342380Y-210834819D02*
X328437618Y-210977676D01*
X328437618Y-210977676D02*
X328532856Y-211072914D01*
X328532856Y-211072914D02*
X328628094Y-211120533D01*
X327104285Y-211834819D02*
X327675713Y-211834819D01*
X327389999Y-211834819D02*
X327389999Y-210834819D01*
X327389999Y-210834819D02*
X327485237Y-210977676D01*
X327485237Y-210977676D02*
X327580475Y-211072914D01*
X327580475Y-211072914D02*
X327675713Y-211120533D01*
X326628094Y-211834819D02*
X326437618Y-211834819D01*
X326437618Y-211834819D02*
X326342380Y-211787200D01*
X326342380Y-211787200D02*
X326294761Y-211739580D01*
X326294761Y-211739580D02*
X326199523Y-211596723D01*
X326199523Y-211596723D02*
X326151904Y-211406247D01*
X326151904Y-211406247D02*
X326151904Y-211025295D01*
X326151904Y-211025295D02*
X326199523Y-210930057D01*
X326199523Y-210930057D02*
X326247142Y-210882438D01*
X326247142Y-210882438D02*
X326342380Y-210834819D01*
X326342380Y-210834819D02*
X326532856Y-210834819D01*
X326532856Y-210834819D02*
X326628094Y-210882438D01*
X326628094Y-210882438D02*
X326675713Y-210930057D01*
X326675713Y-210930057D02*
X326723332Y-211025295D01*
X326723332Y-211025295D02*
X326723332Y-211263390D01*
X326723332Y-211263390D02*
X326675713Y-211358628D01*
X326675713Y-211358628D02*
X326628094Y-211406247D01*
X326628094Y-211406247D02*
X326532856Y-211453866D01*
X326532856Y-211453866D02*
X326342380Y-211453866D01*
X326342380Y-211453866D02*
X326247142Y-211406247D01*
X326247142Y-211406247D02*
X326199523Y-211358628D01*
X326199523Y-211358628D02*
X326151904Y-211263390D01*
X274742857Y-206359580D02*
X274790476Y-206407200D01*
X274790476Y-206407200D02*
X274933333Y-206454819D01*
X274933333Y-206454819D02*
X275028571Y-206454819D01*
X275028571Y-206454819D02*
X275171428Y-206407200D01*
X275171428Y-206407200D02*
X275266666Y-206311961D01*
X275266666Y-206311961D02*
X275314285Y-206216723D01*
X275314285Y-206216723D02*
X275361904Y-206026247D01*
X275361904Y-206026247D02*
X275361904Y-205883390D01*
X275361904Y-205883390D02*
X275314285Y-205692914D01*
X275314285Y-205692914D02*
X275266666Y-205597676D01*
X275266666Y-205597676D02*
X275171428Y-205502438D01*
X275171428Y-205502438D02*
X275028571Y-205454819D01*
X275028571Y-205454819D02*
X274933333Y-205454819D01*
X274933333Y-205454819D02*
X274790476Y-205502438D01*
X274790476Y-205502438D02*
X274742857Y-205550057D01*
X274409523Y-205454819D02*
X273790476Y-205454819D01*
X273790476Y-205454819D02*
X274123809Y-205835771D01*
X274123809Y-205835771D02*
X273980952Y-205835771D01*
X273980952Y-205835771D02*
X273885714Y-205883390D01*
X273885714Y-205883390D02*
X273838095Y-205931009D01*
X273838095Y-205931009D02*
X273790476Y-206026247D01*
X273790476Y-206026247D02*
X273790476Y-206264342D01*
X273790476Y-206264342D02*
X273838095Y-206359580D01*
X273838095Y-206359580D02*
X273885714Y-206407200D01*
X273885714Y-206407200D02*
X273980952Y-206454819D01*
X273980952Y-206454819D02*
X274266666Y-206454819D01*
X274266666Y-206454819D02*
X274361904Y-206407200D01*
X274361904Y-206407200D02*
X274409523Y-206359580D01*
X272933333Y-205788152D02*
X272933333Y-206454819D01*
X273171428Y-205407200D02*
X273409523Y-206121485D01*
X273409523Y-206121485D02*
X272790476Y-206121485D01*
X374538094Y-211154819D02*
X373966666Y-211154819D01*
X374252380Y-212154819D02*
X374252380Y-211154819D01*
X373680951Y-211250057D02*
X373633332Y-211202438D01*
X373633332Y-211202438D02*
X373538094Y-211154819D01*
X373538094Y-211154819D02*
X373299999Y-211154819D01*
X373299999Y-211154819D02*
X373204761Y-211202438D01*
X373204761Y-211202438D02*
X373157142Y-211250057D01*
X373157142Y-211250057D02*
X373109523Y-211345295D01*
X373109523Y-211345295D02*
X373109523Y-211440533D01*
X373109523Y-211440533D02*
X373157142Y-211583390D01*
X373157142Y-211583390D02*
X373728570Y-212154819D01*
X373728570Y-212154819D02*
X373109523Y-212154819D01*
X372252380Y-211488152D02*
X372252380Y-212154819D01*
X372490475Y-211107200D02*
X372728570Y-211821485D01*
X372728570Y-211821485D02*
X372109523Y-211821485D01*
X397704819Y-166161905D02*
X397704819Y-166733333D01*
X398704819Y-166447619D02*
X397704819Y-166447619D01*
X397704819Y-166971429D02*
X397704819Y-167590476D01*
X397704819Y-167590476D02*
X398085771Y-167257143D01*
X398085771Y-167257143D02*
X398085771Y-167400000D01*
X398085771Y-167400000D02*
X398133390Y-167495238D01*
X398133390Y-167495238D02*
X398181009Y-167542857D01*
X398181009Y-167542857D02*
X398276247Y-167590476D01*
X398276247Y-167590476D02*
X398514342Y-167590476D01*
X398514342Y-167590476D02*
X398609580Y-167542857D01*
X398609580Y-167542857D02*
X398657200Y-167495238D01*
X398657200Y-167495238D02*
X398704819Y-167400000D01*
X398704819Y-167400000D02*
X398704819Y-167114286D01*
X398704819Y-167114286D02*
X398657200Y-167019048D01*
X398657200Y-167019048D02*
X398609580Y-166971429D01*
X397704819Y-168447619D02*
X397704819Y-168257143D01*
X397704819Y-168257143D02*
X397752438Y-168161905D01*
X397752438Y-168161905D02*
X397800057Y-168114286D01*
X397800057Y-168114286D02*
X397942914Y-168019048D01*
X397942914Y-168019048D02*
X398133390Y-167971429D01*
X398133390Y-167971429D02*
X398514342Y-167971429D01*
X398514342Y-167971429D02*
X398609580Y-168019048D01*
X398609580Y-168019048D02*
X398657200Y-168066667D01*
X398657200Y-168066667D02*
X398704819Y-168161905D01*
X398704819Y-168161905D02*
X398704819Y-168352381D01*
X398704819Y-168352381D02*
X398657200Y-168447619D01*
X398657200Y-168447619D02*
X398609580Y-168495238D01*
X398609580Y-168495238D02*
X398514342Y-168542857D01*
X398514342Y-168542857D02*
X398276247Y-168542857D01*
X398276247Y-168542857D02*
X398181009Y-168495238D01*
X398181009Y-168495238D02*
X398133390Y-168447619D01*
X398133390Y-168447619D02*
X398085771Y-168352381D01*
X398085771Y-168352381D02*
X398085771Y-168161905D01*
X398085771Y-168161905D02*
X398133390Y-168066667D01*
X398133390Y-168066667D02*
X398181009Y-168019048D01*
X398181009Y-168019048D02*
X398276247Y-167971429D01*
X344219047Y-208854819D02*
X344552380Y-208378628D01*
X344790475Y-208854819D02*
X344790475Y-207854819D01*
X344790475Y-207854819D02*
X344409523Y-207854819D01*
X344409523Y-207854819D02*
X344314285Y-207902438D01*
X344314285Y-207902438D02*
X344266666Y-207950057D01*
X344266666Y-207950057D02*
X344219047Y-208045295D01*
X344219047Y-208045295D02*
X344219047Y-208188152D01*
X344219047Y-208188152D02*
X344266666Y-208283390D01*
X344266666Y-208283390D02*
X344314285Y-208331009D01*
X344314285Y-208331009D02*
X344409523Y-208378628D01*
X344409523Y-208378628D02*
X344790475Y-208378628D01*
X343266666Y-208854819D02*
X343838094Y-208854819D01*
X343552380Y-208854819D02*
X343552380Y-207854819D01*
X343552380Y-207854819D02*
X343647618Y-207997676D01*
X343647618Y-207997676D02*
X343742856Y-208092914D01*
X343742856Y-208092914D02*
X343838094Y-208140533D01*
X342314285Y-208854819D02*
X342885713Y-208854819D01*
X342599999Y-208854819D02*
X342599999Y-207854819D01*
X342599999Y-207854819D02*
X342695237Y-207997676D01*
X342695237Y-207997676D02*
X342790475Y-208092914D01*
X342790475Y-208092914D02*
X342885713Y-208140533D01*
X341457142Y-207854819D02*
X341647618Y-207854819D01*
X341647618Y-207854819D02*
X341742856Y-207902438D01*
X341742856Y-207902438D02*
X341790475Y-207950057D01*
X341790475Y-207950057D02*
X341885713Y-208092914D01*
X341885713Y-208092914D02*
X341933332Y-208283390D01*
X341933332Y-208283390D02*
X341933332Y-208664342D01*
X341933332Y-208664342D02*
X341885713Y-208759580D01*
X341885713Y-208759580D02*
X341838094Y-208807200D01*
X341838094Y-208807200D02*
X341742856Y-208854819D01*
X341742856Y-208854819D02*
X341552380Y-208854819D01*
X341552380Y-208854819D02*
X341457142Y-208807200D01*
X341457142Y-208807200D02*
X341409523Y-208759580D01*
X341409523Y-208759580D02*
X341361904Y-208664342D01*
X341361904Y-208664342D02*
X341361904Y-208426247D01*
X341361904Y-208426247D02*
X341409523Y-208331009D01*
X341409523Y-208331009D02*
X341457142Y-208283390D01*
X341457142Y-208283390D02*
X341552380Y-208235771D01*
X341552380Y-208235771D02*
X341742856Y-208235771D01*
X341742856Y-208235771D02*
X341838094Y-208283390D01*
X341838094Y-208283390D02*
X341885713Y-208331009D01*
X341885713Y-208331009D02*
X341933332Y-208426247D01*
X274519047Y-204454819D02*
X274852380Y-203978628D01*
X275090475Y-204454819D02*
X275090475Y-203454819D01*
X275090475Y-203454819D02*
X274709523Y-203454819D01*
X274709523Y-203454819D02*
X274614285Y-203502438D01*
X274614285Y-203502438D02*
X274566666Y-203550057D01*
X274566666Y-203550057D02*
X274519047Y-203645295D01*
X274519047Y-203645295D02*
X274519047Y-203788152D01*
X274519047Y-203788152D02*
X274566666Y-203883390D01*
X274566666Y-203883390D02*
X274614285Y-203931009D01*
X274614285Y-203931009D02*
X274709523Y-203978628D01*
X274709523Y-203978628D02*
X275090475Y-203978628D01*
X273566666Y-204454819D02*
X274138094Y-204454819D01*
X273852380Y-204454819D02*
X273852380Y-203454819D01*
X273852380Y-203454819D02*
X273947618Y-203597676D01*
X273947618Y-203597676D02*
X274042856Y-203692914D01*
X274042856Y-203692914D02*
X274138094Y-203740533D01*
X272614285Y-204454819D02*
X273185713Y-204454819D01*
X272899999Y-204454819D02*
X272899999Y-203454819D01*
X272899999Y-203454819D02*
X272995237Y-203597676D01*
X272995237Y-203597676D02*
X273090475Y-203692914D01*
X273090475Y-203692914D02*
X273185713Y-203740533D01*
X271661904Y-204454819D02*
X272233332Y-204454819D01*
X271947618Y-204454819D02*
X271947618Y-203454819D01*
X271947618Y-203454819D02*
X272042856Y-203597676D01*
X272042856Y-203597676D02*
X272138094Y-203692914D01*
X272138094Y-203692914D02*
X272233332Y-203740533D01*
X374238094Y-180654819D02*
X373666666Y-180654819D01*
X373952380Y-181654819D02*
X373952380Y-180654819D01*
X373428570Y-180654819D02*
X372809523Y-180654819D01*
X372809523Y-180654819D02*
X373142856Y-181035771D01*
X373142856Y-181035771D02*
X372999999Y-181035771D01*
X372999999Y-181035771D02*
X372904761Y-181083390D01*
X372904761Y-181083390D02*
X372857142Y-181131009D01*
X372857142Y-181131009D02*
X372809523Y-181226247D01*
X372809523Y-181226247D02*
X372809523Y-181464342D01*
X372809523Y-181464342D02*
X372857142Y-181559580D01*
X372857142Y-181559580D02*
X372904761Y-181607200D01*
X372904761Y-181607200D02*
X372999999Y-181654819D01*
X372999999Y-181654819D02*
X373285713Y-181654819D01*
X373285713Y-181654819D02*
X373380951Y-181607200D01*
X373380951Y-181607200D02*
X373428570Y-181559580D01*
X371857142Y-181654819D02*
X372428570Y-181654819D01*
X372142856Y-181654819D02*
X372142856Y-180654819D01*
X372142856Y-180654819D02*
X372238094Y-180797676D01*
X372238094Y-180797676D02*
X372333332Y-180892914D01*
X372333332Y-180892914D02*
X372428570Y-180940533D01*
X369704819Y-226261905D02*
X369704819Y-226833333D01*
X370704819Y-226547619D02*
X369704819Y-226547619D01*
X369800057Y-227119048D02*
X369752438Y-227166667D01*
X369752438Y-227166667D02*
X369704819Y-227261905D01*
X369704819Y-227261905D02*
X369704819Y-227500000D01*
X369704819Y-227500000D02*
X369752438Y-227595238D01*
X369752438Y-227595238D02*
X369800057Y-227642857D01*
X369800057Y-227642857D02*
X369895295Y-227690476D01*
X369895295Y-227690476D02*
X369990533Y-227690476D01*
X369990533Y-227690476D02*
X370133390Y-227642857D01*
X370133390Y-227642857D02*
X370704819Y-227071429D01*
X370704819Y-227071429D02*
X370704819Y-227690476D01*
X369704819Y-228023810D02*
X369704819Y-228642857D01*
X369704819Y-228642857D02*
X370085771Y-228309524D01*
X370085771Y-228309524D02*
X370085771Y-228452381D01*
X370085771Y-228452381D02*
X370133390Y-228547619D01*
X370133390Y-228547619D02*
X370181009Y-228595238D01*
X370181009Y-228595238D02*
X370276247Y-228642857D01*
X370276247Y-228642857D02*
X370514342Y-228642857D01*
X370514342Y-228642857D02*
X370609580Y-228595238D01*
X370609580Y-228595238D02*
X370657200Y-228547619D01*
X370657200Y-228547619D02*
X370704819Y-228452381D01*
X370704819Y-228452381D02*
X370704819Y-228166667D01*
X370704819Y-228166667D02*
X370657200Y-228071429D01*
X370657200Y-228071429D02*
X370609580Y-228023810D01*
X337204819Y-255738095D02*
X337204819Y-256309523D01*
X338204819Y-256023809D02*
X337204819Y-256023809D01*
X338204819Y-257166666D02*
X338204819Y-256595238D01*
X338204819Y-256880952D02*
X337204819Y-256880952D01*
X337204819Y-256880952D02*
X337347676Y-256785714D01*
X337347676Y-256785714D02*
X337442914Y-256690476D01*
X337442914Y-256690476D02*
X337490533Y-256595238D01*
X328450057Y-205328571D02*
X328402438Y-205233333D01*
X328402438Y-205233333D02*
X328307200Y-205138095D01*
X328307200Y-205138095D02*
X328164342Y-204995238D01*
X328164342Y-204995238D02*
X328116723Y-204900000D01*
X328116723Y-204900000D02*
X328116723Y-204804762D01*
X328354819Y-204852381D02*
X328307200Y-204757143D01*
X328307200Y-204757143D02*
X328211961Y-204661905D01*
X328211961Y-204661905D02*
X328021485Y-204614286D01*
X328021485Y-204614286D02*
X327688152Y-204614286D01*
X327688152Y-204614286D02*
X327497676Y-204661905D01*
X327497676Y-204661905D02*
X327402438Y-204757143D01*
X327402438Y-204757143D02*
X327354819Y-204852381D01*
X327354819Y-204852381D02*
X327354819Y-205042857D01*
X327354819Y-205042857D02*
X327402438Y-205138095D01*
X327402438Y-205138095D02*
X327497676Y-205233333D01*
X327497676Y-205233333D02*
X327688152Y-205280952D01*
X327688152Y-205280952D02*
X328021485Y-205280952D01*
X328021485Y-205280952D02*
X328211961Y-205233333D01*
X328211961Y-205233333D02*
X328307200Y-205138095D01*
X328307200Y-205138095D02*
X328354819Y-205042857D01*
X328354819Y-205042857D02*
X328354819Y-204852381D01*
X327354819Y-205614286D02*
X327354819Y-206233333D01*
X327354819Y-206233333D02*
X327735771Y-205900000D01*
X327735771Y-205900000D02*
X327735771Y-206042857D01*
X327735771Y-206042857D02*
X327783390Y-206138095D01*
X327783390Y-206138095D02*
X327831009Y-206185714D01*
X327831009Y-206185714D02*
X327926247Y-206233333D01*
X327926247Y-206233333D02*
X328164342Y-206233333D01*
X328164342Y-206233333D02*
X328259580Y-206185714D01*
X328259580Y-206185714D02*
X328307200Y-206138095D01*
X328307200Y-206138095D02*
X328354819Y-206042857D01*
X328354819Y-206042857D02*
X328354819Y-205757143D01*
X328354819Y-205757143D02*
X328307200Y-205661905D01*
X328307200Y-205661905D02*
X328259580Y-205614286D01*
X327354819Y-206566667D02*
X327354819Y-207185714D01*
X327354819Y-207185714D02*
X327735771Y-206852381D01*
X327735771Y-206852381D02*
X327735771Y-206995238D01*
X327735771Y-206995238D02*
X327783390Y-207090476D01*
X327783390Y-207090476D02*
X327831009Y-207138095D01*
X327831009Y-207138095D02*
X327926247Y-207185714D01*
X327926247Y-207185714D02*
X328164342Y-207185714D01*
X328164342Y-207185714D02*
X328259580Y-207138095D01*
X328259580Y-207138095D02*
X328307200Y-207090476D01*
X328307200Y-207090476D02*
X328354819Y-206995238D01*
X328354819Y-206995238D02*
X328354819Y-206709524D01*
X328354819Y-206709524D02*
X328307200Y-206614286D01*
X328307200Y-206614286D02*
X328259580Y-206566667D01*
X290042857Y-205959580D02*
X290090476Y-206007200D01*
X290090476Y-206007200D02*
X290233333Y-206054819D01*
X290233333Y-206054819D02*
X290328571Y-206054819D01*
X290328571Y-206054819D02*
X290471428Y-206007200D01*
X290471428Y-206007200D02*
X290566666Y-205911961D01*
X290566666Y-205911961D02*
X290614285Y-205816723D01*
X290614285Y-205816723D02*
X290661904Y-205626247D01*
X290661904Y-205626247D02*
X290661904Y-205483390D01*
X290661904Y-205483390D02*
X290614285Y-205292914D01*
X290614285Y-205292914D02*
X290566666Y-205197676D01*
X290566666Y-205197676D02*
X290471428Y-205102438D01*
X290471428Y-205102438D02*
X290328571Y-205054819D01*
X290328571Y-205054819D02*
X290233333Y-205054819D01*
X290233333Y-205054819D02*
X290090476Y-205102438D01*
X290090476Y-205102438D02*
X290042857Y-205150057D01*
X289709523Y-205054819D02*
X289090476Y-205054819D01*
X289090476Y-205054819D02*
X289423809Y-205435771D01*
X289423809Y-205435771D02*
X289280952Y-205435771D01*
X289280952Y-205435771D02*
X289185714Y-205483390D01*
X289185714Y-205483390D02*
X289138095Y-205531009D01*
X289138095Y-205531009D02*
X289090476Y-205626247D01*
X289090476Y-205626247D02*
X289090476Y-205864342D01*
X289090476Y-205864342D02*
X289138095Y-205959580D01*
X289138095Y-205959580D02*
X289185714Y-206007200D01*
X289185714Y-206007200D02*
X289280952Y-206054819D01*
X289280952Y-206054819D02*
X289566666Y-206054819D01*
X289566666Y-206054819D02*
X289661904Y-206007200D01*
X289661904Y-206007200D02*
X289709523Y-205959580D01*
X288185714Y-205054819D02*
X288661904Y-205054819D01*
X288661904Y-205054819D02*
X288709523Y-205531009D01*
X288709523Y-205531009D02*
X288661904Y-205483390D01*
X288661904Y-205483390D02*
X288566666Y-205435771D01*
X288566666Y-205435771D02*
X288328571Y-205435771D01*
X288328571Y-205435771D02*
X288233333Y-205483390D01*
X288233333Y-205483390D02*
X288185714Y-205531009D01*
X288185714Y-205531009D02*
X288138095Y-205626247D01*
X288138095Y-205626247D02*
X288138095Y-205864342D01*
X288138095Y-205864342D02*
X288185714Y-205959580D01*
X288185714Y-205959580D02*
X288233333Y-206007200D01*
X288233333Y-206007200D02*
X288328571Y-206054819D01*
X288328571Y-206054819D02*
X288566666Y-206054819D01*
X288566666Y-206054819D02*
X288661904Y-206007200D01*
X288661904Y-206007200D02*
X288709523Y-205959580D01*
X275419047Y-212554819D02*
X275752380Y-212078628D01*
X275990475Y-212554819D02*
X275990475Y-211554819D01*
X275990475Y-211554819D02*
X275609523Y-211554819D01*
X275609523Y-211554819D02*
X275514285Y-211602438D01*
X275514285Y-211602438D02*
X275466666Y-211650057D01*
X275466666Y-211650057D02*
X275419047Y-211745295D01*
X275419047Y-211745295D02*
X275419047Y-211888152D01*
X275419047Y-211888152D02*
X275466666Y-211983390D01*
X275466666Y-211983390D02*
X275514285Y-212031009D01*
X275514285Y-212031009D02*
X275609523Y-212078628D01*
X275609523Y-212078628D02*
X275990475Y-212078628D01*
X274466666Y-212554819D02*
X275038094Y-212554819D01*
X274752380Y-212554819D02*
X274752380Y-211554819D01*
X274752380Y-211554819D02*
X274847618Y-211697676D01*
X274847618Y-211697676D02*
X274942856Y-211792914D01*
X274942856Y-211792914D02*
X275038094Y-211840533D01*
X273847618Y-211554819D02*
X273752380Y-211554819D01*
X273752380Y-211554819D02*
X273657142Y-211602438D01*
X273657142Y-211602438D02*
X273609523Y-211650057D01*
X273609523Y-211650057D02*
X273561904Y-211745295D01*
X273561904Y-211745295D02*
X273514285Y-211935771D01*
X273514285Y-211935771D02*
X273514285Y-212173866D01*
X273514285Y-212173866D02*
X273561904Y-212364342D01*
X273561904Y-212364342D02*
X273609523Y-212459580D01*
X273609523Y-212459580D02*
X273657142Y-212507200D01*
X273657142Y-212507200D02*
X273752380Y-212554819D01*
X273752380Y-212554819D02*
X273847618Y-212554819D01*
X273847618Y-212554819D02*
X273942856Y-212507200D01*
X273942856Y-212507200D02*
X273990475Y-212459580D01*
X273990475Y-212459580D02*
X274038094Y-212364342D01*
X274038094Y-212364342D02*
X274085713Y-212173866D01*
X274085713Y-212173866D02*
X274085713Y-211935771D01*
X274085713Y-211935771D02*
X274038094Y-211745295D01*
X274038094Y-211745295D02*
X273990475Y-211650057D01*
X273990475Y-211650057D02*
X273942856Y-211602438D01*
X273942856Y-211602438D02*
X273847618Y-211554819D01*
X273038094Y-212554819D02*
X272847618Y-212554819D01*
X272847618Y-212554819D02*
X272752380Y-212507200D01*
X272752380Y-212507200D02*
X272704761Y-212459580D01*
X272704761Y-212459580D02*
X272609523Y-212316723D01*
X272609523Y-212316723D02*
X272561904Y-212126247D01*
X272561904Y-212126247D02*
X272561904Y-211745295D01*
X272561904Y-211745295D02*
X272609523Y-211650057D01*
X272609523Y-211650057D02*
X272657142Y-211602438D01*
X272657142Y-211602438D02*
X272752380Y-211554819D01*
X272752380Y-211554819D02*
X272942856Y-211554819D01*
X272942856Y-211554819D02*
X273038094Y-211602438D01*
X273038094Y-211602438D02*
X273085713Y-211650057D01*
X273085713Y-211650057D02*
X273133332Y-211745295D01*
X273133332Y-211745295D02*
X273133332Y-211983390D01*
X273133332Y-211983390D02*
X273085713Y-212078628D01*
X273085713Y-212078628D02*
X273038094Y-212126247D01*
X273038094Y-212126247D02*
X272942856Y-212173866D01*
X272942856Y-212173866D02*
X272752380Y-212173866D01*
X272752380Y-212173866D02*
X272657142Y-212126247D01*
X272657142Y-212126247D02*
X272609523Y-212078628D01*
X272609523Y-212078628D02*
X272561904Y-211983390D01*
X343042857Y-203059580D02*
X343090476Y-203107200D01*
X343090476Y-203107200D02*
X343233333Y-203154819D01*
X343233333Y-203154819D02*
X343328571Y-203154819D01*
X343328571Y-203154819D02*
X343471428Y-203107200D01*
X343471428Y-203107200D02*
X343566666Y-203011961D01*
X343566666Y-203011961D02*
X343614285Y-202916723D01*
X343614285Y-202916723D02*
X343661904Y-202726247D01*
X343661904Y-202726247D02*
X343661904Y-202583390D01*
X343661904Y-202583390D02*
X343614285Y-202392914D01*
X343614285Y-202392914D02*
X343566666Y-202297676D01*
X343566666Y-202297676D02*
X343471428Y-202202438D01*
X343471428Y-202202438D02*
X343328571Y-202154819D01*
X343328571Y-202154819D02*
X343233333Y-202154819D01*
X343233333Y-202154819D02*
X343090476Y-202202438D01*
X343090476Y-202202438D02*
X343042857Y-202250057D01*
X342709523Y-202154819D02*
X342090476Y-202154819D01*
X342090476Y-202154819D02*
X342423809Y-202535771D01*
X342423809Y-202535771D02*
X342280952Y-202535771D01*
X342280952Y-202535771D02*
X342185714Y-202583390D01*
X342185714Y-202583390D02*
X342138095Y-202631009D01*
X342138095Y-202631009D02*
X342090476Y-202726247D01*
X342090476Y-202726247D02*
X342090476Y-202964342D01*
X342090476Y-202964342D02*
X342138095Y-203059580D01*
X342138095Y-203059580D02*
X342185714Y-203107200D01*
X342185714Y-203107200D02*
X342280952Y-203154819D01*
X342280952Y-203154819D02*
X342566666Y-203154819D01*
X342566666Y-203154819D02*
X342661904Y-203107200D01*
X342661904Y-203107200D02*
X342709523Y-203059580D01*
X341233333Y-202154819D02*
X341423809Y-202154819D01*
X341423809Y-202154819D02*
X341519047Y-202202438D01*
X341519047Y-202202438D02*
X341566666Y-202250057D01*
X341566666Y-202250057D02*
X341661904Y-202392914D01*
X341661904Y-202392914D02*
X341709523Y-202583390D01*
X341709523Y-202583390D02*
X341709523Y-202964342D01*
X341709523Y-202964342D02*
X341661904Y-203059580D01*
X341661904Y-203059580D02*
X341614285Y-203107200D01*
X341614285Y-203107200D02*
X341519047Y-203154819D01*
X341519047Y-203154819D02*
X341328571Y-203154819D01*
X341328571Y-203154819D02*
X341233333Y-203107200D01*
X341233333Y-203107200D02*
X341185714Y-203059580D01*
X341185714Y-203059580D02*
X341138095Y-202964342D01*
X341138095Y-202964342D02*
X341138095Y-202726247D01*
X341138095Y-202726247D02*
X341185714Y-202631009D01*
X341185714Y-202631009D02*
X341233333Y-202583390D01*
X341233333Y-202583390D02*
X341328571Y-202535771D01*
X341328571Y-202535771D02*
X341519047Y-202535771D01*
X341519047Y-202535771D02*
X341614285Y-202583390D01*
X341614285Y-202583390D02*
X341661904Y-202631009D01*
X341661904Y-202631009D02*
X341709523Y-202726247D01*
X372254819Y-226261905D02*
X372254819Y-226833333D01*
X373254819Y-226547619D02*
X372254819Y-226547619D01*
X372350057Y-227119048D02*
X372302438Y-227166667D01*
X372302438Y-227166667D02*
X372254819Y-227261905D01*
X372254819Y-227261905D02*
X372254819Y-227500000D01*
X372254819Y-227500000D02*
X372302438Y-227595238D01*
X372302438Y-227595238D02*
X372350057Y-227642857D01*
X372350057Y-227642857D02*
X372445295Y-227690476D01*
X372445295Y-227690476D02*
X372540533Y-227690476D01*
X372540533Y-227690476D02*
X372683390Y-227642857D01*
X372683390Y-227642857D02*
X373254819Y-227071429D01*
X373254819Y-227071429D02*
X373254819Y-227690476D01*
X372350057Y-228071429D02*
X372302438Y-228119048D01*
X372302438Y-228119048D02*
X372254819Y-228214286D01*
X372254819Y-228214286D02*
X372254819Y-228452381D01*
X372254819Y-228452381D02*
X372302438Y-228547619D01*
X372302438Y-228547619D02*
X372350057Y-228595238D01*
X372350057Y-228595238D02*
X372445295Y-228642857D01*
X372445295Y-228642857D02*
X372540533Y-228642857D01*
X372540533Y-228642857D02*
X372683390Y-228595238D01*
X372683390Y-228595238D02*
X373254819Y-228023810D01*
X373254819Y-228023810D02*
X373254819Y-228642857D01*
X377204819Y-226261905D02*
X377204819Y-226833333D01*
X378204819Y-226547619D02*
X377204819Y-226547619D01*
X377300057Y-227119048D02*
X377252438Y-227166667D01*
X377252438Y-227166667D02*
X377204819Y-227261905D01*
X377204819Y-227261905D02*
X377204819Y-227500000D01*
X377204819Y-227500000D02*
X377252438Y-227595238D01*
X377252438Y-227595238D02*
X377300057Y-227642857D01*
X377300057Y-227642857D02*
X377395295Y-227690476D01*
X377395295Y-227690476D02*
X377490533Y-227690476D01*
X377490533Y-227690476D02*
X377633390Y-227642857D01*
X377633390Y-227642857D02*
X378204819Y-227071429D01*
X378204819Y-227071429D02*
X378204819Y-227690476D01*
X377204819Y-228309524D02*
X377204819Y-228404762D01*
X377204819Y-228404762D02*
X377252438Y-228500000D01*
X377252438Y-228500000D02*
X377300057Y-228547619D01*
X377300057Y-228547619D02*
X377395295Y-228595238D01*
X377395295Y-228595238D02*
X377585771Y-228642857D01*
X377585771Y-228642857D02*
X377823866Y-228642857D01*
X377823866Y-228642857D02*
X378014342Y-228595238D01*
X378014342Y-228595238D02*
X378109580Y-228547619D01*
X378109580Y-228547619D02*
X378157200Y-228500000D01*
X378157200Y-228500000D02*
X378204819Y-228404762D01*
X378204819Y-228404762D02*
X378204819Y-228309524D01*
X378204819Y-228309524D02*
X378157200Y-228214286D01*
X378157200Y-228214286D02*
X378109580Y-228166667D01*
X378109580Y-228166667D02*
X378014342Y-228119048D01*
X378014342Y-228119048D02*
X377823866Y-228071429D01*
X377823866Y-228071429D02*
X377585771Y-228071429D01*
X377585771Y-228071429D02*
X377395295Y-228119048D01*
X377395295Y-228119048D02*
X377300057Y-228166667D01*
X377300057Y-228166667D02*
X377252438Y-228214286D01*
X377252438Y-228214286D02*
X377204819Y-228309524D01*
X339704819Y-255738095D02*
X339704819Y-256309523D01*
X340704819Y-256023809D02*
X339704819Y-256023809D01*
X339800057Y-256595238D02*
X339752438Y-256642857D01*
X339752438Y-256642857D02*
X339704819Y-256738095D01*
X339704819Y-256738095D02*
X339704819Y-256976190D01*
X339704819Y-256976190D02*
X339752438Y-257071428D01*
X339752438Y-257071428D02*
X339800057Y-257119047D01*
X339800057Y-257119047D02*
X339895295Y-257166666D01*
X339895295Y-257166666D02*
X339990533Y-257166666D01*
X339990533Y-257166666D02*
X340133390Y-257119047D01*
X340133390Y-257119047D02*
X340704819Y-256547619D01*
X340704819Y-256547619D02*
X340704819Y-257166666D01*
X341954819Y-255738095D02*
X341954819Y-256309523D01*
X342954819Y-256023809D02*
X341954819Y-256023809D01*
X341954819Y-256547619D02*
X341954819Y-257166666D01*
X341954819Y-257166666D02*
X342335771Y-256833333D01*
X342335771Y-256833333D02*
X342335771Y-256976190D01*
X342335771Y-256976190D02*
X342383390Y-257071428D01*
X342383390Y-257071428D02*
X342431009Y-257119047D01*
X342431009Y-257119047D02*
X342526247Y-257166666D01*
X342526247Y-257166666D02*
X342764342Y-257166666D01*
X342764342Y-257166666D02*
X342859580Y-257119047D01*
X342859580Y-257119047D02*
X342907200Y-257071428D01*
X342907200Y-257071428D02*
X342954819Y-256976190D01*
X342954819Y-256976190D02*
X342954819Y-256690476D01*
X342954819Y-256690476D02*
X342907200Y-256595238D01*
X342907200Y-256595238D02*
X342859580Y-256547619D01*
X234206819Y-254961905D02*
X234206819Y-255533333D01*
X235206819Y-255247619D02*
X234206819Y-255247619D01*
X235206819Y-256390476D02*
X235206819Y-255819048D01*
X235206819Y-256104762D02*
X234206819Y-256104762D01*
X234206819Y-256104762D02*
X234349676Y-256009524D01*
X234349676Y-256009524D02*
X234444914Y-255914286D01*
X234444914Y-255914286D02*
X234492533Y-255819048D01*
X234206819Y-257009524D02*
X234206819Y-257104762D01*
X234206819Y-257104762D02*
X234254438Y-257200000D01*
X234254438Y-257200000D02*
X234302057Y-257247619D01*
X234302057Y-257247619D02*
X234397295Y-257295238D01*
X234397295Y-257295238D02*
X234587771Y-257342857D01*
X234587771Y-257342857D02*
X234825866Y-257342857D01*
X234825866Y-257342857D02*
X235016342Y-257295238D01*
X235016342Y-257295238D02*
X235111580Y-257247619D01*
X235111580Y-257247619D02*
X235159200Y-257200000D01*
X235159200Y-257200000D02*
X235206819Y-257104762D01*
X235206819Y-257104762D02*
X235206819Y-257009524D01*
X235206819Y-257009524D02*
X235159200Y-256914286D01*
X235159200Y-256914286D02*
X235111580Y-256866667D01*
X235111580Y-256866667D02*
X235016342Y-256819048D01*
X235016342Y-256819048D02*
X234825866Y-256771429D01*
X234825866Y-256771429D02*
X234587771Y-256771429D01*
X234587771Y-256771429D02*
X234397295Y-256819048D01*
X234397295Y-256819048D02*
X234302057Y-256866667D01*
X234302057Y-256866667D02*
X234254438Y-256914286D01*
X234254438Y-256914286D02*
X234206819Y-257009524D01*
X374238094Y-188454819D02*
X373666666Y-188454819D01*
X373952380Y-189454819D02*
X373952380Y-188454819D01*
X373380951Y-188550057D02*
X373333332Y-188502438D01*
X373333332Y-188502438D02*
X373238094Y-188454819D01*
X373238094Y-188454819D02*
X372999999Y-188454819D01*
X372999999Y-188454819D02*
X372904761Y-188502438D01*
X372904761Y-188502438D02*
X372857142Y-188550057D01*
X372857142Y-188550057D02*
X372809523Y-188645295D01*
X372809523Y-188645295D02*
X372809523Y-188740533D01*
X372809523Y-188740533D02*
X372857142Y-188883390D01*
X372857142Y-188883390D02*
X373428570Y-189454819D01*
X373428570Y-189454819D02*
X372809523Y-189454819D01*
X372333332Y-189454819D02*
X372142856Y-189454819D01*
X372142856Y-189454819D02*
X372047618Y-189407200D01*
X372047618Y-189407200D02*
X371999999Y-189359580D01*
X371999999Y-189359580D02*
X371904761Y-189216723D01*
X371904761Y-189216723D02*
X371857142Y-189026247D01*
X371857142Y-189026247D02*
X371857142Y-188645295D01*
X371857142Y-188645295D02*
X371904761Y-188550057D01*
X371904761Y-188550057D02*
X371952380Y-188502438D01*
X371952380Y-188502438D02*
X372047618Y-188454819D01*
X372047618Y-188454819D02*
X372238094Y-188454819D01*
X372238094Y-188454819D02*
X372333332Y-188502438D01*
X372333332Y-188502438D02*
X372380951Y-188550057D01*
X372380951Y-188550057D02*
X372428570Y-188645295D01*
X372428570Y-188645295D02*
X372428570Y-188883390D01*
X372428570Y-188883390D02*
X372380951Y-188978628D01*
X372380951Y-188978628D02*
X372333332Y-189026247D01*
X372333332Y-189026247D02*
X372238094Y-189073866D01*
X372238094Y-189073866D02*
X372047618Y-189073866D01*
X372047618Y-189073866D02*
X371952380Y-189026247D01*
X371952380Y-189026247D02*
X371904761Y-188978628D01*
X371904761Y-188978628D02*
X371857142Y-188883390D01*
X379704819Y-226261905D02*
X379704819Y-226833333D01*
X380704819Y-226547619D02*
X379704819Y-226547619D01*
X380704819Y-227690476D02*
X380704819Y-227119048D01*
X380704819Y-227404762D02*
X379704819Y-227404762D01*
X379704819Y-227404762D02*
X379847676Y-227309524D01*
X379847676Y-227309524D02*
X379942914Y-227214286D01*
X379942914Y-227214286D02*
X379990533Y-227119048D01*
X380704819Y-228166667D02*
X380704819Y-228357143D01*
X380704819Y-228357143D02*
X380657200Y-228452381D01*
X380657200Y-228452381D02*
X380609580Y-228500000D01*
X380609580Y-228500000D02*
X380466723Y-228595238D01*
X380466723Y-228595238D02*
X380276247Y-228642857D01*
X380276247Y-228642857D02*
X379895295Y-228642857D01*
X379895295Y-228642857D02*
X379800057Y-228595238D01*
X379800057Y-228595238D02*
X379752438Y-228547619D01*
X379752438Y-228547619D02*
X379704819Y-228452381D01*
X379704819Y-228452381D02*
X379704819Y-228261905D01*
X379704819Y-228261905D02*
X379752438Y-228166667D01*
X379752438Y-228166667D02*
X379800057Y-228119048D01*
X379800057Y-228119048D02*
X379895295Y-228071429D01*
X379895295Y-228071429D02*
X380133390Y-228071429D01*
X380133390Y-228071429D02*
X380228628Y-228119048D01*
X380228628Y-228119048D02*
X380276247Y-228166667D01*
X380276247Y-228166667D02*
X380323866Y-228261905D01*
X380323866Y-228261905D02*
X380323866Y-228452381D01*
X380323866Y-228452381D02*
X380276247Y-228547619D01*
X380276247Y-228547619D02*
X380228628Y-228595238D01*
X380228628Y-228595238D02*
X380133390Y-228642857D01*
D11*
X331925714Y-222995270D02*
X332046666Y-222934794D01*
X332046666Y-222934794D02*
X332167619Y-222813842D01*
X332167619Y-222813842D02*
X332349047Y-222632413D01*
X332349047Y-222632413D02*
X332470000Y-222571937D01*
X332470000Y-222571937D02*
X332590952Y-222571937D01*
X332530476Y-222874318D02*
X332651428Y-222813842D01*
X332651428Y-222813842D02*
X332772381Y-222692889D01*
X332772381Y-222692889D02*
X332832857Y-222450984D01*
X332832857Y-222450984D02*
X332832857Y-222027651D01*
X332832857Y-222027651D02*
X332772381Y-221785746D01*
X332772381Y-221785746D02*
X332651428Y-221664794D01*
X332651428Y-221664794D02*
X332530476Y-221604318D01*
X332530476Y-221604318D02*
X332288571Y-221604318D01*
X332288571Y-221604318D02*
X332167619Y-221664794D01*
X332167619Y-221664794D02*
X332046666Y-221785746D01*
X332046666Y-221785746D02*
X331986190Y-222027651D01*
X331986190Y-222027651D02*
X331986190Y-222450984D01*
X331986190Y-222450984D02*
X332046666Y-222692889D01*
X332046666Y-222692889D02*
X332167619Y-222813842D01*
X332167619Y-222813842D02*
X332288571Y-222874318D01*
X332288571Y-222874318D02*
X332530476Y-222874318D01*
X331562857Y-221604318D02*
X330776666Y-221604318D01*
X330776666Y-221604318D02*
X331200000Y-222088127D01*
X331200000Y-222088127D02*
X331018571Y-222088127D01*
X331018571Y-222088127D02*
X330897619Y-222148603D01*
X330897619Y-222148603D02*
X330837143Y-222209080D01*
X330837143Y-222209080D02*
X330776666Y-222330032D01*
X330776666Y-222330032D02*
X330776666Y-222632413D01*
X330776666Y-222632413D02*
X330837143Y-222753365D01*
X330837143Y-222753365D02*
X330897619Y-222813842D01*
X330897619Y-222813842D02*
X331018571Y-222874318D01*
X331018571Y-222874318D02*
X331381428Y-222874318D01*
X331381428Y-222874318D02*
X331502381Y-222813842D01*
X331502381Y-222813842D02*
X331562857Y-222753365D01*
X329688095Y-222027651D02*
X329688095Y-222874318D01*
X329990476Y-221543842D02*
X330292857Y-222450984D01*
X330292857Y-222450984D02*
X329506666Y-222450984D01*
D10*
X286619047Y-202754819D02*
X286952380Y-202278628D01*
X287190475Y-202754819D02*
X287190475Y-201754819D01*
X287190475Y-201754819D02*
X286809523Y-201754819D01*
X286809523Y-201754819D02*
X286714285Y-201802438D01*
X286714285Y-201802438D02*
X286666666Y-201850057D01*
X286666666Y-201850057D02*
X286619047Y-201945295D01*
X286619047Y-201945295D02*
X286619047Y-202088152D01*
X286619047Y-202088152D02*
X286666666Y-202183390D01*
X286666666Y-202183390D02*
X286714285Y-202231009D01*
X286714285Y-202231009D02*
X286809523Y-202278628D01*
X286809523Y-202278628D02*
X287190475Y-202278628D01*
X285666666Y-202754819D02*
X286238094Y-202754819D01*
X285952380Y-202754819D02*
X285952380Y-201754819D01*
X285952380Y-201754819D02*
X286047618Y-201897676D01*
X286047618Y-201897676D02*
X286142856Y-201992914D01*
X286142856Y-201992914D02*
X286238094Y-202040533D01*
X284714285Y-202754819D02*
X285285713Y-202754819D01*
X284999999Y-202754819D02*
X284999999Y-201754819D01*
X284999999Y-201754819D02*
X285095237Y-201897676D01*
X285095237Y-201897676D02*
X285190475Y-201992914D01*
X285190475Y-201992914D02*
X285285713Y-202040533D01*
X284333332Y-201850057D02*
X284285713Y-201802438D01*
X284285713Y-201802438D02*
X284190475Y-201754819D01*
X284190475Y-201754819D02*
X283952380Y-201754819D01*
X283952380Y-201754819D02*
X283857142Y-201802438D01*
X283857142Y-201802438D02*
X283809523Y-201850057D01*
X283809523Y-201850057D02*
X283761904Y-201945295D01*
X283761904Y-201945295D02*
X283761904Y-202040533D01*
X283761904Y-202040533D02*
X283809523Y-202183390D01*
X283809523Y-202183390D02*
X284380951Y-202754819D01*
X284380951Y-202754819D02*
X283761904Y-202754819D01*
X360838094Y-206254819D02*
X360266666Y-206254819D01*
X360552380Y-207254819D02*
X360552380Y-206254819D01*
X360028570Y-206254819D02*
X359409523Y-206254819D01*
X359409523Y-206254819D02*
X359742856Y-206635771D01*
X359742856Y-206635771D02*
X359599999Y-206635771D01*
X359599999Y-206635771D02*
X359504761Y-206683390D01*
X359504761Y-206683390D02*
X359457142Y-206731009D01*
X359457142Y-206731009D02*
X359409523Y-206826247D01*
X359409523Y-206826247D02*
X359409523Y-207064342D01*
X359409523Y-207064342D02*
X359457142Y-207159580D01*
X359457142Y-207159580D02*
X359504761Y-207207200D01*
X359504761Y-207207200D02*
X359599999Y-207254819D01*
X359599999Y-207254819D02*
X359885713Y-207254819D01*
X359885713Y-207254819D02*
X359980951Y-207207200D01*
X359980951Y-207207200D02*
X360028570Y-207159580D01*
X359076189Y-206254819D02*
X358457142Y-206254819D01*
X358457142Y-206254819D02*
X358790475Y-206635771D01*
X358790475Y-206635771D02*
X358647618Y-206635771D01*
X358647618Y-206635771D02*
X358552380Y-206683390D01*
X358552380Y-206683390D02*
X358504761Y-206731009D01*
X358504761Y-206731009D02*
X358457142Y-206826247D01*
X358457142Y-206826247D02*
X358457142Y-207064342D01*
X358457142Y-207064342D02*
X358504761Y-207159580D01*
X358504761Y-207159580D02*
X358552380Y-207207200D01*
X358552380Y-207207200D02*
X358647618Y-207254819D01*
X358647618Y-207254819D02*
X358933332Y-207254819D01*
X358933332Y-207254819D02*
X359028570Y-207207200D01*
X359028570Y-207207200D02*
X359076189Y-207159580D01*
X437204819Y-166361905D02*
X437204819Y-166933333D01*
X438204819Y-166647619D02*
X437204819Y-166647619D01*
X437204819Y-167171429D02*
X437204819Y-167790476D01*
X437204819Y-167790476D02*
X437585771Y-167457143D01*
X437585771Y-167457143D02*
X437585771Y-167600000D01*
X437585771Y-167600000D02*
X437633390Y-167695238D01*
X437633390Y-167695238D02*
X437681009Y-167742857D01*
X437681009Y-167742857D02*
X437776247Y-167790476D01*
X437776247Y-167790476D02*
X438014342Y-167790476D01*
X438014342Y-167790476D02*
X438109580Y-167742857D01*
X438109580Y-167742857D02*
X438157200Y-167695238D01*
X438157200Y-167695238D02*
X438204819Y-167600000D01*
X438204819Y-167600000D02*
X438204819Y-167314286D01*
X438204819Y-167314286D02*
X438157200Y-167219048D01*
X438157200Y-167219048D02*
X438109580Y-167171429D01*
X437633390Y-168361905D02*
X437585771Y-168266667D01*
X437585771Y-168266667D02*
X437538152Y-168219048D01*
X437538152Y-168219048D02*
X437442914Y-168171429D01*
X437442914Y-168171429D02*
X437395295Y-168171429D01*
X437395295Y-168171429D02*
X437300057Y-168219048D01*
X437300057Y-168219048D02*
X437252438Y-168266667D01*
X437252438Y-168266667D02*
X437204819Y-168361905D01*
X437204819Y-168361905D02*
X437204819Y-168552381D01*
X437204819Y-168552381D02*
X437252438Y-168647619D01*
X437252438Y-168647619D02*
X437300057Y-168695238D01*
X437300057Y-168695238D02*
X437395295Y-168742857D01*
X437395295Y-168742857D02*
X437442914Y-168742857D01*
X437442914Y-168742857D02*
X437538152Y-168695238D01*
X437538152Y-168695238D02*
X437585771Y-168647619D01*
X437585771Y-168647619D02*
X437633390Y-168552381D01*
X437633390Y-168552381D02*
X437633390Y-168361905D01*
X437633390Y-168361905D02*
X437681009Y-168266667D01*
X437681009Y-168266667D02*
X437728628Y-168219048D01*
X437728628Y-168219048D02*
X437823866Y-168171429D01*
X437823866Y-168171429D02*
X438014342Y-168171429D01*
X438014342Y-168171429D02*
X438109580Y-168219048D01*
X438109580Y-168219048D02*
X438157200Y-168266667D01*
X438157200Y-168266667D02*
X438204819Y-168361905D01*
X438204819Y-168361905D02*
X438204819Y-168552381D01*
X438204819Y-168552381D02*
X438157200Y-168647619D01*
X438157200Y-168647619D02*
X438109580Y-168695238D01*
X438109580Y-168695238D02*
X438014342Y-168742857D01*
X438014342Y-168742857D02*
X437823866Y-168742857D01*
X437823866Y-168742857D02*
X437728628Y-168695238D01*
X437728628Y-168695238D02*
X437681009Y-168647619D01*
X437681009Y-168647619D02*
X437633390Y-168552381D01*
X291019047Y-214354819D02*
X291352380Y-213878628D01*
X291590475Y-214354819D02*
X291590475Y-213354819D01*
X291590475Y-213354819D02*
X291209523Y-213354819D01*
X291209523Y-213354819D02*
X291114285Y-213402438D01*
X291114285Y-213402438D02*
X291066666Y-213450057D01*
X291066666Y-213450057D02*
X291019047Y-213545295D01*
X291019047Y-213545295D02*
X291019047Y-213688152D01*
X291019047Y-213688152D02*
X291066666Y-213783390D01*
X291066666Y-213783390D02*
X291114285Y-213831009D01*
X291114285Y-213831009D02*
X291209523Y-213878628D01*
X291209523Y-213878628D02*
X291590475Y-213878628D01*
X290066666Y-214354819D02*
X290638094Y-214354819D01*
X290352380Y-214354819D02*
X290352380Y-213354819D01*
X290352380Y-213354819D02*
X290447618Y-213497676D01*
X290447618Y-213497676D02*
X290542856Y-213592914D01*
X290542856Y-213592914D02*
X290638094Y-213640533D01*
X289114285Y-214354819D02*
X289685713Y-214354819D01*
X289399999Y-214354819D02*
X289399999Y-213354819D01*
X289399999Y-213354819D02*
X289495237Y-213497676D01*
X289495237Y-213497676D02*
X289590475Y-213592914D01*
X289590475Y-213592914D02*
X289685713Y-213640533D01*
X288780951Y-213354819D02*
X288161904Y-213354819D01*
X288161904Y-213354819D02*
X288495237Y-213735771D01*
X288495237Y-213735771D02*
X288352380Y-213735771D01*
X288352380Y-213735771D02*
X288257142Y-213783390D01*
X288257142Y-213783390D02*
X288209523Y-213831009D01*
X288209523Y-213831009D02*
X288161904Y-213926247D01*
X288161904Y-213926247D02*
X288161904Y-214164342D01*
X288161904Y-214164342D02*
X288209523Y-214259580D01*
X288209523Y-214259580D02*
X288257142Y-214307200D01*
X288257142Y-214307200D02*
X288352380Y-214354819D01*
X288352380Y-214354819D02*
X288638094Y-214354819D01*
X288638094Y-214354819D02*
X288733332Y-214307200D01*
X288733332Y-214307200D02*
X288780951Y-214259580D01*
X374538094Y-203754819D02*
X373966666Y-203754819D01*
X374252380Y-204754819D02*
X374252380Y-203754819D01*
X373680951Y-203850057D02*
X373633332Y-203802438D01*
X373633332Y-203802438D02*
X373538094Y-203754819D01*
X373538094Y-203754819D02*
X373299999Y-203754819D01*
X373299999Y-203754819D02*
X373204761Y-203802438D01*
X373204761Y-203802438D02*
X373157142Y-203850057D01*
X373157142Y-203850057D02*
X373109523Y-203945295D01*
X373109523Y-203945295D02*
X373109523Y-204040533D01*
X373109523Y-204040533D02*
X373157142Y-204183390D01*
X373157142Y-204183390D02*
X373728570Y-204754819D01*
X373728570Y-204754819D02*
X373109523Y-204754819D01*
X372776189Y-203754819D02*
X372109523Y-203754819D01*
X372109523Y-203754819D02*
X372538094Y-204754819D01*
X328142857Y-203559580D02*
X328190476Y-203607200D01*
X328190476Y-203607200D02*
X328333333Y-203654819D01*
X328333333Y-203654819D02*
X328428571Y-203654819D01*
X328428571Y-203654819D02*
X328571428Y-203607200D01*
X328571428Y-203607200D02*
X328666666Y-203511961D01*
X328666666Y-203511961D02*
X328714285Y-203416723D01*
X328714285Y-203416723D02*
X328761904Y-203226247D01*
X328761904Y-203226247D02*
X328761904Y-203083390D01*
X328761904Y-203083390D02*
X328714285Y-202892914D01*
X328714285Y-202892914D02*
X328666666Y-202797676D01*
X328666666Y-202797676D02*
X328571428Y-202702438D01*
X328571428Y-202702438D02*
X328428571Y-202654819D01*
X328428571Y-202654819D02*
X328333333Y-202654819D01*
X328333333Y-202654819D02*
X328190476Y-202702438D01*
X328190476Y-202702438D02*
X328142857Y-202750057D01*
X327809523Y-202654819D02*
X327190476Y-202654819D01*
X327190476Y-202654819D02*
X327523809Y-203035771D01*
X327523809Y-203035771D02*
X327380952Y-203035771D01*
X327380952Y-203035771D02*
X327285714Y-203083390D01*
X327285714Y-203083390D02*
X327238095Y-203131009D01*
X327238095Y-203131009D02*
X327190476Y-203226247D01*
X327190476Y-203226247D02*
X327190476Y-203464342D01*
X327190476Y-203464342D02*
X327238095Y-203559580D01*
X327238095Y-203559580D02*
X327285714Y-203607200D01*
X327285714Y-203607200D02*
X327380952Y-203654819D01*
X327380952Y-203654819D02*
X327666666Y-203654819D01*
X327666666Y-203654819D02*
X327761904Y-203607200D01*
X327761904Y-203607200D02*
X327809523Y-203559580D01*
X326857142Y-202654819D02*
X326190476Y-202654819D01*
X326190476Y-202654819D02*
X326619047Y-203654819D01*
X433204819Y-226461905D02*
X433204819Y-227033333D01*
X434204819Y-226747619D02*
X433204819Y-226747619D01*
X434204819Y-227890476D02*
X434204819Y-227319048D01*
X434204819Y-227604762D02*
X433204819Y-227604762D01*
X433204819Y-227604762D02*
X433347676Y-227509524D01*
X433347676Y-227509524D02*
X433442914Y-227414286D01*
X433442914Y-227414286D02*
X433490533Y-227319048D01*
X433204819Y-228795238D02*
X433204819Y-228319048D01*
X433204819Y-228319048D02*
X433681009Y-228271429D01*
X433681009Y-228271429D02*
X433633390Y-228319048D01*
X433633390Y-228319048D02*
X433585771Y-228414286D01*
X433585771Y-228414286D02*
X433585771Y-228652381D01*
X433585771Y-228652381D02*
X433633390Y-228747619D01*
X433633390Y-228747619D02*
X433681009Y-228795238D01*
X433681009Y-228795238D02*
X433776247Y-228842857D01*
X433776247Y-228842857D02*
X434014342Y-228842857D01*
X434014342Y-228842857D02*
X434109580Y-228795238D01*
X434109580Y-228795238D02*
X434157200Y-228747619D01*
X434157200Y-228747619D02*
X434204819Y-228652381D01*
X434204819Y-228652381D02*
X434204819Y-228414286D01*
X434204819Y-228414286D02*
X434157200Y-228319048D01*
X434157200Y-228319048D02*
X434109580Y-228271429D01*
D11*
X286725714Y-225595270D02*
X286846666Y-225534794D01*
X286846666Y-225534794D02*
X286967619Y-225413842D01*
X286967619Y-225413842D02*
X287149047Y-225232413D01*
X287149047Y-225232413D02*
X287270000Y-225171937D01*
X287270000Y-225171937D02*
X287390952Y-225171937D01*
X287330476Y-225474318D02*
X287451428Y-225413842D01*
X287451428Y-225413842D02*
X287572381Y-225292889D01*
X287572381Y-225292889D02*
X287632857Y-225050984D01*
X287632857Y-225050984D02*
X287632857Y-224627651D01*
X287632857Y-224627651D02*
X287572381Y-224385746D01*
X287572381Y-224385746D02*
X287451428Y-224264794D01*
X287451428Y-224264794D02*
X287330476Y-224204318D01*
X287330476Y-224204318D02*
X287088571Y-224204318D01*
X287088571Y-224204318D02*
X286967619Y-224264794D01*
X286967619Y-224264794D02*
X286846666Y-224385746D01*
X286846666Y-224385746D02*
X286786190Y-224627651D01*
X286786190Y-224627651D02*
X286786190Y-225050984D01*
X286786190Y-225050984D02*
X286846666Y-225292889D01*
X286846666Y-225292889D02*
X286967619Y-225413842D01*
X286967619Y-225413842D02*
X287088571Y-225474318D01*
X287088571Y-225474318D02*
X287330476Y-225474318D01*
X286362857Y-224204318D02*
X285576666Y-224204318D01*
X285576666Y-224204318D02*
X286000000Y-224688127D01*
X286000000Y-224688127D02*
X285818571Y-224688127D01*
X285818571Y-224688127D02*
X285697619Y-224748603D01*
X285697619Y-224748603D02*
X285637143Y-224809080D01*
X285637143Y-224809080D02*
X285576666Y-224930032D01*
X285576666Y-224930032D02*
X285576666Y-225232413D01*
X285576666Y-225232413D02*
X285637143Y-225353365D01*
X285637143Y-225353365D02*
X285697619Y-225413842D01*
X285697619Y-225413842D02*
X285818571Y-225474318D01*
X285818571Y-225474318D02*
X286181428Y-225474318D01*
X286181428Y-225474318D02*
X286302381Y-225413842D01*
X286302381Y-225413842D02*
X286362857Y-225353365D01*
X284790476Y-224204318D02*
X284669523Y-224204318D01*
X284669523Y-224204318D02*
X284548571Y-224264794D01*
X284548571Y-224264794D02*
X284488095Y-224325270D01*
X284488095Y-224325270D02*
X284427619Y-224446222D01*
X284427619Y-224446222D02*
X284367142Y-224688127D01*
X284367142Y-224688127D02*
X284367142Y-224990508D01*
X284367142Y-224990508D02*
X284427619Y-225232413D01*
X284427619Y-225232413D02*
X284488095Y-225353365D01*
X284488095Y-225353365D02*
X284548571Y-225413842D01*
X284548571Y-225413842D02*
X284669523Y-225474318D01*
X284669523Y-225474318D02*
X284790476Y-225474318D01*
X284790476Y-225474318D02*
X284911428Y-225413842D01*
X284911428Y-225413842D02*
X284971904Y-225353365D01*
X284971904Y-225353365D02*
X285032381Y-225232413D01*
X285032381Y-225232413D02*
X285092857Y-224990508D01*
X285092857Y-224990508D02*
X285092857Y-224688127D01*
X285092857Y-224688127D02*
X285032381Y-224446222D01*
X285032381Y-224446222D02*
X284971904Y-224325270D01*
X284971904Y-224325270D02*
X284911428Y-224264794D01*
X284911428Y-224264794D02*
X284790476Y-224204318D01*
D10*
X374538094Y-200954819D02*
X373966666Y-200954819D01*
X374252380Y-201954819D02*
X374252380Y-200954819D01*
X373680951Y-201050057D02*
X373633332Y-201002438D01*
X373633332Y-201002438D02*
X373538094Y-200954819D01*
X373538094Y-200954819D02*
X373299999Y-200954819D01*
X373299999Y-200954819D02*
X373204761Y-201002438D01*
X373204761Y-201002438D02*
X373157142Y-201050057D01*
X373157142Y-201050057D02*
X373109523Y-201145295D01*
X373109523Y-201145295D02*
X373109523Y-201240533D01*
X373109523Y-201240533D02*
X373157142Y-201383390D01*
X373157142Y-201383390D02*
X373728570Y-201954819D01*
X373728570Y-201954819D02*
X373109523Y-201954819D01*
X372538094Y-201383390D02*
X372633332Y-201335771D01*
X372633332Y-201335771D02*
X372680951Y-201288152D01*
X372680951Y-201288152D02*
X372728570Y-201192914D01*
X372728570Y-201192914D02*
X372728570Y-201145295D01*
X372728570Y-201145295D02*
X372680951Y-201050057D01*
X372680951Y-201050057D02*
X372633332Y-201002438D01*
X372633332Y-201002438D02*
X372538094Y-200954819D01*
X372538094Y-200954819D02*
X372347618Y-200954819D01*
X372347618Y-200954819D02*
X372252380Y-201002438D01*
X372252380Y-201002438D02*
X372204761Y-201050057D01*
X372204761Y-201050057D02*
X372157142Y-201145295D01*
X372157142Y-201145295D02*
X372157142Y-201192914D01*
X372157142Y-201192914D02*
X372204761Y-201288152D01*
X372204761Y-201288152D02*
X372252380Y-201335771D01*
X372252380Y-201335771D02*
X372347618Y-201383390D01*
X372347618Y-201383390D02*
X372538094Y-201383390D01*
X372538094Y-201383390D02*
X372633332Y-201431009D01*
X372633332Y-201431009D02*
X372680951Y-201478628D01*
X372680951Y-201478628D02*
X372728570Y-201573866D01*
X372728570Y-201573866D02*
X372728570Y-201764342D01*
X372728570Y-201764342D02*
X372680951Y-201859580D01*
X372680951Y-201859580D02*
X372633332Y-201907200D01*
X372633332Y-201907200D02*
X372538094Y-201954819D01*
X372538094Y-201954819D02*
X372347618Y-201954819D01*
X372347618Y-201954819D02*
X372252380Y-201907200D01*
X372252380Y-201907200D02*
X372204761Y-201859580D01*
X372204761Y-201859580D02*
X372157142Y-201764342D01*
X372157142Y-201764342D02*
X372157142Y-201573866D01*
X372157142Y-201573866D02*
X372204761Y-201478628D01*
X372204761Y-201478628D02*
X372252380Y-201431009D01*
X372252380Y-201431009D02*
X372347618Y-201383390D01*
X339619047Y-199954819D02*
X339952380Y-199478628D01*
X340190475Y-199954819D02*
X340190475Y-198954819D01*
X340190475Y-198954819D02*
X339809523Y-198954819D01*
X339809523Y-198954819D02*
X339714285Y-199002438D01*
X339714285Y-199002438D02*
X339666666Y-199050057D01*
X339666666Y-199050057D02*
X339619047Y-199145295D01*
X339619047Y-199145295D02*
X339619047Y-199288152D01*
X339619047Y-199288152D02*
X339666666Y-199383390D01*
X339666666Y-199383390D02*
X339714285Y-199431009D01*
X339714285Y-199431009D02*
X339809523Y-199478628D01*
X339809523Y-199478628D02*
X340190475Y-199478628D01*
X338666666Y-199954819D02*
X339238094Y-199954819D01*
X338952380Y-199954819D02*
X338952380Y-198954819D01*
X338952380Y-198954819D02*
X339047618Y-199097676D01*
X339047618Y-199097676D02*
X339142856Y-199192914D01*
X339142856Y-199192914D02*
X339238094Y-199240533D01*
X337714285Y-199954819D02*
X338285713Y-199954819D01*
X337999999Y-199954819D02*
X337999999Y-198954819D01*
X337999999Y-198954819D02*
X338095237Y-199097676D01*
X338095237Y-199097676D02*
X338190475Y-199192914D01*
X338190475Y-199192914D02*
X338285713Y-199240533D01*
X336809523Y-198954819D02*
X337285713Y-198954819D01*
X337285713Y-198954819D02*
X337333332Y-199431009D01*
X337333332Y-199431009D02*
X337285713Y-199383390D01*
X337285713Y-199383390D02*
X337190475Y-199335771D01*
X337190475Y-199335771D02*
X336952380Y-199335771D01*
X336952380Y-199335771D02*
X336857142Y-199383390D01*
X336857142Y-199383390D02*
X336809523Y-199431009D01*
X336809523Y-199431009D02*
X336761904Y-199526247D01*
X336761904Y-199526247D02*
X336761904Y-199764342D01*
X336761904Y-199764342D02*
X336809523Y-199859580D01*
X336809523Y-199859580D02*
X336857142Y-199907200D01*
X336857142Y-199907200D02*
X336952380Y-199954819D01*
X336952380Y-199954819D02*
X337190475Y-199954819D01*
X337190475Y-199954819D02*
X337285713Y-199907200D01*
X337285713Y-199907200D02*
X337333332Y-199859580D01*
X374538094Y-208754819D02*
X373966666Y-208754819D01*
X374252380Y-209754819D02*
X374252380Y-208754819D01*
X373680951Y-208850057D02*
X373633332Y-208802438D01*
X373633332Y-208802438D02*
X373538094Y-208754819D01*
X373538094Y-208754819D02*
X373299999Y-208754819D01*
X373299999Y-208754819D02*
X373204761Y-208802438D01*
X373204761Y-208802438D02*
X373157142Y-208850057D01*
X373157142Y-208850057D02*
X373109523Y-208945295D01*
X373109523Y-208945295D02*
X373109523Y-209040533D01*
X373109523Y-209040533D02*
X373157142Y-209183390D01*
X373157142Y-209183390D02*
X373728570Y-209754819D01*
X373728570Y-209754819D02*
X373109523Y-209754819D01*
X372204761Y-208754819D02*
X372680951Y-208754819D01*
X372680951Y-208754819D02*
X372728570Y-209231009D01*
X372728570Y-209231009D02*
X372680951Y-209183390D01*
X372680951Y-209183390D02*
X372585713Y-209135771D01*
X372585713Y-209135771D02*
X372347618Y-209135771D01*
X372347618Y-209135771D02*
X372252380Y-209183390D01*
X372252380Y-209183390D02*
X372204761Y-209231009D01*
X372204761Y-209231009D02*
X372157142Y-209326247D01*
X372157142Y-209326247D02*
X372157142Y-209564342D01*
X372157142Y-209564342D02*
X372204761Y-209659580D01*
X372204761Y-209659580D02*
X372252380Y-209707200D01*
X372252380Y-209707200D02*
X372347618Y-209754819D01*
X372347618Y-209754819D02*
X372585713Y-209754819D01*
X372585713Y-209754819D02*
X372680951Y-209707200D01*
X372680951Y-209707200D02*
X372728570Y-209659580D01*
X327929047Y-201724819D02*
X328262380Y-201248628D01*
X328500475Y-201724819D02*
X328500475Y-200724819D01*
X328500475Y-200724819D02*
X328119523Y-200724819D01*
X328119523Y-200724819D02*
X328024285Y-200772438D01*
X328024285Y-200772438D02*
X327976666Y-200820057D01*
X327976666Y-200820057D02*
X327929047Y-200915295D01*
X327929047Y-200915295D02*
X327929047Y-201058152D01*
X327929047Y-201058152D02*
X327976666Y-201153390D01*
X327976666Y-201153390D02*
X328024285Y-201201009D01*
X328024285Y-201201009D02*
X328119523Y-201248628D01*
X328119523Y-201248628D02*
X328500475Y-201248628D01*
X326976666Y-201724819D02*
X327548094Y-201724819D01*
X327262380Y-201724819D02*
X327262380Y-200724819D01*
X327262380Y-200724819D02*
X327357618Y-200867676D01*
X327357618Y-200867676D02*
X327452856Y-200962914D01*
X327452856Y-200962914D02*
X327548094Y-201010533D01*
X326024285Y-201724819D02*
X326595713Y-201724819D01*
X326309999Y-201724819D02*
X326309999Y-200724819D01*
X326309999Y-200724819D02*
X326405237Y-200867676D01*
X326405237Y-200867676D02*
X326500475Y-200962914D01*
X326500475Y-200962914D02*
X326595713Y-201010533D01*
X325452856Y-201153390D02*
X325548094Y-201105771D01*
X325548094Y-201105771D02*
X325595713Y-201058152D01*
X325595713Y-201058152D02*
X325643332Y-200962914D01*
X325643332Y-200962914D02*
X325643332Y-200915295D01*
X325643332Y-200915295D02*
X325595713Y-200820057D01*
X325595713Y-200820057D02*
X325548094Y-200772438D01*
X325548094Y-200772438D02*
X325452856Y-200724819D01*
X325452856Y-200724819D02*
X325262380Y-200724819D01*
X325262380Y-200724819D02*
X325167142Y-200772438D01*
X325167142Y-200772438D02*
X325119523Y-200820057D01*
X325119523Y-200820057D02*
X325071904Y-200915295D01*
X325071904Y-200915295D02*
X325071904Y-200962914D01*
X325071904Y-200962914D02*
X325119523Y-201058152D01*
X325119523Y-201058152D02*
X325167142Y-201105771D01*
X325167142Y-201105771D02*
X325262380Y-201153390D01*
X325262380Y-201153390D02*
X325452856Y-201153390D01*
X325452856Y-201153390D02*
X325548094Y-201201009D01*
X325548094Y-201201009D02*
X325595713Y-201248628D01*
X325595713Y-201248628D02*
X325643332Y-201343866D01*
X325643332Y-201343866D02*
X325643332Y-201534342D01*
X325643332Y-201534342D02*
X325595713Y-201629580D01*
X325595713Y-201629580D02*
X325548094Y-201677200D01*
X325548094Y-201677200D02*
X325452856Y-201724819D01*
X325452856Y-201724819D02*
X325262380Y-201724819D01*
X325262380Y-201724819D02*
X325167142Y-201677200D01*
X325167142Y-201677200D02*
X325119523Y-201629580D01*
X325119523Y-201629580D02*
X325071904Y-201534342D01*
X325071904Y-201534342D02*
X325071904Y-201343866D01*
X325071904Y-201343866D02*
X325119523Y-201248628D01*
X325119523Y-201248628D02*
X325167142Y-201201009D01*
X325167142Y-201201009D02*
X325262380Y-201153390D01*
X427954819Y-226461905D02*
X427954819Y-227033333D01*
X428954819Y-226747619D02*
X427954819Y-226747619D01*
X428954819Y-227890476D02*
X428954819Y-227319048D01*
X428954819Y-227604762D02*
X427954819Y-227604762D01*
X427954819Y-227604762D02*
X428097676Y-227509524D01*
X428097676Y-227509524D02*
X428192914Y-227414286D01*
X428192914Y-227414286D02*
X428240533Y-227319048D01*
X427954819Y-228223810D02*
X427954819Y-228890476D01*
X427954819Y-228890476D02*
X428954819Y-228461905D01*
X344204819Y-255738095D02*
X344204819Y-256309523D01*
X345204819Y-256023809D02*
X344204819Y-256023809D01*
X344538152Y-257071428D02*
X345204819Y-257071428D01*
X344157200Y-256833333D02*
X344871485Y-256595238D01*
X344871485Y-256595238D02*
X344871485Y-257214285D01*
X274950057Y-208528571D02*
X274902438Y-208433333D01*
X274902438Y-208433333D02*
X274807200Y-208338095D01*
X274807200Y-208338095D02*
X274664342Y-208195238D01*
X274664342Y-208195238D02*
X274616723Y-208100000D01*
X274616723Y-208100000D02*
X274616723Y-208004762D01*
X274854819Y-208052381D02*
X274807200Y-207957143D01*
X274807200Y-207957143D02*
X274711961Y-207861905D01*
X274711961Y-207861905D02*
X274521485Y-207814286D01*
X274521485Y-207814286D02*
X274188152Y-207814286D01*
X274188152Y-207814286D02*
X273997676Y-207861905D01*
X273997676Y-207861905D02*
X273902438Y-207957143D01*
X273902438Y-207957143D02*
X273854819Y-208052381D01*
X273854819Y-208052381D02*
X273854819Y-208242857D01*
X273854819Y-208242857D02*
X273902438Y-208338095D01*
X273902438Y-208338095D02*
X273997676Y-208433333D01*
X273997676Y-208433333D02*
X274188152Y-208480952D01*
X274188152Y-208480952D02*
X274521485Y-208480952D01*
X274521485Y-208480952D02*
X274711961Y-208433333D01*
X274711961Y-208433333D02*
X274807200Y-208338095D01*
X274807200Y-208338095D02*
X274854819Y-208242857D01*
X274854819Y-208242857D02*
X274854819Y-208052381D01*
X273950057Y-208861905D02*
X273902438Y-208909524D01*
X273902438Y-208909524D02*
X273854819Y-209004762D01*
X273854819Y-209004762D02*
X273854819Y-209242857D01*
X273854819Y-209242857D02*
X273902438Y-209338095D01*
X273902438Y-209338095D02*
X273950057Y-209385714D01*
X273950057Y-209385714D02*
X274045295Y-209433333D01*
X274045295Y-209433333D02*
X274140533Y-209433333D01*
X274140533Y-209433333D02*
X274283390Y-209385714D01*
X274283390Y-209385714D02*
X274854819Y-208814286D01*
X274854819Y-208814286D02*
X274854819Y-209433333D01*
X274283390Y-210004762D02*
X274235771Y-209909524D01*
X274235771Y-209909524D02*
X274188152Y-209861905D01*
X274188152Y-209861905D02*
X274092914Y-209814286D01*
X274092914Y-209814286D02*
X274045295Y-209814286D01*
X274045295Y-209814286D02*
X273950057Y-209861905D01*
X273950057Y-209861905D02*
X273902438Y-209909524D01*
X273902438Y-209909524D02*
X273854819Y-210004762D01*
X273854819Y-210004762D02*
X273854819Y-210195238D01*
X273854819Y-210195238D02*
X273902438Y-210290476D01*
X273902438Y-210290476D02*
X273950057Y-210338095D01*
X273950057Y-210338095D02*
X274045295Y-210385714D01*
X274045295Y-210385714D02*
X274092914Y-210385714D01*
X274092914Y-210385714D02*
X274188152Y-210338095D01*
X274188152Y-210338095D02*
X274235771Y-210290476D01*
X274235771Y-210290476D02*
X274283390Y-210195238D01*
X274283390Y-210195238D02*
X274283390Y-210004762D01*
X274283390Y-210004762D02*
X274331009Y-209909524D01*
X274331009Y-209909524D02*
X274378628Y-209861905D01*
X274378628Y-209861905D02*
X274473866Y-209814286D01*
X274473866Y-209814286D02*
X274664342Y-209814286D01*
X274664342Y-209814286D02*
X274759580Y-209861905D01*
X274759580Y-209861905D02*
X274807200Y-209909524D01*
X274807200Y-209909524D02*
X274854819Y-210004762D01*
X274854819Y-210004762D02*
X274854819Y-210195238D01*
X274854819Y-210195238D02*
X274807200Y-210290476D01*
X274807200Y-210290476D02*
X274759580Y-210338095D01*
X274759580Y-210338095D02*
X274664342Y-210385714D01*
X274664342Y-210385714D02*
X274473866Y-210385714D01*
X274473866Y-210385714D02*
X274378628Y-210338095D01*
X274378628Y-210338095D02*
X274331009Y-210290476D01*
X274331009Y-210290476D02*
X274283390Y-210195238D01*
X374338094Y-178204819D02*
X373766666Y-178204819D01*
X374052380Y-179204819D02*
X374052380Y-178204819D01*
X373528570Y-178204819D02*
X372909523Y-178204819D01*
X372909523Y-178204819D02*
X373242856Y-178585771D01*
X373242856Y-178585771D02*
X373099999Y-178585771D01*
X373099999Y-178585771D02*
X373004761Y-178633390D01*
X373004761Y-178633390D02*
X372957142Y-178681009D01*
X372957142Y-178681009D02*
X372909523Y-178776247D01*
X372909523Y-178776247D02*
X372909523Y-179014342D01*
X372909523Y-179014342D02*
X372957142Y-179109580D01*
X372957142Y-179109580D02*
X373004761Y-179157200D01*
X373004761Y-179157200D02*
X373099999Y-179204819D01*
X373099999Y-179204819D02*
X373385713Y-179204819D01*
X373385713Y-179204819D02*
X373480951Y-179157200D01*
X373480951Y-179157200D02*
X373528570Y-179109580D01*
X372528570Y-178300057D02*
X372480951Y-178252438D01*
X372480951Y-178252438D02*
X372385713Y-178204819D01*
X372385713Y-178204819D02*
X372147618Y-178204819D01*
X372147618Y-178204819D02*
X372052380Y-178252438D01*
X372052380Y-178252438D02*
X372004761Y-178300057D01*
X372004761Y-178300057D02*
X371957142Y-178395295D01*
X371957142Y-178395295D02*
X371957142Y-178490533D01*
X371957142Y-178490533D02*
X372004761Y-178633390D01*
X372004761Y-178633390D02*
X372576189Y-179204819D01*
X372576189Y-179204819D02*
X371957142Y-179204819D01*
D11*
X340225714Y-222895270D02*
X340346666Y-222834794D01*
X340346666Y-222834794D02*
X340467619Y-222713842D01*
X340467619Y-222713842D02*
X340649047Y-222532413D01*
X340649047Y-222532413D02*
X340770000Y-222471937D01*
X340770000Y-222471937D02*
X340890952Y-222471937D01*
X340830476Y-222774318D02*
X340951428Y-222713842D01*
X340951428Y-222713842D02*
X341072381Y-222592889D01*
X341072381Y-222592889D02*
X341132857Y-222350984D01*
X341132857Y-222350984D02*
X341132857Y-221927651D01*
X341132857Y-221927651D02*
X341072381Y-221685746D01*
X341072381Y-221685746D02*
X340951428Y-221564794D01*
X340951428Y-221564794D02*
X340830476Y-221504318D01*
X340830476Y-221504318D02*
X340588571Y-221504318D01*
X340588571Y-221504318D02*
X340467619Y-221564794D01*
X340467619Y-221564794D02*
X340346666Y-221685746D01*
X340346666Y-221685746D02*
X340286190Y-221927651D01*
X340286190Y-221927651D02*
X340286190Y-222350984D01*
X340286190Y-222350984D02*
X340346666Y-222592889D01*
X340346666Y-222592889D02*
X340467619Y-222713842D01*
X340467619Y-222713842D02*
X340588571Y-222774318D01*
X340588571Y-222774318D02*
X340830476Y-222774318D01*
X339862857Y-221504318D02*
X339076666Y-221504318D01*
X339076666Y-221504318D02*
X339500000Y-221988127D01*
X339500000Y-221988127D02*
X339318571Y-221988127D01*
X339318571Y-221988127D02*
X339197619Y-222048603D01*
X339197619Y-222048603D02*
X339137143Y-222109080D01*
X339137143Y-222109080D02*
X339076666Y-222230032D01*
X339076666Y-222230032D02*
X339076666Y-222532413D01*
X339076666Y-222532413D02*
X339137143Y-222653365D01*
X339137143Y-222653365D02*
X339197619Y-222713842D01*
X339197619Y-222713842D02*
X339318571Y-222774318D01*
X339318571Y-222774318D02*
X339681428Y-222774318D01*
X339681428Y-222774318D02*
X339802381Y-222713842D01*
X339802381Y-222713842D02*
X339862857Y-222653365D01*
X338592857Y-221625270D02*
X338532381Y-221564794D01*
X338532381Y-221564794D02*
X338411428Y-221504318D01*
X338411428Y-221504318D02*
X338109047Y-221504318D01*
X338109047Y-221504318D02*
X337988095Y-221564794D01*
X337988095Y-221564794D02*
X337927619Y-221625270D01*
X337927619Y-221625270D02*
X337867142Y-221746222D01*
X337867142Y-221746222D02*
X337867142Y-221867175D01*
X337867142Y-221867175D02*
X337927619Y-222048603D01*
X337927619Y-222048603D02*
X338653333Y-222774318D01*
X338653333Y-222774318D02*
X337867142Y-222774318D01*
D10*
X374704819Y-226261905D02*
X374704819Y-226833333D01*
X375704819Y-226547619D02*
X374704819Y-226547619D01*
X374800057Y-227119048D02*
X374752438Y-227166667D01*
X374752438Y-227166667D02*
X374704819Y-227261905D01*
X374704819Y-227261905D02*
X374704819Y-227500000D01*
X374704819Y-227500000D02*
X374752438Y-227595238D01*
X374752438Y-227595238D02*
X374800057Y-227642857D01*
X374800057Y-227642857D02*
X374895295Y-227690476D01*
X374895295Y-227690476D02*
X374990533Y-227690476D01*
X374990533Y-227690476D02*
X375133390Y-227642857D01*
X375133390Y-227642857D02*
X375704819Y-227071429D01*
X375704819Y-227071429D02*
X375704819Y-227690476D01*
X375704819Y-228642857D02*
X375704819Y-228071429D01*
X375704819Y-228357143D02*
X374704819Y-228357143D01*
X374704819Y-228357143D02*
X374847676Y-228261905D01*
X374847676Y-228261905D02*
X374942914Y-228166667D01*
X374942914Y-228166667D02*
X374990533Y-228071429D01*
X290919047Y-211554819D02*
X291252380Y-211078628D01*
X291490475Y-211554819D02*
X291490475Y-210554819D01*
X291490475Y-210554819D02*
X291109523Y-210554819D01*
X291109523Y-210554819D02*
X291014285Y-210602438D01*
X291014285Y-210602438D02*
X290966666Y-210650057D01*
X290966666Y-210650057D02*
X290919047Y-210745295D01*
X290919047Y-210745295D02*
X290919047Y-210888152D01*
X290919047Y-210888152D02*
X290966666Y-210983390D01*
X290966666Y-210983390D02*
X291014285Y-211031009D01*
X291014285Y-211031009D02*
X291109523Y-211078628D01*
X291109523Y-211078628D02*
X291490475Y-211078628D01*
X289966666Y-211554819D02*
X290538094Y-211554819D01*
X290252380Y-211554819D02*
X290252380Y-210554819D01*
X290252380Y-210554819D02*
X290347618Y-210697676D01*
X290347618Y-210697676D02*
X290442856Y-210792914D01*
X290442856Y-210792914D02*
X290538094Y-210840533D01*
X289014285Y-211554819D02*
X289585713Y-211554819D01*
X289299999Y-211554819D02*
X289299999Y-210554819D01*
X289299999Y-210554819D02*
X289395237Y-210697676D01*
X289395237Y-210697676D02*
X289490475Y-210792914D01*
X289490475Y-210792914D02*
X289585713Y-210840533D01*
X288157142Y-210888152D02*
X288157142Y-211554819D01*
X288395237Y-210507200D02*
X288633332Y-211221485D01*
X288633332Y-211221485D02*
X288014285Y-211221485D01*
X374538094Y-206254819D02*
X373966666Y-206254819D01*
X374252380Y-207254819D02*
X374252380Y-206254819D01*
X373680951Y-206350057D02*
X373633332Y-206302438D01*
X373633332Y-206302438D02*
X373538094Y-206254819D01*
X373538094Y-206254819D02*
X373299999Y-206254819D01*
X373299999Y-206254819D02*
X373204761Y-206302438D01*
X373204761Y-206302438D02*
X373157142Y-206350057D01*
X373157142Y-206350057D02*
X373109523Y-206445295D01*
X373109523Y-206445295D02*
X373109523Y-206540533D01*
X373109523Y-206540533D02*
X373157142Y-206683390D01*
X373157142Y-206683390D02*
X373728570Y-207254819D01*
X373728570Y-207254819D02*
X373109523Y-207254819D01*
X372252380Y-206254819D02*
X372442856Y-206254819D01*
X372442856Y-206254819D02*
X372538094Y-206302438D01*
X372538094Y-206302438D02*
X372585713Y-206350057D01*
X372585713Y-206350057D02*
X372680951Y-206492914D01*
X372680951Y-206492914D02*
X372728570Y-206683390D01*
X372728570Y-206683390D02*
X372728570Y-207064342D01*
X372728570Y-207064342D02*
X372680951Y-207159580D01*
X372680951Y-207159580D02*
X372633332Y-207207200D01*
X372633332Y-207207200D02*
X372538094Y-207254819D01*
X372538094Y-207254819D02*
X372347618Y-207254819D01*
X372347618Y-207254819D02*
X372252380Y-207207200D01*
X372252380Y-207207200D02*
X372204761Y-207159580D01*
X372204761Y-207159580D02*
X372157142Y-207064342D01*
X372157142Y-207064342D02*
X372157142Y-206826247D01*
X372157142Y-206826247D02*
X372204761Y-206731009D01*
X372204761Y-206731009D02*
X372252380Y-206683390D01*
X372252380Y-206683390D02*
X372347618Y-206635771D01*
X372347618Y-206635771D02*
X372538094Y-206635771D01*
X372538094Y-206635771D02*
X372633332Y-206683390D01*
X372633332Y-206683390D02*
X372680951Y-206731009D01*
X372680951Y-206731009D02*
X372728570Y-206826247D01*
X430454819Y-226461905D02*
X430454819Y-227033333D01*
X431454819Y-226747619D02*
X430454819Y-226747619D01*
X431454819Y-227890476D02*
X431454819Y-227319048D01*
X431454819Y-227604762D02*
X430454819Y-227604762D01*
X430454819Y-227604762D02*
X430597676Y-227509524D01*
X430597676Y-227509524D02*
X430692914Y-227414286D01*
X430692914Y-227414286D02*
X430740533Y-227319048D01*
X430454819Y-228747619D02*
X430454819Y-228557143D01*
X430454819Y-228557143D02*
X430502438Y-228461905D01*
X430502438Y-228461905D02*
X430550057Y-228414286D01*
X430550057Y-228414286D02*
X430692914Y-228319048D01*
X430692914Y-228319048D02*
X430883390Y-228271429D01*
X430883390Y-228271429D02*
X431264342Y-228271429D01*
X431264342Y-228271429D02*
X431359580Y-228319048D01*
X431359580Y-228319048D02*
X431407200Y-228366667D01*
X431407200Y-228366667D02*
X431454819Y-228461905D01*
X431454819Y-228461905D02*
X431454819Y-228652381D01*
X431454819Y-228652381D02*
X431407200Y-228747619D01*
X431407200Y-228747619D02*
X431359580Y-228795238D01*
X431359580Y-228795238D02*
X431264342Y-228842857D01*
X431264342Y-228842857D02*
X431026247Y-228842857D01*
X431026247Y-228842857D02*
X430931009Y-228795238D01*
X430931009Y-228795238D02*
X430883390Y-228747619D01*
X430883390Y-228747619D02*
X430835771Y-228652381D01*
X430835771Y-228652381D02*
X430835771Y-228461905D01*
X430835771Y-228461905D02*
X430883390Y-228366667D01*
X430883390Y-228366667D02*
X430931009Y-228319048D01*
X430931009Y-228319048D02*
X431026247Y-228271429D01*
X382254819Y-226261905D02*
X382254819Y-226833333D01*
X383254819Y-226547619D02*
X382254819Y-226547619D01*
X383254819Y-227690476D02*
X383254819Y-227119048D01*
X383254819Y-227404762D02*
X382254819Y-227404762D01*
X382254819Y-227404762D02*
X382397676Y-227309524D01*
X382397676Y-227309524D02*
X382492914Y-227214286D01*
X382492914Y-227214286D02*
X382540533Y-227119048D01*
X382683390Y-228261905D02*
X382635771Y-228166667D01*
X382635771Y-228166667D02*
X382588152Y-228119048D01*
X382588152Y-228119048D02*
X382492914Y-228071429D01*
X382492914Y-228071429D02*
X382445295Y-228071429D01*
X382445295Y-228071429D02*
X382350057Y-228119048D01*
X382350057Y-228119048D02*
X382302438Y-228166667D01*
X382302438Y-228166667D02*
X382254819Y-228261905D01*
X382254819Y-228261905D02*
X382254819Y-228452381D01*
X382254819Y-228452381D02*
X382302438Y-228547619D01*
X382302438Y-228547619D02*
X382350057Y-228595238D01*
X382350057Y-228595238D02*
X382445295Y-228642857D01*
X382445295Y-228642857D02*
X382492914Y-228642857D01*
X382492914Y-228642857D02*
X382588152Y-228595238D01*
X382588152Y-228595238D02*
X382635771Y-228547619D01*
X382635771Y-228547619D02*
X382683390Y-228452381D01*
X382683390Y-228452381D02*
X382683390Y-228261905D01*
X382683390Y-228261905D02*
X382731009Y-228166667D01*
X382731009Y-228166667D02*
X382778628Y-228119048D01*
X382778628Y-228119048D02*
X382873866Y-228071429D01*
X382873866Y-228071429D02*
X383064342Y-228071429D01*
X383064342Y-228071429D02*
X383159580Y-228119048D01*
X383159580Y-228119048D02*
X383207200Y-228166667D01*
X383207200Y-228166667D02*
X383254819Y-228261905D01*
X383254819Y-228261905D02*
X383254819Y-228452381D01*
X383254819Y-228452381D02*
X383207200Y-228547619D01*
X383207200Y-228547619D02*
X383159580Y-228595238D01*
X383159580Y-228595238D02*
X383064342Y-228642857D01*
X383064342Y-228642857D02*
X382873866Y-228642857D01*
X382873866Y-228642857D02*
X382778628Y-228595238D01*
X382778628Y-228595238D02*
X382731009Y-228547619D01*
X382731009Y-228547619D02*
X382683390Y-228452381D01*
X344319047Y-211554819D02*
X344652380Y-211078628D01*
X344890475Y-211554819D02*
X344890475Y-210554819D01*
X344890475Y-210554819D02*
X344509523Y-210554819D01*
X344509523Y-210554819D02*
X344414285Y-210602438D01*
X344414285Y-210602438D02*
X344366666Y-210650057D01*
X344366666Y-210650057D02*
X344319047Y-210745295D01*
X344319047Y-210745295D02*
X344319047Y-210888152D01*
X344319047Y-210888152D02*
X344366666Y-210983390D01*
X344366666Y-210983390D02*
X344414285Y-211031009D01*
X344414285Y-211031009D02*
X344509523Y-211078628D01*
X344509523Y-211078628D02*
X344890475Y-211078628D01*
X343366666Y-211554819D02*
X343938094Y-211554819D01*
X343652380Y-211554819D02*
X343652380Y-210554819D01*
X343652380Y-210554819D02*
X343747618Y-210697676D01*
X343747618Y-210697676D02*
X343842856Y-210792914D01*
X343842856Y-210792914D02*
X343938094Y-210840533D01*
X342414285Y-211554819D02*
X342985713Y-211554819D01*
X342699999Y-211554819D02*
X342699999Y-210554819D01*
X342699999Y-210554819D02*
X342795237Y-210697676D01*
X342795237Y-210697676D02*
X342890475Y-210792914D01*
X342890475Y-210792914D02*
X342985713Y-210840533D01*
X342080951Y-210554819D02*
X341414285Y-210554819D01*
X341414285Y-210554819D02*
X341842856Y-211554819D01*
X354011904Y-247006819D02*
X353440476Y-247006819D01*
X353726190Y-248006819D02*
X353726190Y-247006819D01*
X352678571Y-247006819D02*
X352869047Y-247006819D01*
X352869047Y-247006819D02*
X352964285Y-247054438D01*
X352964285Y-247054438D02*
X353011904Y-247102057D01*
X353011904Y-247102057D02*
X353107142Y-247244914D01*
X353107142Y-247244914D02*
X353154761Y-247435390D01*
X353154761Y-247435390D02*
X353154761Y-247816342D01*
X353154761Y-247816342D02*
X353107142Y-247911580D01*
X353107142Y-247911580D02*
X353059523Y-247959200D01*
X353059523Y-247959200D02*
X352964285Y-248006819D01*
X352964285Y-248006819D02*
X352773809Y-248006819D01*
X352773809Y-248006819D02*
X352678571Y-247959200D01*
X352678571Y-247959200D02*
X352630952Y-247911580D01*
X352630952Y-247911580D02*
X352583333Y-247816342D01*
X352583333Y-247816342D02*
X352583333Y-247578247D01*
X352583333Y-247578247D02*
X352630952Y-247483009D01*
X352630952Y-247483009D02*
X352678571Y-247435390D01*
X352678571Y-247435390D02*
X352773809Y-247387771D01*
X352773809Y-247387771D02*
X352964285Y-247387771D01*
X352964285Y-247387771D02*
X353059523Y-247435390D01*
X353059523Y-247435390D02*
X353107142Y-247483009D01*
X353107142Y-247483009D02*
X353154761Y-247578247D01*
X275419047Y-214754819D02*
X275752380Y-214278628D01*
X275990475Y-214754819D02*
X275990475Y-213754819D01*
X275990475Y-213754819D02*
X275609523Y-213754819D01*
X275609523Y-213754819D02*
X275514285Y-213802438D01*
X275514285Y-213802438D02*
X275466666Y-213850057D01*
X275466666Y-213850057D02*
X275419047Y-213945295D01*
X275419047Y-213945295D02*
X275419047Y-214088152D01*
X275419047Y-214088152D02*
X275466666Y-214183390D01*
X275466666Y-214183390D02*
X275514285Y-214231009D01*
X275514285Y-214231009D02*
X275609523Y-214278628D01*
X275609523Y-214278628D02*
X275990475Y-214278628D01*
X274466666Y-214754819D02*
X275038094Y-214754819D01*
X274752380Y-214754819D02*
X274752380Y-213754819D01*
X274752380Y-213754819D02*
X274847618Y-213897676D01*
X274847618Y-213897676D02*
X274942856Y-213992914D01*
X274942856Y-213992914D02*
X275038094Y-214040533D01*
X273514285Y-214754819D02*
X274085713Y-214754819D01*
X273799999Y-214754819D02*
X273799999Y-213754819D01*
X273799999Y-213754819D02*
X273895237Y-213897676D01*
X273895237Y-213897676D02*
X273990475Y-213992914D01*
X273990475Y-213992914D02*
X274085713Y-214040533D01*
X272895237Y-213754819D02*
X272799999Y-213754819D01*
X272799999Y-213754819D02*
X272704761Y-213802438D01*
X272704761Y-213802438D02*
X272657142Y-213850057D01*
X272657142Y-213850057D02*
X272609523Y-213945295D01*
X272609523Y-213945295D02*
X272561904Y-214135771D01*
X272561904Y-214135771D02*
X272561904Y-214373866D01*
X272561904Y-214373866D02*
X272609523Y-214564342D01*
X272609523Y-214564342D02*
X272657142Y-214659580D01*
X272657142Y-214659580D02*
X272704761Y-214707200D01*
X272704761Y-214707200D02*
X272799999Y-214754819D01*
X272799999Y-214754819D02*
X272895237Y-214754819D01*
X272895237Y-214754819D02*
X272990475Y-214707200D01*
X272990475Y-214707200D02*
X273038094Y-214659580D01*
X273038094Y-214659580D02*
X273085713Y-214564342D01*
X273085713Y-214564342D02*
X273133332Y-214373866D01*
X273133332Y-214373866D02*
X273133332Y-214135771D01*
X273133332Y-214135771D02*
X273085713Y-213945295D01*
X273085713Y-213945295D02*
X273038094Y-213850057D01*
X273038094Y-213850057D02*
X272990475Y-213802438D01*
X272990475Y-213802438D02*
X272895237Y-213754819D01*
X346456819Y-255738095D02*
X346456819Y-256309523D01*
X347456819Y-256023809D02*
X346456819Y-256023809D01*
X346456819Y-257119047D02*
X346456819Y-256642857D01*
X346456819Y-256642857D02*
X346933009Y-256595238D01*
X346933009Y-256595238D02*
X346885390Y-256642857D01*
X346885390Y-256642857D02*
X346837771Y-256738095D01*
X346837771Y-256738095D02*
X346837771Y-256976190D01*
X346837771Y-256976190D02*
X346885390Y-257071428D01*
X346885390Y-257071428D02*
X346933009Y-257119047D01*
X346933009Y-257119047D02*
X347028247Y-257166666D01*
X347028247Y-257166666D02*
X347266342Y-257166666D01*
X347266342Y-257166666D02*
X347361580Y-257119047D01*
X347361580Y-257119047D02*
X347409200Y-257071428D01*
X347409200Y-257071428D02*
X347456819Y-256976190D01*
X347456819Y-256976190D02*
X347456819Y-256738095D01*
X347456819Y-256738095D02*
X347409200Y-256642857D01*
X347409200Y-256642857D02*
X347361580Y-256595238D01*
X238954819Y-254938095D02*
X238954819Y-255509523D01*
X239954819Y-255223809D02*
X238954819Y-255223809D01*
X239954819Y-255890476D02*
X239954819Y-256080952D01*
X239954819Y-256080952D02*
X239907200Y-256176190D01*
X239907200Y-256176190D02*
X239859580Y-256223809D01*
X239859580Y-256223809D02*
X239716723Y-256319047D01*
X239716723Y-256319047D02*
X239526247Y-256366666D01*
X239526247Y-256366666D02*
X239145295Y-256366666D01*
X239145295Y-256366666D02*
X239050057Y-256319047D01*
X239050057Y-256319047D02*
X239002438Y-256271428D01*
X239002438Y-256271428D02*
X238954819Y-256176190D01*
X238954819Y-256176190D02*
X238954819Y-255985714D01*
X238954819Y-255985714D02*
X239002438Y-255890476D01*
X239002438Y-255890476D02*
X239050057Y-255842857D01*
X239050057Y-255842857D02*
X239145295Y-255795238D01*
X239145295Y-255795238D02*
X239383390Y-255795238D01*
X239383390Y-255795238D02*
X239478628Y-255842857D01*
X239478628Y-255842857D02*
X239526247Y-255890476D01*
X239526247Y-255890476D02*
X239573866Y-255985714D01*
X239573866Y-255985714D02*
X239573866Y-256176190D01*
X239573866Y-256176190D02*
X239526247Y-256271428D01*
X239526247Y-256271428D02*
X239478628Y-256319047D01*
X239478628Y-256319047D02*
X239383390Y-256366666D01*
X374238094Y-183154819D02*
X373666666Y-183154819D01*
X373952380Y-184154819D02*
X373952380Y-183154819D01*
X373428570Y-183154819D02*
X372809523Y-183154819D01*
X372809523Y-183154819D02*
X373142856Y-183535771D01*
X373142856Y-183535771D02*
X372999999Y-183535771D01*
X372999999Y-183535771D02*
X372904761Y-183583390D01*
X372904761Y-183583390D02*
X372857142Y-183631009D01*
X372857142Y-183631009D02*
X372809523Y-183726247D01*
X372809523Y-183726247D02*
X372809523Y-183964342D01*
X372809523Y-183964342D02*
X372857142Y-184059580D01*
X372857142Y-184059580D02*
X372904761Y-184107200D01*
X372904761Y-184107200D02*
X372999999Y-184154819D01*
X372999999Y-184154819D02*
X373285713Y-184154819D01*
X373285713Y-184154819D02*
X373380951Y-184107200D01*
X373380951Y-184107200D02*
X373428570Y-184059580D01*
X372190475Y-183154819D02*
X372095237Y-183154819D01*
X372095237Y-183154819D02*
X371999999Y-183202438D01*
X371999999Y-183202438D02*
X371952380Y-183250057D01*
X371952380Y-183250057D02*
X371904761Y-183345295D01*
X371904761Y-183345295D02*
X371857142Y-183535771D01*
X371857142Y-183535771D02*
X371857142Y-183773866D01*
X371857142Y-183773866D02*
X371904761Y-183964342D01*
X371904761Y-183964342D02*
X371952380Y-184059580D01*
X371952380Y-184059580D02*
X371999999Y-184107200D01*
X371999999Y-184107200D02*
X372095237Y-184154819D01*
X372095237Y-184154819D02*
X372190475Y-184154819D01*
X372190475Y-184154819D02*
X372285713Y-184107200D01*
X372285713Y-184107200D02*
X372333332Y-184059580D01*
X372333332Y-184059580D02*
X372380951Y-183964342D01*
X372380951Y-183964342D02*
X372428570Y-183773866D01*
X372428570Y-183773866D02*
X372428570Y-183535771D01*
X372428570Y-183535771D02*
X372380951Y-183345295D01*
X372380951Y-183345295D02*
X372333332Y-183250057D01*
X372333332Y-183250057D02*
X372285713Y-183202438D01*
X372285713Y-183202438D02*
X372190475Y-183154819D01*
X283250057Y-208428571D02*
X283202438Y-208333333D01*
X283202438Y-208333333D02*
X283107200Y-208238095D01*
X283107200Y-208238095D02*
X282964342Y-208095238D01*
X282964342Y-208095238D02*
X282916723Y-208000000D01*
X282916723Y-208000000D02*
X282916723Y-207904762D01*
X283154819Y-207952381D02*
X283107200Y-207857143D01*
X283107200Y-207857143D02*
X283011961Y-207761905D01*
X283011961Y-207761905D02*
X282821485Y-207714286D01*
X282821485Y-207714286D02*
X282488152Y-207714286D01*
X282488152Y-207714286D02*
X282297676Y-207761905D01*
X282297676Y-207761905D02*
X282202438Y-207857143D01*
X282202438Y-207857143D02*
X282154819Y-207952381D01*
X282154819Y-207952381D02*
X282154819Y-208142857D01*
X282154819Y-208142857D02*
X282202438Y-208238095D01*
X282202438Y-208238095D02*
X282297676Y-208333333D01*
X282297676Y-208333333D02*
X282488152Y-208380952D01*
X282488152Y-208380952D02*
X282821485Y-208380952D01*
X282821485Y-208380952D02*
X283011961Y-208333333D01*
X283011961Y-208333333D02*
X283107200Y-208238095D01*
X283107200Y-208238095D02*
X283154819Y-208142857D01*
X283154819Y-208142857D02*
X283154819Y-207952381D01*
X282250057Y-208761905D02*
X282202438Y-208809524D01*
X282202438Y-208809524D02*
X282154819Y-208904762D01*
X282154819Y-208904762D02*
X282154819Y-209142857D01*
X282154819Y-209142857D02*
X282202438Y-209238095D01*
X282202438Y-209238095D02*
X282250057Y-209285714D01*
X282250057Y-209285714D02*
X282345295Y-209333333D01*
X282345295Y-209333333D02*
X282440533Y-209333333D01*
X282440533Y-209333333D02*
X282583390Y-209285714D01*
X282583390Y-209285714D02*
X283154819Y-208714286D01*
X283154819Y-208714286D02*
X283154819Y-209333333D01*
X283154819Y-209809524D02*
X283154819Y-210000000D01*
X283154819Y-210000000D02*
X283107200Y-210095238D01*
X283107200Y-210095238D02*
X283059580Y-210142857D01*
X283059580Y-210142857D02*
X282916723Y-210238095D01*
X282916723Y-210238095D02*
X282726247Y-210285714D01*
X282726247Y-210285714D02*
X282345295Y-210285714D01*
X282345295Y-210285714D02*
X282250057Y-210238095D01*
X282250057Y-210238095D02*
X282202438Y-210190476D01*
X282202438Y-210190476D02*
X282154819Y-210095238D01*
X282154819Y-210095238D02*
X282154819Y-209904762D01*
X282154819Y-209904762D02*
X282202438Y-209809524D01*
X282202438Y-209809524D02*
X282250057Y-209761905D01*
X282250057Y-209761905D02*
X282345295Y-209714286D01*
X282345295Y-209714286D02*
X282583390Y-209714286D01*
X282583390Y-209714286D02*
X282678628Y-209761905D01*
X282678628Y-209761905D02*
X282726247Y-209809524D01*
X282726247Y-209809524D02*
X282773866Y-209904762D01*
X282773866Y-209904762D02*
X282773866Y-210095238D01*
X282773866Y-210095238D02*
X282726247Y-210190476D01*
X282726247Y-210190476D02*
X282678628Y-210238095D01*
X282678628Y-210238095D02*
X282583390Y-210285714D01*
X360838094Y-203754819D02*
X360266666Y-203754819D01*
X360552380Y-204754819D02*
X360552380Y-203754819D01*
X360028570Y-203754819D02*
X359409523Y-203754819D01*
X359409523Y-203754819D02*
X359742856Y-204135771D01*
X359742856Y-204135771D02*
X359599999Y-204135771D01*
X359599999Y-204135771D02*
X359504761Y-204183390D01*
X359504761Y-204183390D02*
X359457142Y-204231009D01*
X359457142Y-204231009D02*
X359409523Y-204326247D01*
X359409523Y-204326247D02*
X359409523Y-204564342D01*
X359409523Y-204564342D02*
X359457142Y-204659580D01*
X359457142Y-204659580D02*
X359504761Y-204707200D01*
X359504761Y-204707200D02*
X359599999Y-204754819D01*
X359599999Y-204754819D02*
X359885713Y-204754819D01*
X359885713Y-204754819D02*
X359980951Y-204707200D01*
X359980951Y-204707200D02*
X360028570Y-204659580D01*
X358552380Y-204088152D02*
X358552380Y-204754819D01*
X358790475Y-203707200D02*
X359028570Y-204421485D01*
X359028570Y-204421485D02*
X358409523Y-204421485D01*
X360838094Y-201254819D02*
X360266666Y-201254819D01*
X360552380Y-202254819D02*
X360552380Y-201254819D01*
X360028570Y-201254819D02*
X359409523Y-201254819D01*
X359409523Y-201254819D02*
X359742856Y-201635771D01*
X359742856Y-201635771D02*
X359599999Y-201635771D01*
X359599999Y-201635771D02*
X359504761Y-201683390D01*
X359504761Y-201683390D02*
X359457142Y-201731009D01*
X359457142Y-201731009D02*
X359409523Y-201826247D01*
X359409523Y-201826247D02*
X359409523Y-202064342D01*
X359409523Y-202064342D02*
X359457142Y-202159580D01*
X359457142Y-202159580D02*
X359504761Y-202207200D01*
X359504761Y-202207200D02*
X359599999Y-202254819D01*
X359599999Y-202254819D02*
X359885713Y-202254819D01*
X359885713Y-202254819D02*
X359980951Y-202207200D01*
X359980951Y-202207200D02*
X360028570Y-202159580D01*
X358504761Y-201254819D02*
X358980951Y-201254819D01*
X358980951Y-201254819D02*
X359028570Y-201731009D01*
X359028570Y-201731009D02*
X358980951Y-201683390D01*
X358980951Y-201683390D02*
X358885713Y-201635771D01*
X358885713Y-201635771D02*
X358647618Y-201635771D01*
X358647618Y-201635771D02*
X358552380Y-201683390D01*
X358552380Y-201683390D02*
X358504761Y-201731009D01*
X358504761Y-201731009D02*
X358457142Y-201826247D01*
X358457142Y-201826247D02*
X358457142Y-202064342D01*
X358457142Y-202064342D02*
X358504761Y-202159580D01*
X358504761Y-202159580D02*
X358552380Y-202207200D01*
X358552380Y-202207200D02*
X358647618Y-202254819D01*
X358647618Y-202254819D02*
X358885713Y-202254819D01*
X358885713Y-202254819D02*
X358980951Y-202207200D01*
X358980951Y-202207200D02*
X359028570Y-202159580D01*
X336450057Y-205228571D02*
X336402438Y-205133333D01*
X336402438Y-205133333D02*
X336307200Y-205038095D01*
X336307200Y-205038095D02*
X336164342Y-204895238D01*
X336164342Y-204895238D02*
X336116723Y-204800000D01*
X336116723Y-204800000D02*
X336116723Y-204704762D01*
X336354819Y-204752381D02*
X336307200Y-204657143D01*
X336307200Y-204657143D02*
X336211961Y-204561905D01*
X336211961Y-204561905D02*
X336021485Y-204514286D01*
X336021485Y-204514286D02*
X335688152Y-204514286D01*
X335688152Y-204514286D02*
X335497676Y-204561905D01*
X335497676Y-204561905D02*
X335402438Y-204657143D01*
X335402438Y-204657143D02*
X335354819Y-204752381D01*
X335354819Y-204752381D02*
X335354819Y-204942857D01*
X335354819Y-204942857D02*
X335402438Y-205038095D01*
X335402438Y-205038095D02*
X335497676Y-205133333D01*
X335497676Y-205133333D02*
X335688152Y-205180952D01*
X335688152Y-205180952D02*
X336021485Y-205180952D01*
X336021485Y-205180952D02*
X336211961Y-205133333D01*
X336211961Y-205133333D02*
X336307200Y-205038095D01*
X336307200Y-205038095D02*
X336354819Y-204942857D01*
X336354819Y-204942857D02*
X336354819Y-204752381D01*
X335354819Y-205514286D02*
X335354819Y-206133333D01*
X335354819Y-206133333D02*
X335735771Y-205800000D01*
X335735771Y-205800000D02*
X335735771Y-205942857D01*
X335735771Y-205942857D02*
X335783390Y-206038095D01*
X335783390Y-206038095D02*
X335831009Y-206085714D01*
X335831009Y-206085714D02*
X335926247Y-206133333D01*
X335926247Y-206133333D02*
X336164342Y-206133333D01*
X336164342Y-206133333D02*
X336259580Y-206085714D01*
X336259580Y-206085714D02*
X336307200Y-206038095D01*
X336307200Y-206038095D02*
X336354819Y-205942857D01*
X336354819Y-205942857D02*
X336354819Y-205657143D01*
X336354819Y-205657143D02*
X336307200Y-205561905D01*
X336307200Y-205561905D02*
X336259580Y-205514286D01*
X336354819Y-207085714D02*
X336354819Y-206514286D01*
X336354819Y-206800000D02*
X335354819Y-206800000D01*
X335354819Y-206800000D02*
X335497676Y-206704762D01*
X335497676Y-206704762D02*
X335592914Y-206609524D01*
X335592914Y-206609524D02*
X335640533Y-206514286D01*
D12*
%TO.C,T37*%
X400050000Y-169050000D02*
X400050000Y-170450000D01*
X400050000Y-170450000D02*
X401450000Y-170450000D01*
X401450000Y-169050000D02*
X400050000Y-169050000D01*
X401450000Y-170450000D02*
X401450000Y-169050000D01*
D13*
%TO.C,Q27*%
X274750000Y-218000000D02*
X274750000Y-221500000D01*
X274750000Y-221500000D02*
X281250000Y-221500000D01*
X274900000Y-215850000D02*
X274900000Y-217650000D01*
X281250000Y-218000000D02*
X274750000Y-218000000D01*
X281250000Y-221500000D02*
X281250000Y-218000000D01*
D12*
%TO.C,R120*%
X331272936Y-208745000D02*
X331727064Y-208745000D01*
X331272936Y-210215000D02*
X331727064Y-210215000D01*
%TO.C,R119*%
X331272936Y-210765000D02*
X331727064Y-210765000D01*
X331272936Y-212235000D02*
X331727064Y-212235000D01*
%TO.C,C34*%
X276859420Y-205490000D02*
X277140580Y-205490000D01*
X276859420Y-206510000D02*
X277140580Y-206510000D01*
%TO.C,T24*%
X370300000Y-211050000D02*
X370300000Y-212450000D01*
X370300000Y-212450000D02*
X371700000Y-212450000D01*
X371700000Y-211050000D02*
X370300000Y-211050000D01*
X371700000Y-212450000D02*
X371700000Y-211050000D01*
%TO.C,T36*%
X397550000Y-169050000D02*
X397550000Y-170450000D01*
X397550000Y-170450000D02*
X398950000Y-170450000D01*
X398950000Y-169050000D02*
X397550000Y-169050000D01*
X398950000Y-170450000D02*
X398950000Y-169050000D01*
%TO.C,R116*%
X339272936Y-208745000D02*
X339727064Y-208745000D01*
X339272936Y-210215000D02*
X339727064Y-210215000D01*
%TO.C,R111*%
X276772936Y-203265000D02*
X277227064Y-203265000D01*
X276772936Y-204735000D02*
X277227064Y-204735000D01*
%TO.C,T31*%
X370050000Y-180550000D02*
X370050000Y-181950000D01*
X370050000Y-181950000D02*
X371450000Y-181950000D01*
X371450000Y-180550000D02*
X370050000Y-180550000D01*
X371450000Y-181950000D02*
X371450000Y-180550000D01*
%TO.C,T23*%
X369550000Y-224550000D02*
X369550000Y-225950000D01*
X369550000Y-225950000D02*
X370950000Y-225950000D01*
X370950000Y-224550000D02*
X369550000Y-224550000D01*
X370950000Y-225950000D02*
X370950000Y-224550000D01*
%TO.C,T1*%
X337050000Y-253800000D02*
X337050000Y-255200000D01*
X337050000Y-255200000D02*
X338450000Y-255200000D01*
X338450000Y-253800000D02*
X337050000Y-253800000D01*
X338450000Y-255200000D02*
X338450000Y-253800000D01*
%TO.C,Q33*%
X328940000Y-206230000D02*
X328940000Y-205580000D01*
X328940000Y-206230000D02*
X328940000Y-206880000D01*
X332060000Y-206230000D02*
X332060000Y-205580000D01*
X332060000Y-206230000D02*
X332060000Y-206880000D01*
X328990000Y-205067500D02*
X328660000Y-205307500D01*
X328660000Y-204827500D01*
X328990000Y-205067500D01*
G36*
X328990000Y-205067500D02*
G01*
X328660000Y-205307500D01*
X328660000Y-204827500D01*
X328990000Y-205067500D01*
G37*
%TO.C,C35*%
X285359420Y-205490000D02*
X285640580Y-205490000D01*
X285359420Y-206510000D02*
X285640580Y-206510000D01*
%TO.C,R109*%
X277772936Y-211515000D02*
X278227064Y-211515000D01*
X277772936Y-212985000D02*
X278227064Y-212985000D01*
%TO.C,C36*%
X338359420Y-202720000D02*
X338640580Y-202720000D01*
X338359420Y-203740000D02*
X338640580Y-203740000D01*
%TO.C,T22*%
X372050000Y-224550000D02*
X372050000Y-225950000D01*
X372050000Y-225950000D02*
X373450000Y-225950000D01*
X373450000Y-224550000D02*
X372050000Y-224550000D01*
X373450000Y-225950000D02*
X373450000Y-224550000D01*
%TO.C,T20*%
X377050000Y-224550000D02*
X377050000Y-225950000D01*
X377050000Y-225950000D02*
X378450000Y-225950000D01*
X378450000Y-224550000D02*
X377050000Y-224550000D01*
X378450000Y-225950000D02*
X378450000Y-224550000D01*
%TO.C,T2*%
X339550000Y-253800000D02*
X339550000Y-255200000D01*
X339550000Y-255200000D02*
X340950000Y-255200000D01*
X340950000Y-253800000D02*
X339550000Y-253800000D01*
X340950000Y-255200000D02*
X340950000Y-253800000D01*
%TO.C,T3*%
X341800000Y-253800000D02*
X341800000Y-255200000D01*
X341800000Y-255200000D02*
X343200000Y-255200000D01*
X343200000Y-253800000D02*
X341800000Y-253800000D01*
X343200000Y-255200000D02*
X343200000Y-253800000D01*
%TO.C,T10*%
X234050000Y-253050000D02*
X234050000Y-254450000D01*
X234050000Y-254450000D02*
X235450000Y-254450000D01*
X235450000Y-253050000D02*
X234050000Y-253050000D01*
X235450000Y-254450000D02*
X235450000Y-253050000D01*
%TO.C,T29*%
X370050000Y-188300000D02*
X370050000Y-189700000D01*
X370050000Y-189700000D02*
X371450000Y-189700000D01*
X371450000Y-188300000D02*
X370050000Y-188300000D01*
X371450000Y-189700000D02*
X371450000Y-188300000D01*
%TO.C,T19*%
X379550000Y-224550000D02*
X379550000Y-225950000D01*
X379550000Y-225950000D02*
X380950000Y-225950000D01*
X380950000Y-224550000D02*
X379550000Y-224550000D01*
X380950000Y-225950000D02*
X380950000Y-224550000D01*
D13*
%TO.C,Q34*%
X328000000Y-215230000D02*
X328000000Y-218730000D01*
X328000000Y-218730000D02*
X334500000Y-218730000D01*
X328150000Y-213080000D02*
X328150000Y-214880000D01*
X334500000Y-215230000D02*
X328000000Y-215230000D01*
X334500000Y-218730000D02*
X334500000Y-215230000D01*
D12*
%TO.C,R112*%
X285272936Y-203265000D02*
X285727064Y-203265000D01*
X285272936Y-204735000D02*
X285727064Y-204735000D01*
%TO.C,T33*%
X361300000Y-206050000D02*
X361300000Y-207450000D01*
X361300000Y-207450000D02*
X362700000Y-207450000D01*
X362700000Y-206050000D02*
X361300000Y-206050000D01*
X362700000Y-207450000D02*
X362700000Y-206050000D01*
%TO.C,T38*%
X437050000Y-169050000D02*
X437050000Y-170450000D01*
X437050000Y-170450000D02*
X438450000Y-170450000D01*
X438450000Y-169050000D02*
X437050000Y-169050000D01*
X438450000Y-170450000D02*
X438450000Y-169050000D01*
%TO.C,R113*%
X286022936Y-213515000D02*
X286477064Y-213515000D01*
X286022936Y-214985000D02*
X286477064Y-214985000D01*
%TO.C,T27*%
X370300000Y-203550000D02*
X370300000Y-204950000D01*
X370300000Y-204950000D02*
X371700000Y-204950000D01*
X371700000Y-203550000D02*
X370300000Y-203550000D01*
X371700000Y-204950000D02*
X371700000Y-203550000D01*
%TO.C,C37*%
X330359420Y-202720000D02*
X330640580Y-202720000D01*
X330359420Y-203740000D02*
X330640580Y-203740000D01*
%TO.C,T15*%
X433050000Y-224800000D02*
X433050000Y-226200000D01*
X433050000Y-226200000D02*
X434450000Y-226200000D01*
X434450000Y-224800000D02*
X433050000Y-224800000D01*
X434450000Y-226200000D02*
X434450000Y-224800000D01*
D13*
%TO.C,Q30*%
X282750000Y-218000000D02*
X282750000Y-221500000D01*
X282750000Y-221500000D02*
X289250000Y-221500000D01*
X282900000Y-215850000D02*
X282900000Y-217650000D01*
X289250000Y-218000000D02*
X282750000Y-218000000D01*
X289250000Y-221500000D02*
X289250000Y-218000000D01*
D12*
%TO.C,T28*%
X370300000Y-200800000D02*
X370300000Y-202200000D01*
X370300000Y-202200000D02*
X371700000Y-202200000D01*
X371700000Y-200800000D02*
X370300000Y-200800000D01*
X371700000Y-202200000D02*
X371700000Y-200800000D01*
%TO.C,R115*%
X338272936Y-200495000D02*
X338727064Y-200495000D01*
X338272936Y-201965000D02*
X338727064Y-201965000D01*
%TO.C,T25*%
X370300000Y-208550000D02*
X370300000Y-209950000D01*
X370300000Y-209950000D02*
X371700000Y-209950000D01*
X371700000Y-208550000D02*
X370300000Y-208550000D01*
X371700000Y-209950000D02*
X371700000Y-208550000D01*
%TO.C,R118*%
X330272936Y-200495000D02*
X330727064Y-200495000D01*
X330272936Y-201965000D02*
X330727064Y-201965000D01*
%TO.C,T17*%
X427800000Y-224800000D02*
X427800000Y-226200000D01*
X427800000Y-226200000D02*
X429200000Y-226200000D01*
X429200000Y-224800000D02*
X427800000Y-224800000D01*
X429200000Y-226200000D02*
X429200000Y-224800000D01*
%TO.C,T4*%
X344050000Y-253800000D02*
X344050000Y-255200000D01*
X344050000Y-255200000D02*
X345450000Y-255200000D01*
X345450000Y-253800000D02*
X344050000Y-253800000D01*
X345450000Y-255200000D02*
X345450000Y-253800000D01*
%TO.C,Q28*%
X275440000Y-209000000D02*
X275440000Y-208350000D01*
X275440000Y-209000000D02*
X275440000Y-209650000D01*
X278560000Y-209000000D02*
X278560000Y-208350000D01*
X278560000Y-209000000D02*
X278560000Y-209650000D01*
X275490000Y-207837500D02*
X275160000Y-208077500D01*
X275160000Y-207597500D01*
X275490000Y-207837500D01*
G36*
X275490000Y-207837500D02*
G01*
X275160000Y-208077500D01*
X275160000Y-207597500D01*
X275490000Y-207837500D01*
G37*
%TO.C,T32*%
X370050000Y-178050000D02*
X370050000Y-179450000D01*
X370050000Y-179450000D02*
X371450000Y-179450000D01*
X371450000Y-178050000D02*
X370050000Y-178050000D01*
X371450000Y-179450000D02*
X371450000Y-178050000D01*
D13*
%TO.C,Q32*%
X336250000Y-215230000D02*
X336250000Y-218730000D01*
X336250000Y-218730000D02*
X342750000Y-218730000D01*
X336400000Y-213080000D02*
X336400000Y-214880000D01*
X342750000Y-215230000D02*
X336250000Y-215230000D01*
X342750000Y-218730000D02*
X342750000Y-215230000D01*
D12*
%TO.C,T21*%
X374550000Y-224550000D02*
X374550000Y-225950000D01*
X374550000Y-225950000D02*
X375950000Y-225950000D01*
X375950000Y-224550000D02*
X374550000Y-224550000D01*
X375950000Y-225950000D02*
X375950000Y-224550000D01*
%TO.C,R114*%
X286022936Y-211515000D02*
X286477064Y-211515000D01*
X286022936Y-212985000D02*
X286477064Y-212985000D01*
%TO.C,T26*%
X370300000Y-206050000D02*
X370300000Y-207450000D01*
X370300000Y-207450000D02*
X371700000Y-207450000D01*
X371700000Y-206050000D02*
X370300000Y-206050000D01*
X371700000Y-207450000D02*
X371700000Y-206050000D01*
%TO.C,T16*%
X430300000Y-224800000D02*
X430300000Y-226200000D01*
X430300000Y-226200000D02*
X431700000Y-226200000D01*
X431700000Y-224800000D02*
X430300000Y-224800000D01*
X431700000Y-226200000D02*
X431700000Y-224800000D01*
%TO.C,T18*%
X382050000Y-224550000D02*
X382050000Y-225950000D01*
X382050000Y-225950000D02*
X383450000Y-225950000D01*
X383450000Y-224550000D02*
X382050000Y-224550000D01*
X383450000Y-225950000D02*
X383450000Y-224550000D01*
%TO.C,R117*%
X339272936Y-210745000D02*
X339727064Y-210745000D01*
X339272936Y-212215000D02*
X339727064Y-212215000D01*
%TO.C,T6*%
X352550000Y-248300000D02*
X352550000Y-249700000D01*
X352550000Y-249700000D02*
X353950000Y-249700000D01*
X353950000Y-248300000D02*
X352550000Y-248300000D01*
X353950000Y-249700000D02*
X353950000Y-248300000D01*
%TO.C,R110*%
X277772936Y-213515000D02*
X278227064Y-213515000D01*
X277772936Y-214985000D02*
X278227064Y-214985000D01*
%TO.C,T5*%
X346300000Y-253800000D02*
X346300000Y-255200000D01*
X346300000Y-255200000D02*
X347700000Y-255200000D01*
X347700000Y-253800000D02*
X346300000Y-253800000D01*
X347700000Y-255200000D02*
X347700000Y-253800000D01*
%TO.C,T9*%
X238800000Y-253050000D02*
X238800000Y-254450000D01*
X238800000Y-254450000D02*
X240200000Y-254450000D01*
X240200000Y-253050000D02*
X238800000Y-253050000D01*
X240200000Y-254450000D02*
X240200000Y-253050000D01*
%TO.C,T30*%
X370050000Y-183050000D02*
X370050000Y-184450000D01*
X370050000Y-184450000D02*
X371450000Y-184450000D01*
X371450000Y-183050000D02*
X370050000Y-183050000D01*
X371450000Y-184450000D02*
X371450000Y-183050000D01*
%TO.C,Q29*%
X283690000Y-209000000D02*
X283690000Y-208350000D01*
X283690000Y-209000000D02*
X283690000Y-209650000D01*
X286810000Y-209000000D02*
X286810000Y-208350000D01*
X286810000Y-209000000D02*
X286810000Y-209650000D01*
X283740000Y-207837500D02*
X283410000Y-208077500D01*
X283410000Y-207597500D01*
X283740000Y-207837500D01*
G36*
X283740000Y-207837500D02*
G01*
X283410000Y-208077500D01*
X283410000Y-207597500D01*
X283740000Y-207837500D01*
G37*
%TO.C,T34*%
X361300000Y-203550000D02*
X361300000Y-204950000D01*
X361300000Y-204950000D02*
X362700000Y-204950000D01*
X362700000Y-203550000D02*
X361300000Y-203550000D01*
X362700000Y-204950000D02*
X362700000Y-203550000D01*
%TO.C,T35*%
X361300000Y-201050000D02*
X361300000Y-202450000D01*
X361300000Y-202450000D02*
X362700000Y-202450000D01*
X362700000Y-201050000D02*
X361300000Y-201050000D01*
X362700000Y-202450000D02*
X362700000Y-201050000D01*
%TO.C,Q31*%
X336940000Y-206230000D02*
X336940000Y-205580000D01*
X336940000Y-206230000D02*
X336940000Y-206880000D01*
X340060000Y-206230000D02*
X340060000Y-205580000D01*
X340060000Y-206230000D02*
X340060000Y-206880000D01*
X336990000Y-205067500D02*
X336660000Y-205307500D01*
X336660000Y-204827500D01*
X336990000Y-205067500D01*
G36*
X336990000Y-205067500D02*
G01*
X336660000Y-205307500D01*
X336660000Y-204827500D01*
X336990000Y-205067500D01*
G37*
%TD*%
%LPC*%
D14*
%TO.C,C1*%
X446000000Y-247338606D03*
D15*
X446000000Y-249838606D03*
%TD*%
D16*
%TO.C,J17*%
X356000000Y-115000000D03*
D17*
X350920000Y-115000000D03*
%TD*%
D18*
%TO.C,JP2*%
X453000000Y-239250000D03*
D19*
X455540000Y-239250000D03*
X458080000Y-239250000D03*
%TD*%
D20*
%TO.C,J4*%
X367645000Y-216855000D03*
D19*
X365105000Y-216855000D03*
X367645000Y-214315000D03*
X365105000Y-214315000D03*
X367645000Y-211775000D03*
X365105000Y-211775000D03*
X367645000Y-209235000D03*
X365105000Y-209235000D03*
X367645000Y-206695000D03*
X365105000Y-206695000D03*
X367645000Y-204155000D03*
X365105000Y-204155000D03*
X367645000Y-201615000D03*
X365105000Y-201615000D03*
X367645000Y-199075000D03*
X365105000Y-199075000D03*
X367645000Y-196535000D03*
X365105000Y-196535000D03*
X367645000Y-193995000D03*
X365105000Y-193995000D03*
X367645000Y-191455000D03*
X365105000Y-191455000D03*
X367645000Y-188915000D03*
X365105000Y-188915000D03*
X367645000Y-186375000D03*
X365105000Y-186375000D03*
X367645000Y-183835000D03*
X365105000Y-183835000D03*
X367645000Y-181295000D03*
X365105000Y-181295000D03*
X367645000Y-178755000D03*
X365105000Y-178755000D03*
X367645000Y-176215000D03*
X365105000Y-176215000D03*
X367645000Y-173675000D03*
X365105000Y-173675000D03*
%TD*%
D21*
%TO.C,K5*%
X275000000Y-142700000D03*
X282600000Y-142700000D03*
X282600000Y-130000000D03*
X275000000Y-127460000D03*
%TD*%
D22*
%TO.C,J6*%
X442829000Y-173675000D03*
D19*
X440289000Y-173675000D03*
X437749000Y-173675000D03*
X435209000Y-173675000D03*
X432669000Y-173675000D03*
X430129000Y-173675000D03*
X427589000Y-173675000D03*
X425049000Y-173675000D03*
X422509000Y-173675000D03*
X419969000Y-173675000D03*
%TD*%
D16*
%TO.C,J22*%
X231000000Y-115000000D03*
D17*
X225920000Y-115000000D03*
%TD*%
D21*
%TO.C,K4*%
X250000000Y-142700000D03*
X257600000Y-142700000D03*
X257600000Y-130000000D03*
X250000000Y-127460000D03*
%TD*%
D22*
%TO.C,J3*%
X387965000Y-221935000D03*
D19*
X385425000Y-221935000D03*
X382885000Y-221935000D03*
X380345000Y-221935000D03*
X377805000Y-221935000D03*
X375265000Y-221935000D03*
X372725000Y-221935000D03*
X370185000Y-221935000D03*
%TD*%
D23*
%TO.C,Q3*%
X167750000Y-231250000D03*
D24*
X184410000Y-233790000D03*
D25*
X184410000Y-231250000D03*
X184410000Y-228710000D03*
%TD*%
D22*
%TO.C,J7*%
X415905000Y-173675000D03*
D19*
X413365000Y-173675000D03*
X410825000Y-173675000D03*
X408285000Y-173675000D03*
X405745000Y-173675000D03*
X403205000Y-173675000D03*
X400665000Y-173675000D03*
X398125000Y-173675000D03*
%TD*%
D26*
%TO.C,J11*%
X244007500Y-246000000D03*
D27*
X241717500Y-246000000D03*
X239427500Y-246000000D03*
X237137500Y-246000000D03*
X234847500Y-246000000D03*
X245152500Y-248540000D03*
X242862500Y-248540000D03*
X240572500Y-248540000D03*
X238282500Y-248540000D03*
X235992500Y-248540000D03*
X244007500Y-251080000D03*
X241717500Y-251080000D03*
X239427500Y-251080000D03*
X237137500Y-251080000D03*
X234847500Y-251080000D03*
D28*
X252494500Y-248540000D03*
X227505500Y-248540000D03*
%TD*%
D16*
%TO.C,J16*%
X381000000Y-115000000D03*
D17*
X375920000Y-115000000D03*
%TD*%
D21*
%TO.C,K7*%
X300000000Y-142700000D03*
X307600000Y-142700000D03*
X307600000Y-130000000D03*
X300000000Y-127460000D03*
%TD*%
D16*
%TO.C,J18*%
X331000000Y-115000000D03*
D17*
X325920000Y-115000000D03*
%TD*%
D22*
%TO.C,J2*%
X410825000Y-221935000D03*
D19*
X408285000Y-221935000D03*
X405745000Y-221935000D03*
X403205000Y-221935000D03*
X400665000Y-221935000D03*
X398125000Y-221935000D03*
X395585000Y-221935000D03*
X393045000Y-221935000D03*
%TD*%
D21*
%TO.C,K8*%
X400000000Y-142700000D03*
X407600000Y-142700000D03*
X407600000Y-130000000D03*
X400000000Y-127460000D03*
%TD*%
D16*
%TO.C,J21*%
X256000000Y-115000000D03*
D17*
X250920000Y-115000000D03*
%TD*%
D14*
%TO.C,C2*%
X455750000Y-247338607D03*
D15*
X455750000Y-249838607D03*
%TD*%
D29*
%TO.C,J14*%
X184370000Y-246510000D03*
D30*
X179290000Y-252870000D03*
X189450000Y-252870000D03*
X189450000Y-242710000D03*
X179290000Y-242710000D03*
%TD*%
D21*
%TO.C,K9*%
X325000000Y-142700000D03*
X332600000Y-142700000D03*
X332600000Y-130000000D03*
X325000000Y-127460000D03*
%TD*%
D16*
%TO.C,J20*%
X281000000Y-115000000D03*
D17*
X275920000Y-115000000D03*
%TD*%
D22*
%TO.C,J9*%
X388150000Y-165200000D03*
D19*
X385610000Y-165200000D03*
X383070000Y-165200000D03*
X380530000Y-165200000D03*
X377990000Y-165200000D03*
X375450000Y-165200000D03*
%TD*%
D31*
%TO.C,J25*%
X459000000Y-125000000D03*
D32*
X459000000Y-119000000D03*
X454300000Y-122000000D03*
%TD*%
D33*
%TO.C,H2*%
X476000000Y-256000000D03*
%TD*%
%TO.C,H4*%
X476000000Y-114000000D03*
%TD*%
D34*
%TO.C,J10*%
X324100000Y-249000000D03*
X357400000Y-249000000D03*
D35*
X349375000Y-246460000D03*
D15*
X347085000Y-246460000D03*
X344795000Y-246460000D03*
X342505000Y-246460000D03*
X340215000Y-246460000D03*
X337925000Y-246460000D03*
X335635000Y-246460000D03*
X333345000Y-246460000D03*
X331055000Y-246460000D03*
X350520000Y-249000000D03*
X348230000Y-249000000D03*
X345940000Y-249000000D03*
X343650000Y-249000000D03*
X341360000Y-249000000D03*
X339070000Y-249000000D03*
X336780000Y-249000000D03*
X334490000Y-249000000D03*
X332200000Y-249000000D03*
X349375000Y-251540000D03*
X347085000Y-251540000D03*
X344795000Y-251540000D03*
X342505000Y-251540000D03*
X340215000Y-251540000D03*
X337925000Y-251540000D03*
X335635000Y-251540000D03*
X333345000Y-251540000D03*
%TD*%
D16*
%TO.C,J23*%
X206000000Y-115000000D03*
D17*
X200920000Y-115000000D03*
%TD*%
D21*
%TO.C,K6*%
X375037500Y-142700000D03*
X382637500Y-142700000D03*
X382637500Y-130000000D03*
X375037500Y-127460000D03*
%TD*%
%TO.C,K1*%
X175000000Y-142700000D03*
X182600000Y-142700000D03*
X182600000Y-130000000D03*
X175000000Y-127460000D03*
%TD*%
D22*
%TO.C,J8*%
X393045000Y-173675000D03*
D19*
X390505000Y-173675000D03*
X387965000Y-173675000D03*
X385425000Y-173675000D03*
X382885000Y-173675000D03*
X380345000Y-173675000D03*
X377805000Y-173675000D03*
X375265000Y-173675000D03*
%TD*%
D16*
%TO.C,J24*%
X181000000Y-115000000D03*
D17*
X175920000Y-115000000D03*
%TD*%
D34*
%TO.C,J12*%
X472890000Y-160345000D03*
X472890000Y-135345000D03*
D36*
X471000000Y-152160000D03*
D15*
X471000000Y-149870000D03*
X471000000Y-147580000D03*
X471000000Y-145290000D03*
X471000000Y-143000000D03*
X472900000Y-153305000D03*
X472900000Y-151015000D03*
X472900000Y-148725000D03*
X472900000Y-146435000D03*
X472900000Y-144145000D03*
X474800000Y-152160000D03*
X474800000Y-149870000D03*
X474800000Y-147580000D03*
X474800000Y-145290000D03*
X474800000Y-143000000D03*
%TD*%
D29*
%TO.C,J13*%
X204370000Y-246510000D03*
D30*
X209450000Y-252870000D03*
X209450000Y-242710000D03*
X199290000Y-242710000D03*
X199290000Y-252870000D03*
%TD*%
D21*
%TO.C,K3*%
X225000000Y-142700000D03*
X232600000Y-142700000D03*
X232600000Y-130000000D03*
X225000000Y-127460000D03*
%TD*%
D37*
%TO.C,J15*%
X295945000Y-248510000D03*
D38*
X293175000Y-248510000D03*
X290405000Y-248510000D03*
X287635000Y-248510000D03*
X284865000Y-248510000D03*
X294560000Y-251350000D03*
X291790000Y-251350000D03*
X289020000Y-251350000D03*
X286250000Y-251350000D03*
D39*
X302900000Y-249930000D03*
X277910000Y-249930000D03*
%TD*%
D16*
%TO.C,J5*%
X406000000Y-115000000D03*
D17*
X400920000Y-115000000D03*
%TD*%
D16*
%TO.C,J19*%
X306000000Y-115000000D03*
D17*
X300920000Y-115000000D03*
%TD*%
D22*
%TO.C,J1*%
X433685000Y-221935000D03*
D19*
X431145000Y-221935000D03*
X428605000Y-221935000D03*
X426065000Y-221935000D03*
X423525000Y-221935000D03*
X420985000Y-221935000D03*
X418445000Y-221935000D03*
X415905000Y-221935000D03*
%TD*%
D33*
%TO.C,H3*%
X164000000Y-114000000D03*
%TD*%
D21*
%TO.C,K2*%
X200000000Y-142700000D03*
X207600000Y-142700000D03*
X207600000Y-130000000D03*
X200000000Y-127460000D03*
%TD*%
D33*
%TO.C,H1*%
X164000000Y-256000000D03*
%TD*%
D21*
%TO.C,K10*%
X349600000Y-142700000D03*
X357200000Y-142700000D03*
X357200000Y-130000000D03*
X349600000Y-127460000D03*
%TD*%
D40*
%TO.C,T37*%
X400750000Y-169750000D03*
%TD*%
D41*
%TO.C,Q27*%
X275700000Y-216750000D03*
X278000000Y-216750000D03*
X280300000Y-216750000D03*
D42*
X278000000Y-222750000D03*
%TD*%
D43*
%TO.C,R120*%
X330587500Y-209480000D03*
X332412500Y-209480000D03*
%TD*%
D44*
%TO.C,MH6*%
X365105000Y-221935000D03*
%TD*%
D43*
%TO.C,R119*%
X330587500Y-211500000D03*
X332412500Y-211500000D03*
%TD*%
D45*
%TO.C,C34*%
X276225000Y-206000000D03*
X277775000Y-206000000D03*
%TD*%
D40*
%TO.C,T24*%
X371000000Y-211750000D03*
%TD*%
%TO.C,T36*%
X398250000Y-169750000D03*
%TD*%
D43*
%TO.C,R116*%
X338587500Y-209480000D03*
X340412500Y-209480000D03*
%TD*%
%TO.C,R111*%
X276087500Y-204000000D03*
X277912500Y-204000000D03*
%TD*%
D40*
%TO.C,T31*%
X370750000Y-181250000D03*
%TD*%
%TO.C,T23*%
X370250000Y-225250000D03*
%TD*%
%TO.C,T1*%
X337750000Y-254500000D03*
%TD*%
D46*
%TO.C,Q33*%
X329550000Y-205292500D03*
X331450000Y-205292500D03*
X330500000Y-207167500D03*
%TD*%
D45*
%TO.C,C35*%
X284725000Y-206000000D03*
X286275000Y-206000000D03*
%TD*%
D43*
%TO.C,R109*%
X277087500Y-212250000D03*
X278912500Y-212250000D03*
%TD*%
D45*
%TO.C,C36*%
X337725000Y-203230000D03*
X339275000Y-203230000D03*
%TD*%
D40*
%TO.C,T22*%
X372750000Y-225250000D03*
%TD*%
%TO.C,T20*%
X377750000Y-225250000D03*
%TD*%
%TO.C,T2*%
X340250000Y-254500000D03*
%TD*%
%TO.C,T3*%
X342500000Y-254500000D03*
%TD*%
%TO.C,T10*%
X234750000Y-253750000D03*
%TD*%
%TO.C,T29*%
X370750000Y-189000000D03*
%TD*%
%TO.C,T19*%
X380250000Y-225250000D03*
%TD*%
D41*
%TO.C,Q34*%
X328950000Y-213980000D03*
X331250000Y-213980000D03*
X333550000Y-213980000D03*
D42*
X331250000Y-219980000D03*
%TD*%
D43*
%TO.C,R112*%
X284587500Y-204000000D03*
X286412500Y-204000000D03*
%TD*%
D40*
%TO.C,T33*%
X362000000Y-206750000D03*
%TD*%
%TO.C,T38*%
X437750000Y-169750000D03*
%TD*%
D43*
%TO.C,R113*%
X285337500Y-214250000D03*
X287162500Y-214250000D03*
%TD*%
D44*
%TO.C,MH4*%
X395585000Y-216855000D03*
%TD*%
D40*
%TO.C,T27*%
X371000000Y-204250000D03*
%TD*%
D45*
%TO.C,C37*%
X329725000Y-203230000D03*
X331275000Y-203230000D03*
%TD*%
D40*
%TO.C,T15*%
X433750000Y-225500000D03*
%TD*%
D41*
%TO.C,Q30*%
X283700000Y-216750000D03*
X286000000Y-216750000D03*
X288300000Y-216750000D03*
D42*
X286000000Y-222750000D03*
%TD*%
D40*
%TO.C,T28*%
X371000000Y-201500000D03*
%TD*%
D43*
%TO.C,R115*%
X337587500Y-201230000D03*
X339412500Y-201230000D03*
%TD*%
D40*
%TO.C,T25*%
X371000000Y-209250000D03*
%TD*%
D43*
%TO.C,R118*%
X329587500Y-201230000D03*
X331412500Y-201230000D03*
%TD*%
D40*
%TO.C,T17*%
X428500000Y-225500000D03*
%TD*%
D44*
%TO.C,MH1*%
X446385000Y-173675000D03*
%TD*%
D40*
%TO.C,T4*%
X344750000Y-254500000D03*
%TD*%
D46*
%TO.C,Q28*%
X276050000Y-208062500D03*
X277950000Y-208062500D03*
X277000000Y-209937500D03*
%TD*%
D47*
%TO.C,T32*%
X370750000Y-178750000D03*
%TD*%
D41*
%TO.C,Q32*%
X337200000Y-213980000D03*
X339500000Y-213980000D03*
X341800000Y-213980000D03*
D42*
X339500000Y-219980000D03*
%TD*%
D40*
%TO.C,T21*%
X375250000Y-225250000D03*
%TD*%
D43*
%TO.C,R114*%
X285337500Y-212250000D03*
X287162500Y-212250000D03*
%TD*%
D40*
%TO.C,T26*%
X371000000Y-206750000D03*
%TD*%
%TO.C,T16*%
X431000000Y-225500000D03*
%TD*%
%TO.C,T18*%
X382750000Y-225250000D03*
%TD*%
D44*
%TO.C,MH2*%
X447655000Y-221935000D03*
%TD*%
%TO.C,MH3*%
X395585000Y-188915000D03*
%TD*%
D43*
%TO.C,R117*%
X338587500Y-211480000D03*
X340412500Y-211480000D03*
%TD*%
D40*
%TO.C,T6*%
X353250000Y-249000000D03*
%TD*%
D43*
%TO.C,R110*%
X277087500Y-214250000D03*
X278912500Y-214250000D03*
%TD*%
D40*
%TO.C,T5*%
X347000000Y-254500000D03*
%TD*%
D44*
%TO.C,MH5*%
X371455000Y-173675000D03*
%TD*%
D40*
%TO.C,T9*%
X239500000Y-253750000D03*
%TD*%
%TO.C,T30*%
X370750000Y-183750000D03*
%TD*%
D46*
%TO.C,Q29*%
X284300000Y-208062500D03*
X286200000Y-208062500D03*
X285250000Y-209937500D03*
%TD*%
D40*
%TO.C,T34*%
X362000000Y-204250000D03*
%TD*%
%TO.C,T35*%
X362000000Y-201750000D03*
%TD*%
D46*
%TO.C,Q31*%
X337550000Y-205292500D03*
X339450000Y-205292500D03*
X338500000Y-207167500D03*
%TD*%
%LPD*%
M02*
